{"glyphs":{"A":{"ha":1049,"x_min":-43,"x_max":1110,"o":"m 988 -58 q 917 -59 957 -58 q 844 -56 876 -60 q 812 -49 828 -53 q 781 -43 796 -46 q 738 -36 760 -40 q 696 -22 715 -32 q 663 8 675 -11 q 632 40 650 26 q 594 61 615 56 q 549 68 572 67 q 504 65 528 68 q 463 49 481 61 q 423 2 436 31 q 382 -43 410 -26 q 332 -57 360 -56 q 279 -58 304 -58 q 214 -59 249 -58 q 147 -57 179 -60 q 106 -51 126 -54 q 65 -42 85 -47 q 38 -37 51 -39 q 13 -32 25 -35 l -3 -28 q -15 -17 -7 -25 q -22 -12 -18 -14 q -28 -7 -25 -10 q -31 1 -29 -4 q -33 8 -32 6 q -40 37 -39 22 q -42 65 -40 51 q -42 106 -43 86 q -37 146 -42 126 q -22 205 -32 176 q -1 261 -11 233 q 26 317 10 272 q 63 428 43 363 q 105 565 83 493 q 147 703 126 638 q 184 814 167 768 q 211 869 201 860 q 231 926 221 897 q 251 982 240 956 q 269 1017 258 1000 q 294 1046 279 1035 q 337 1063 314 1060 q 382 1068 360 1067 q 462 1069 414 1069 q 540 1068 510 1068 q 594 1067 567 1068 q 646 1056 622 1067 q 676 1037 663 1049 q 704 1014 690 1025 q 735 990 719 1003 q 761 961 750 976 q 780 933 772 949 q 794 901 788 917 q 815 856 806 879 q 833 808 824 832 q 861 753 846 796 q 892 651 876 710 q 924 535 908 593 q 956 433 940 476 q 983 378 971 390 q 1009 321 996 363 q 1035 229 1022 279 q 1062 138 1049 179 q 1088 81 1075 96 q 1099 47 1093 64 q 1106 14 1104 31 q 1108 3 1107 8 q 1108 -6 1110 -1 q 1106 -12 1108 -8 q 1103 -21 1104 -17 q 1101 -28 1101 -24 q 1097 -35 1100 -32 q 1092 -38 1096 -36 q 1085 -43 1088 -40 q 1078 -47 1082 -44 q 1072 -51 1075 -50 q 1064 -53 1069 -53 q 1054 -56 1058 -54 q 1024 -58 1040 -57 q 988 -58 1007 -58 m 1015 131 q 989 185 1006 142 q 953 290 972 228 q 914 420 935 351 q 874 551 893 489 q 840 656 856 613 q 813 710 824 700 q 787 787 800 742 q 760 863 774 832 q 743 909 753 885 q 715 949 733 933 q 683 965 701 960 q 646 971 664 969 q 590 973 618 974 q 535 972 563 972 q 476 973 506 972 q 417 972 446 974 q 375 968 396 971 q 338 951 354 965 q 315 922 324 940 q 299 888 306 904 q 278 829 288 858 q 257 771 268 800 q 229 714 244 758 q 197 610 214 669 q 163 490 181 550 q 131 386 146 431 q 103 329 115 342 q 80 269 92 308 q 57 192 68 231 q 33 132 46 153 q 22 97 28 114 q 13 63 15 81 q 11 53 13 58 q 11 43 10 47 q 14 36 11 40 q 18 29 17 32 q 21 24 19 28 q 25 17 22 19 q 33 13 28 14 q 42 8 38 11 q 88 -1 63 -1 q 136 0 114 0 l 247 0 q 283 4 264 1 q 315 17 301 7 q 349 58 339 32 q 378 103 360 85 q 383 108 381 106 q 388 113 386 111 q 394 116 390 115 q 401 118 399 117 q 438 126 419 125 q 475 126 457 126 l 585 126 q 611 126 599 126 q 636 122 624 125 q 644 121 640 121 q 651 118 649 121 q 683 88 674 108 q 706 49 693 67 q 750 10 724 22 q 792 1 769 1 q 835 0 814 0 q 902 0 867 0 q 968 1 938 0 q 986 3 978 1 q 1004 8 994 6 q 1014 11 1008 8 q 1021 18 1018 14 q 1026 25 1024 22 q 1030 30 1028 28 q 1033 33 1032 32 q 1035 42 1036 36 q 1035 51 1035 49 q 1029 90 1036 71 q 1015 131 1022 110 m 468 435 q 467 449 468 442 q 467 463 467 456 q 472 485 468 474 q 479 507 476 497 q 487 534 483 521 q 496 560 490 547 q 501 571 499 564 q 506 581 503 578 q 512 585 508 583 q 518 588 515 586 q 523 590 519 588 q 528 592 526 592 q 531 590 531 592 q 533 586 532 588 q 551 560 546 574 q 563 528 558 544 q 574 493 568 511 q 579 473 576 483 q 582 451 582 463 q 580 440 582 446 q 576 429 578 435 q 575 422 576 424 q 569 417 574 419 q 563 411 565 414 q 559 408 561 410 q 554 404 557 406 q 547 403 551 403 q 539 401 542 403 q 517 400 529 400 q 496 404 506 400 q 483 413 490 407 q 478 417 482 415 q 472 421 475 419 q 468 435 471 422 z "},"B":{"ha":1019,"x_min":7,"x_max":1024,"o":"m 992 453 q 1013 408 1006 438 q 1022 343 1021 378 q 1019 278 1024 308 q 1006 231 1015 247 q 981 178 994 201 q 963 153 972 165 q 944 129 954 142 q 899 67 922 99 q 844 14 876 36 q 800 -9 832 1 q 726 -28 768 -19 q 642 -42 685 -36 q 568 -51 600 -49 q 524 -54 536 -54 l 172 -54 q 131 -54 153 -54 q 90 -46 110 -54 q 64 -31 78 -42 q 33 3 47 -17 q 11 44 18 22 q 8 69 8 56 q 7 96 7 83 l 7 860 q 8 890 7 875 q 10 918 8 904 q 12 926 11 921 q 14 932 13 931 q 33 956 21 947 q 57 975 46 965 q 80 993 68 983 q 106 1008 92 1003 q 131 1015 117 1014 q 157 1018 144 1017 q 200 1019 179 1019 q 243 1018 221 1018 l 490 1018 q 535 1018 506 1018 q 599 1017 565 1018 q 663 1014 633 1017 q 708 1007 693 1011 q 767 995 729 1003 q 843 976 806 988 q 901 943 881 964 q 943 890 922 922 q 979 824 964 857 q 999 769 994 790 q 1002 717 1003 744 q 993 667 1001 690 q 978 633 988 649 q 958 601 969 617 q 948 588 953 594 q 939 574 943 581 q 935 567 938 571 q 932 560 932 563 q 932 552 931 557 q 933 544 933 547 q 935 535 935 540 q 936 528 935 531 q 943 517 939 522 q 950 508 947 513 q 972 481 961 494 q 992 453 983 468 m 924 124 q 951 172 939 139 q 971 242 964 204 q 978 313 978 281 q 969 361 978 346 q 944 416 961 390 q 906 467 928 442 q 898 477 903 472 q 890 488 893 482 q 888 497 889 492 q 888 507 888 503 q 886 519 885 515 q 888 526 886 522 q 892 532 890 529 q 902 548 897 540 q 913 563 907 556 q 932 593 924 578 q 946 624 940 608 q 956 675 954 649 q 954 728 957 701 q 929 785 950 749 q 883 860 908 822 q 836 917 857 897 q 780 943 821 932 q 691 960 739 954 q 602 969 643 967 q 546 972 561 972 l 283 972 q 224 973 253 972 q 164 971 194 974 q 142 969 154 971 q 119 964 129 968 l 104 953 q 96 946 97 950 q 89 933 92 942 q 80 906 82 919 q 78 876 78 892 q 76 806 76 846 q 76 735 76 767 l 76 106 q 79 76 78 90 q 86 47 81 61 q 92 32 89 36 l 103 22 q 108 18 106 21 q 114 13 111 15 q 144 3 128 6 q 175 0 161 1 l 564 0 q 613 1 579 0 q 683 7 646 3 q 754 18 721 11 q 803 36 788 25 q 868 72 835 50 q 924 124 901 93 m 446 624 q 442 631 443 626 q 438 636 440 635 q 428 657 432 646 q 426 679 425 668 q 429 686 428 682 q 432 694 431 690 q 435 702 433 697 q 438 710 436 707 q 444 714 439 711 q 453 722 449 717 q 464 728 458 726 q 474 729 468 729 q 483 731 479 729 q 513 731 499 733 q 540 725 526 729 q 549 723 544 724 q 556 719 553 722 q 563 713 560 718 q 572 701 567 708 q 578 690 575 696 q 583 676 582 683 q 582 669 583 671 q 582 658 582 664 q 579 647 582 651 q 574 641 578 644 q 568 635 571 638 q 561 625 565 629 q 553 621 558 622 q 543 617 547 619 q 503 608 525 610 q 464 615 481 607 q 454 620 460 618 q 446 624 449 622 m 590 346 q 595 339 593 343 q 599 331 597 335 l 604 321 l 604 308 q 603 299 603 304 q 603 290 604 294 q 597 276 601 285 q 588 264 592 268 q 575 257 583 260 q 544 244 561 247 q 508 240 528 242 q 497 240 503 240 q 483 242 490 240 q 474 244 478 243 q 465 247 469 246 l 454 251 q 451 256 453 253 q 446 260 449 258 q 440 266 444 263 q 435 274 436 269 q 433 280 433 276 q 432 285 432 283 q 428 294 431 289 q 426 304 426 299 q 429 319 426 311 q 430 328 429 324 q 432 336 431 333 q 442 349 433 340 q 447 355 444 351 q 450 360 449 358 q 458 364 453 363 q 464 367 463 365 q 486 372 475 371 q 508 374 497 374 q 538 372 522 374 q 567 363 554 369 q 579 356 572 361 q 590 346 586 350 z "},"C":{"ha":1018,"x_min":-64,"x_max":1063,"o":"m 878 510 l 713 510 q 651 515 682 510 q 596 543 619 521 q 580 559 588 550 q 564 575 572 568 q 553 586 560 582 l 539 590 q 531 592 536 590 q 524 593 526 594 q 520 590 522 593 q 517 585 518 586 q 511 580 515 583 q 506 574 507 576 q 506 563 504 569 q 507 551 507 556 q 510 540 507 546 q 514 526 513 533 q 528 497 521 511 q 544 467 536 482 q 551 458 547 461 q 557 449 554 454 q 561 444 560 447 q 564 440 563 442 q 571 439 567 439 q 576 439 575 439 q 584 436 579 438 q 592 436 589 435 q 600 438 596 436 q 607 442 604 440 q 628 451 618 446 q 650 458 639 456 q 679 465 664 464 q 708 467 694 465 q 772 467 740 468 q 835 467 804 467 q 876 466 854 467 q 917 458 899 465 q 953 433 940 450 q 979 397 965 415 q 1005 373 990 383 q 1033 350 1019 363 l 1047 338 q 1060 303 1058 322 q 1058 267 1061 285 q 1046 214 1056 240 q 1022 164 1036 188 q 993 122 1010 142 q 960 82 976 101 q 913 31 938 56 q 860 -14 889 6 q 808 -40 847 -26 q 716 -65 768 -53 q 612 -85 664 -76 q 520 -99 560 -94 q 468 -103 481 -104 q 413 -97 453 -101 q 324 -82 372 -92 q 235 -60 275 -72 q 179 -32 194 -47 q 143 -6 161 -19 q 110 25 125 8 q 75 69 92 46 q 42 114 58 92 q -3 175 17 144 q -49 289 -36 226 q -59 350 -56 310 q -63 431 -62 390 q -64 492 -64 471 q -61 551 -64 507 q -53 647 -58 594 q -37 744 -47 700 q -11 803 -26 788 q 37 865 8 835 q 96 922 65 896 q 165 979 128 951 q 233 1026 203 1007 q 304 1053 265 1042 q 374 1069 343 1064 q 435 1077 404 1075 q 496 1079 465 1079 q 542 1074 508 1079 q 620 1058 576 1068 q 707 1036 664 1049 q 784 1010 750 1024 q 831 985 818 997 q 876 944 856 967 q 919 899 897 921 q 954 865 936 881 q 988 831 972 849 q 1023 779 1007 807 q 1049 721 1039 751 q 1059 684 1056 703 q 1060 646 1063 665 q 1059 639 1058 643 q 1058 632 1060 635 q 1038 599 1053 614 q 1011 568 1024 583 q 988 540 1000 554 q 958 519 976 526 q 921 511 942 513 q 878 510 900 510 m 779 372 q 708 371 749 372 q 638 346 668 369 q 617 324 626 336 q 597 301 608 313 q 562 275 582 286 q 519 264 542 264 q 462 281 489 263 q 424 329 435 299 q 416 365 418 346 q 413 401 414 383 q 411 450 411 425 q 411 499 411 475 q 411 529 411 514 q 413 558 411 544 q 415 610 413 583 q 431 658 418 636 q 460 692 442 679 q 474 700 467 697 q 490 706 481 703 q 583 685 542 719 q 604 663 594 675 q 624 640 614 651 q 671 607 644 617 q 706 601 688 601 q 742 600 724 600 l 831 600 q 873 599 851 600 q 915 603 894 599 q 926 605 921 604 q 938 607 932 606 q 975 653 968 621 q 976 662 976 657 q 976 672 976 667 q 972 715 978 693 q 957 756 965 736 q 919 796 943 771 q 867 847 894 821 q 813 897 839 874 q 772 935 788 921 q 699 961 742 951 q 624 976 656 971 q 543 985 583 983 q 487 972 531 986 q 384 935 443 958 q 266 885 325 911 q 163 835 207 858 q 107 800 119 813 q 81 745 92 785 q 63 658 69 706 q 53 572 56 611 q 50 517 50 532 q 51 470 50 504 q 56 392 53 436 q 66 302 60 347 q 81 223 72 257 q 103 176 90 189 q 159 140 115 164 q 262 90 203 117 q 380 39 321 63 q 483 1 439 15 q 539 -12 526 -14 q 578 -10 558 -11 q 617 -6 599 -8 q 683 6 649 -1 q 749 26 718 14 q 802 60 769 39 q 867 105 835 81 q 921 150 900 129 q 943 187 933 168 q 961 225 953 206 q 976 279 971 249 q 969 333 982 310 q 966 341 968 336 q 961 347 964 346 q 940 362 953 357 q 915 368 928 367 q 891 372 904 371 q 864 372 878 372 l 779 372 m 499 414 l 507 397 q 509 394 508 396 q 511 390 510 392 q 517 390 513 389 q 522 392 521 392 q 529 392 525 392 q 535 393 533 392 q 537 397 538 394 q 538 400 536 399 q 540 410 539 404 q 542 419 542 415 q 540 425 542 422 q 539 429 539 428 q 536 439 538 433 q 532 447 535 444 q 526 453 531 450 q 519 458 522 456 q 515 462 518 458 q 511 465 513 465 q 508 461 510 465 q 506 457 506 457 q 501 450 504 454 q 499 443 499 446 q 497 431 497 438 q 499 414 497 424 z "},"D":{"ha":1028,"x_min":72,"x_max":1049,"o":"m 1019 756 q 1038 700 1032 740 q 1047 612 1044 660 q 1048 524 1049 564 q 1046 467 1047 483 q 1043 411 1046 446 q 1035 342 1040 376 q 1019 286 1031 307 q 995 230 1010 257 q 965 175 981 203 q 936 119 951 147 q 901 67 921 92 q 844 12 878 36 q 778 -29 810 -12 q 731 -51 765 -42 q 651 -65 696 -60 q 563 -74 607 -71 q 483 -79 518 -78 q 436 -81 449 -81 q 385 -81 421 -81 q 309 -81 350 -81 q 233 -81 268 -81 q 182 -79 197 -81 q 131 -71 156 -79 q 124 -68 128 -69 q 117 -65 119 -67 l 108 -56 q 103 -49 107 -53 q 97 -43 99 -46 q 97 -37 96 -40 q 97 -32 97 -33 q 97 -23 97 -29 q 97 -15 96 -17 q 102 -12 99 -14 q 107 -10 106 -11 q 115 -4 110 -7 q 122 0 119 -1 q 132 1 126 1 q 142 1 138 1 q 177 1 160 1 q 213 0 194 0 l 349 0 q 395 3 360 0 q 481 13 431 7 q 586 26 531 18 q 692 42 642 33 q 778 62 742 51 q 824 82 814 72 q 881 131 856 103 q 906 176 893 143 q 933 250 919 208 q 956 334 946 292 q 973 409 967 376 q 979 454 979 442 q 979 502 979 469 q 978 573 979 535 q 972 644 976 611 q 958 692 967 676 q 921 778 946 739 q 878 811 908 790 q 808 856 847 832 q 728 902 768 879 q 657 942 688 925 q 614 964 626 958 q 556 971 593 969 q 483 972 519 972 q 425 972 446 972 l 210 972 q 165 971 188 972 q 124 961 143 969 q 117 958 121 960 q 110 954 113 957 q 100 943 106 951 q 89 932 93 939 q 83 918 86 926 q 79 903 81 910 q 76 869 76 888 q 76 836 76 851 l 76 132 q 76 128 76 131 q 75 124 75 126 q 75 131 75 124 q 74 138 75 135 q 74 146 74 142 l 74 860 q 73 915 74 888 q 78 968 72 942 q 83 984 81 976 q 89 1000 85 992 q 92 1006 90 1003 q 94 1011 93 1010 q 101 1017 97 1014 q 108 1021 106 1019 l 121 1031 q 155 1039 136 1038 q 189 1040 174 1040 l 407 1040 q 465 1040 428 1040 q 538 1039 501 1040 q 596 1033 575 1038 q 650 1024 617 1031 q 716 1007 683 1017 q 769 985 749 997 q 831 958 800 972 q 888 925 861 944 q 934 872 908 904 q 983 808 960 840 q 1019 756 1007 776 m 440 292 q 438 298 439 294 q 435 303 436 301 q 429 320 432 313 q 425 338 426 328 q 424 385 424 361 q 424 436 424 410 l 424 592 q 425 623 424 607 q 431 654 426 639 l 435 669 q 440 674 438 672 q 444 678 443 676 q 451 685 447 681 q 458 692 456 690 q 465 693 461 693 q 469 694 468 693 q 484 697 476 696 q 499 697 492 699 q 551 687 526 696 q 594 657 576 678 q 623 583 619 626 q 628 508 626 540 q 627 454 628 482 q 624 399 626 426 q 618 361 622 381 q 603 326 614 342 q 552 285 585 297 q 488 275 519 272 q 477 275 482 275 q 468 276 472 275 l 450 286 q 445 289 449 288 q 440 292 442 290 m 493 546 q 492 498 492 522 q 492 450 492 474 q 492 424 492 438 q 494 399 493 411 q 496 391 496 396 q 497 383 496 386 q 504 374 500 379 q 510 365 508 369 q 514 358 513 360 q 521 357 517 357 q 526 357 525 357 q 535 354 531 356 q 544 353 540 353 q 551 356 549 353 q 563 360 557 358 q 574 364 568 361 q 604 404 593 379 q 615 431 611 417 q 619 458 618 444 q 622 506 622 482 q 614 551 621 529 q 599 578 608 567 q 574 599 589 590 q 567 602 571 600 q 560 606 564 604 q 553 607 557 607 q 546 607 549 607 q 535 608 540 607 q 524 606 531 608 q 513 599 519 603 q 503 590 506 594 q 500 579 500 585 q 495 563 497 571 q 493 546 493 556 z "},"E":{"ha":926,"x_min":15,"x_max":983,"o":"m 982 65 q 980 37 981 51 q 972 11 979 22 l 963 -1 q 958 -6 961 -3 q 953 -12 956 -10 q 940 -19 949 -17 q 906 -30 924 -28 q 869 -39 888 -32 q 856 -44 863 -40 q 842 -51 849 -49 q 816 -67 828 -58 q 789 -81 804 -75 q 751 -87 771 -86 q 711 -89 731 -89 l 275 -89 q 203 -90 244 -89 q 131 -89 163 -90 q 90 -84 111 -87 q 53 -67 69 -81 q 31 -35 39 -54 q 21 3 24 -15 q 16 56 17 24 q 16 122 15 89 q 17 175 17 154 l 17 767 q 17 822 17 794 q 21 875 17 849 q 33 936 24 903 q 64 988 42 969 q 97 1003 78 999 q 132 1010 115 1008 q 189 1017 160 1014 q 247 1019 218 1019 q 303 1019 260 1019 q 404 1019 346 1019 q 520 1019 463 1019 q 621 1019 578 1019 q 676 1019 664 1019 l 817 1019 q 869 1013 843 1018 q 914 989 894 1008 q 927 972 921 982 q 939 953 933 963 q 956 919 949 936 q 967 883 963 903 q 971 836 971 861 q 971 788 971 811 q 970 754 971 771 q 964 721 969 738 q 962 713 963 718 q 958 706 961 708 q 949 692 956 700 q 936 682 942 685 q 922 675 931 678 q 906 669 913 672 q 897 667 901 668 q 889 663 893 665 q 885 661 888 661 q 882 660 883 661 q 883 656 881 658 l 888 640 q 901 607 892 622 q 918 575 911 592 q 930 547 925 561 q 938 517 935 532 q 940 483 940 500 q 940 450 940 467 q 940 424 940 438 q 938 399 940 411 q 926 365 935 381 q 901 340 917 349 q 890 333 896 336 q 881 324 885 331 q 875 317 875 318 q 882 315 875 315 q 893 313 888 314 q 903 310 899 313 q 926 291 917 303 q 943 267 936 279 q 964 227 954 249 q 978 183 974 206 q 983 127 983 157 q 982 65 982 97 m 76 817 l 76 239 q 76 167 76 208 q 78 94 76 126 q 82 65 79 79 q 93 38 85 51 q 98 32 96 36 q 101 25 100 28 q 108 22 104 24 q 114 17 111 19 q 120 13 117 15 q 128 8 124 10 q 154 2 140 3 q 182 0 168 1 q 235 -1 203 -1 q 299 -1 267 -1 q 353 0 332 0 l 722 0 q 771 0 746 0 q 818 7 796 0 q 840 17 829 11 q 858 33 851 24 q 868 56 865 43 q 872 79 871 68 q 876 129 875 103 q 874 179 876 156 q 865 223 872 201 q 839 257 858 244 q 832 260 836 260 q 825 263 828 261 q 782 270 804 269 q 738 269 760 271 l 540 269 q 489 270 517 269 q 442 285 461 271 q 435 290 439 288 q 428 294 431 293 q 426 306 426 299 q 424 317 425 313 q 422 325 421 322 q 426 331 422 326 q 433 341 429 335 q 442 350 438 347 q 456 353 447 353 q 485 358 471 357 q 513 358 499 358 l 706 358 q 743 358 725 358 q 779 363 761 358 q 789 365 783 364 q 797 368 794 367 q 803 372 800 369 q 807 375 806 374 q 815 381 810 378 q 821 389 819 385 q 824 397 824 392 q 825 404 824 401 q 831 426 829 415 q 833 449 832 438 q 835 499 835 474 q 831 550 835 525 q 829 559 829 554 q 826 568 829 564 q 822 576 825 572 q 817 585 819 581 q 814 590 815 588 q 810 594 813 593 q 803 599 807 597 q 796 601 799 600 q 767 610 782 608 q 738 613 753 611 q 664 613 707 614 q 589 613 621 613 l 504 613 q 479 613 493 613 q 454 618 465 614 q 445 623 450 619 q 436 629 440 626 q 433 631 435 631 q 429 633 431 632 q 427 642 428 636 q 425 651 426 649 q 422 663 422 657 q 426 669 422 665 q 432 680 429 674 q 438 688 435 686 q 447 692 440 690 q 457 696 453 694 q 478 701 467 700 q 501 701 490 701 l 753 701 q 787 703 768 701 q 819 711 806 706 q 826 715 822 713 q 832 719 829 718 q 838 724 835 722 q 843 726 842 725 q 854 747 850 735 q 860 768 858 758 q 864 808 864 788 q 864 849 864 829 q 863 882 864 865 q 857 915 863 899 q 854 929 857 921 q 810 967 840 956 q 799 968 804 968 q 788 969 793 968 q 754 972 771 972 q 721 972 738 972 l 251 972 q 201 973 226 972 q 151 969 175 974 q 128 965 140 968 q 106 953 115 961 q 92 936 97 947 q 83 915 86 925 q 77 868 78 893 q 76 817 76 843 z "},"F":{"ha":897,"x_min":-3,"x_max":901,"o":"m 900 893 q 899 849 900 871 q 893 807 897 828 q 879 747 888 776 q 868 685 871 717 q 869 648 868 667 q 871 610 869 629 q 873 558 872 589 q 873 497 874 528 q 869 446 872 467 q 862 402 868 424 q 849 357 856 381 q 841 321 844 339 q 831 286 838 303 q 828 277 829 282 q 824 269 826 272 q 780 239 807 246 q 728 231 753 232 q 656 229 697 229 q 583 229 615 229 q 553 228 568 229 q 524 225 539 228 q 515 224 519 224 q 508 222 511 224 q 503 219 506 221 q 499 215 501 217 q 490 210 494 213 q 483 204 486 207 q 476 190 479 197 q 467 165 469 178 q 461 136 464 151 q 451 87 457 111 q 438 39 444 63 q 428 3 433 21 q 413 -31 424 -15 q 369 -59 396 -51 q 314 -68 342 -67 q 265 -69 286 -69 l 167 -69 q 131 -67 150 -68 q 97 -57 113 -65 q 72 -35 82 -49 q 50 -7 61 -21 q 25 26 39 8 q 4 61 11 43 q 1 76 3 68 q -1 90 0 85 q -3 133 -3 111 q -3 176 -3 154 l -3 876 q 6 928 -1 903 q 35 971 13 954 q 61 984 46 979 q 89 996 76 989 q 125 1023 108 1007 q 163 1047 142 1039 q 199 1056 181 1054 q 236 1057 218 1057 l 647 1057 q 722 1058 679 1057 q 796 1057 765 1058 q 828 1053 813 1056 q 858 1044 843 1051 q 866 1042 861 1043 q 872 1038 871 1040 q 876 1033 875 1036 q 879 1029 878 1031 q 885 1022 882 1025 q 890 1014 889 1018 q 893 1006 893 1011 q 894 999 893 1001 q 901 947 901 974 q 900 893 900 921 m 851 822 q 849 894 851 854 q 817 956 847 933 q 793 966 807 963 q 768 971 779 969 q 710 973 740 974 q 653 972 681 972 l 271 972 q 216 973 244 972 q 160 971 188 974 q 135 966 149 969 q 111 956 122 963 q 108 952 110 954 q 103 947 106 950 q 97 941 101 944 q 90 935 93 938 q 83 913 85 925 q 79 889 81 900 q 76 828 76 858 q 76 767 76 799 l 76 286 q 76 222 76 256 q 76 156 75 188 q 78 138 78 146 q 82 119 79 129 q 85 106 82 111 q 101 96 92 100 q 107 92 106 92 q 119 93 113 90 q 131 97 126 96 q 144 105 138 100 q 156 114 150 110 l 208 160 q 255 201 221 172 q 333 268 289 231 q 419 343 376 306 q 497 410 463 381 q 543 451 531 439 l 596 497 q 632 529 615 513 q 640 538 635 533 q 646 547 644 543 q 646 555 647 550 q 643 563 644 560 q 640 572 643 569 q 635 575 639 575 q 629 576 632 575 q 609 581 619 581 q 588 583 599 582 q 537 583 563 585 q 485 585 511 582 q 476 586 481 586 q 467 588 471 586 q 458 592 463 589 q 449 596 453 594 q 444 599 447 597 q 438 601 440 600 q 432 610 435 604 q 426 621 429 617 q 424 626 424 624 q 424 637 422 631 q 426 647 426 643 q 428 653 428 650 q 429 658 428 657 q 433 663 431 661 q 438 665 436 664 q 445 673 442 668 q 453 679 449 678 q 483 686 467 683 q 524 688 503 689 q 564 686 544 686 l 726 686 q 760 687 743 686 q 793 692 776 688 q 800 693 796 693 q 807 694 804 693 l 819 704 q 826 709 822 707 q 832 714 831 711 q 836 721 835 717 q 839 728 838 725 q 851 772 850 749 q 851 822 851 796 m 824 439 q 824 466 824 453 q 822 493 825 479 q 820 509 821 500 q 817 524 819 518 q 812 532 815 528 q 806 539 808 536 q 803 544 804 542 q 799 549 801 547 q 794 550 797 550 q 788 550 790 550 q 778 553 783 551 q 769 553 774 554 q 756 548 764 551 q 742 542 747 544 q 713 519 726 532 q 685 494 699 507 q 635 453 660 474 q 586 410 611 432 q 560 388 574 399 q 535 364 546 376 q 524 353 529 358 q 515 340 518 347 q 513 334 514 338 q 508 326 511 331 q 506 319 504 322 q 508 317 506 318 q 511 315 510 317 q 518 308 514 313 q 525 303 522 304 q 531 301 528 301 q 536 301 535 301 q 588 299 563 299 q 639 299 614 299 q 693 299 667 299 q 746 301 719 299 q 783 310 765 303 q 810 333 800 317 q 814 341 813 336 q 817 350 815 346 q 824 392 824 369 q 824 439 824 415 m 417 156 q 415 176 415 167 q 410 196 414 186 q 408 203 408 199 q 406 210 408 208 q 399 214 404 213 q 392 217 394 215 q 388 219 390 217 q 382 221 385 221 q 377 219 381 221 q 371 215 374 217 q 350 203 360 210 q 331 188 340 196 q 277 141 304 165 q 222 93 250 117 q 194 72 210 83 q 172 44 179 60 q 167 37 171 43 q 165 28 164 31 q 168 24 165 26 q 172 19 171 21 q 177 14 175 18 q 182 8 179 10 q 189 6 185 7 q 196 4 193 6 q 249 -1 222 -1 q 303 0 276 -1 q 331 2 317 1 q 358 7 344 3 q 385 19 375 10 q 394 31 389 22 q 401 36 397 33 q 406 42 404 39 q 409 51 408 46 q 411 60 410 56 q 417 106 418 82 q 417 156 417 131 z "},"G":{"ha":1046,"x_min":-14,"x_max":1036,"o":"m 244 26 q 188 52 215 38 q 136 85 161 67 q 91 140 115 106 q 47 208 67 174 q 15 263 26 242 q 1 328 6 294 q -6 393 -3 363 q -10 451 -8 414 q -13 526 -12 489 q -14 583 -14 563 q -10 643 -14 599 q 1 740 -7 688 q 20 836 8 792 q 47 896 32 881 q 69 925 58 911 q 94 951 81 939 q 126 978 110 965 q 160 1001 142 992 q 204 1024 172 1014 q 278 1044 236 1035 q 363 1059 321 1053 q 436 1069 404 1065 q 481 1075 468 1074 q 533 1078 496 1078 q 615 1076 571 1078 q 696 1069 658 1074 q 749 1054 733 1064 q 801 1034 769 1046 q 865 1008 833 1022 q 917 975 896 994 q 960 923 938 954 q 1001 860 983 892 q 1025 808 1019 829 q 1027 788 1026 799 q 1025 767 1028 776 l 1019 753 q 1017 745 1018 751 q 1013 739 1015 739 q 1007 739 1011 738 q 1001 740 1003 740 q 994 742 999 742 q 986 744 989 743 q 983 749 985 746 q 981 754 982 753 l 968 778 q 924 826 951 799 q 869 878 897 853 q 819 919 840 904 q 753 948 789 936 q 686 968 718 960 q 626 978 656 975 q 565 983 596 982 q 508 975 553 986 q 404 944 464 964 q 284 902 344 925 q 179 859 224 879 q 122 826 135 839 q 99 780 110 814 q 78 703 88 746 q 63 616 69 660 q 53 538 57 572 q 50 492 50 504 q 50 429 50 471 q 53 346 50 388 q 64 283 57 304 q 75 242 68 263 q 90 201 82 221 q 133 151 106 181 q 190 92 160 121 q 240 46 219 64 q 317 15 275 28 l 336 8 q 343 6 343 6 q 336 6 343 6 q 328 6 332 6 q 321 7 325 7 q 283 15 303 10 q 244 26 264 21 m 1035 490 q 1030 414 1033 460 q 1014 336 1026 368 q 999 303 1007 317 q 996 297 999 301 q 993 293 993 293 q 993 296 993 293 l 993 311 q 994 341 993 326 q 996 369 996 356 q 997 431 997 400 q 997 492 997 461 q 994 520 996 507 q 986 546 993 533 q 983 553 985 549 q 979 560 982 557 q 969 567 975 564 q 962 574 965 569 q 954 579 958 578 q 945 582 950 582 q 936 583 940 582 q 907 586 922 586 q 876 586 892 586 l 722 586 q 665 586 693 586 q 607 583 636 586 q 589 578 599 582 q 579 574 585 576 q 571 569 574 572 q 566 564 568 568 q 561 557 564 560 l 551 544 q 549 537 550 542 q 546 528 547 532 q 540 490 540 510 q 542 450 540 469 q 545 424 543 438 q 553 400 547 411 q 576 373 561 383 q 603 349 590 363 q 610 342 606 346 q 615 335 614 338 q 616 326 617 332 q 615 318 615 321 q 616 312 615 315 q 615 306 617 308 q 611 300 614 303 q 606 294 608 297 q 602 288 604 292 q 597 282 600 285 q 576 272 588 275 q 553 265 564 268 q 488 271 522 258 q 435 313 454 283 q 424 339 428 324 q 417 368 419 354 q 413 410 413 389 q 411 453 413 431 q 411 512 411 482 q 413 571 411 542 q 414 596 413 583 q 421 618 415 608 q 424 624 424 621 q 426 629 425 628 q 428 633 426 633 q 432 632 431 633 q 435 629 433 631 q 441 626 438 628 q 446 622 444 624 q 447 619 447 621 q 446 614 446 617 q 448 603 447 608 q 449 592 449 597 q 451 515 451 561 q 457 436 450 468 q 461 426 458 431 q 465 415 464 421 l 469 404 q 475 401 472 403 q 479 397 478 400 q 485 394 482 396 q 489 392 488 393 q 493 389 492 389 q 493 391 494 390 q 492 393 492 392 l 490 407 q 485 440 488 424 q 481 472 483 456 q 478 511 479 492 q 478 550 478 531 q 478 586 478 567 q 483 622 478 606 q 497 650 488 638 q 518 672 507 663 q 531 683 522 676 q 544 690 539 689 q 553 691 547 692 q 563 692 558 690 q 569 692 565 692 q 574 692 572 693 q 588 687 581 690 q 601 681 596 683 q 628 667 615 675 q 656 654 642 660 q 703 648 679 649 q 751 647 728 647 l 885 647 q 924 649 904 647 q 963 651 943 650 q 972 653 967 653 q 982 653 976 654 q 991 651 986 653 q 1000 647 996 649 q 1006 646 1003 646 q 1011 643 1010 646 q 1015 639 1014 642 q 1018 633 1017 636 q 1024 627 1021 631 q 1028 619 1026 624 q 1031 611 1031 617 q 1032 601 1031 606 q 1035 547 1036 575 q 1035 490 1035 519 z "},"H":{"ha":1072,"x_min":46,"x_max":1103,"o":"m 329 -65 q 261 -67 299 -68 q 192 -67 224 -67 q 151 -67 172 -67 q 111 -62 131 -67 q 101 -60 107 -61 q 92 -58 96 -60 q 60 -26 69 -47 q 49 18 50 -4 q 47 58 47 38 q 46 97 47 78 l 46 739 q 46 793 46 760 q 46 859 46 826 q 46 913 46 892 q 46 941 46 926 q 50 968 46 956 q 53 975 51 971 q 57 982 56 979 q 61 989 60 985 q 64 994 63 993 q 70 1000 67 997 q 76 1004 74 1003 q 83 1009 79 1007 q 89 1013 86 1011 q 119 1021 103 1019 q 151 1022 136 1022 l 285 1022 q 335 1021 308 1022 q 383 1013 361 1019 q 423 992 407 1006 q 456 961 439 978 q 479 942 467 951 q 501 921 492 932 q 518 897 511 910 q 526 868 525 883 q 531 828 531 849 q 531 788 531 807 q 531 765 531 776 q 536 743 532 753 q 541 732 539 739 q 546 722 543 725 q 553 717 549 719 q 560 714 557 715 q 565 710 561 713 q 569 707 568 707 q 583 711 575 707 q 591 713 586 713 q 597 715 596 714 q 602 722 600 718 q 606 729 604 726 q 610 735 608 732 q 614 743 613 739 q 617 763 617 751 q 618 783 618 774 q 617 860 618 815 q 619 936 617 906 q 623 959 621 947 q 631 981 625 971 q 650 1002 638 993 q 676 1017 663 1011 q 699 1020 688 1019 q 721 1021 710 1021 q 760 1022 740 1022 q 799 1022 779 1022 q 849 1022 824 1022 q 899 1021 874 1022 q 935 1016 917 1019 q 969 1006 953 1013 q 1008 981 990 996 q 1040 950 1025 965 q 1063 930 1051 940 q 1083 907 1075 919 q 1098 871 1094 890 q 1103 832 1101 851 l 1103 88 q 1102 54 1103 71 q 1099 21 1101 38 q 1097 13 1097 17 q 1094 6 1097 8 q 1088 -8 1093 0 q 1078 -21 1082 -17 q 1065 -28 1074 -25 q 1028 -41 1047 -37 q 989 -47 1008 -44 q 947 -56 968 -51 q 904 -64 926 -61 q 839 -67 874 -68 q 772 -67 804 -67 q 728 -67 750 -67 q 686 -62 707 -67 q 676 -60 682 -61 q 667 -57 671 -58 q 626 -17 638 -44 q 622 6 622 -6 q 619 28 621 18 q 619 103 618 60 q 617 178 619 147 q 616 201 617 189 q 611 224 615 214 q 607 230 610 226 q 601 235 604 233 q 593 247 599 243 q 586 250 592 250 q 578 250 581 250 q 567 253 572 253 q 563 249 565 251 q 557 246 560 247 q 551 242 554 244 q 544 236 547 239 q 542 230 543 235 q 539 222 540 225 q 533 201 535 213 q 531 179 532 190 q 531 113 529 149 q 529 46 532 78 q 525 17 528 32 q 513 -10 522 3 q 509 -15 511 -11 q 504 -21 507 -18 q 498 -25 503 -24 q 490 -29 493 -26 q 449 -42 471 -39 q 406 -50 428 -46 q 368 -58 388 -54 q 329 -65 349 -62 m 842 0 q 890 0 865 0 q 938 6 915 0 q 947 9 942 8 q 956 11 951 10 q 962 17 958 14 q 967 22 965 21 q 979 33 976 28 q 983 40 982 36 q 985 47 983 44 q 993 76 992 61 q 996 106 994 90 l 996 739 q 997 808 996 771 q 994 875 997 844 q 992 905 994 890 q 982 933 989 919 q 975 946 979 942 q 963 954 971 951 l 950 964 q 942 966 947 965 q 933 968 938 967 q 891 972 913 972 q 849 972 869 972 q 789 973 818 972 q 729 971 760 974 q 707 968 719 969 q 686 961 694 967 q 678 956 682 960 q 671 949 674 951 q 667 945 669 947 q 663 940 664 943 q 660 933 661 938 q 657 926 658 929 q 651 899 653 913 q 649 872 650 886 l 649 739 q 647 714 649 726 q 643 690 646 701 q 642 683 642 688 q 639 675 642 678 q 634 669 638 672 q 628 664 631 667 q 617 651 622 654 q 603 649 611 649 q 558 643 585 643 q 524 643 542 643 q 489 644 506 643 q 478 646 483 646 q 469 647 474 646 q 461 651 465 649 q 454 656 457 654 q 449 658 453 657 q 444 661 446 660 q 436 675 439 667 q 432 683 435 679 q 428 690 429 686 q 424 714 425 701 q 424 738 424 726 q 424 810 424 769 q 422 882 425 851 q 408 939 422 913 q 405 946 407 942 q 400 951 403 950 q 394 956 399 954 q 386 960 389 958 q 359 969 374 967 q 329 972 344 971 l 210 972 q 173 972 192 972 q 136 969 154 972 q 122 965 131 968 q 108 960 114 963 q 98 950 104 957 q 89 938 92 943 q 85 929 86 935 q 82 921 85 924 q 75 865 74 894 q 76 810 76 836 l 76 225 q 76 159 76 194 q 78 92 76 124 q 81 63 78 76 q 90 35 83 49 q 94 28 93 32 q 99 21 96 24 q 103 18 100 19 q 108 15 107 17 q 115 11 111 14 q 124 6 119 8 q 132 4 128 4 q 140 3 136 4 q 181 0 160 0 q 222 0 201 0 q 286 -1 254 0 q 349 3 318 -1 q 384 13 367 4 q 411 38 401 21 q 414 44 414 40 q 415 49 414 47 q 422 78 421 64 q 424 106 424 92 q 424 183 424 138 q 425 258 424 228 q 428 280 426 268 q 433 301 429 292 q 440 308 436 304 q 446 315 443 311 l 453 324 q 460 326 456 325 q 467 329 464 328 q 489 335 478 333 q 511 338 500 336 q 543 338 526 338 q 574 336 560 339 q 587 335 581 335 q 599 332 593 335 q 607 328 603 331 q 615 324 611 326 q 621 322 618 322 q 625 318 624 321 q 630 312 628 317 q 633 304 632 307 q 642 292 640 299 q 647 270 646 282 q 649 247 647 258 q 649 176 650 217 q 649 103 647 135 q 652 72 650 88 q 661 42 654 57 q 665 35 664 39 q 668 28 667 31 q 698 8 679 14 q 735 1 717 3 q 786 0 760 0 q 842 0 813 0 z "},"I":{"ha":511,"x_min":31,"x_max":503,"o":"m 501 831 l 501 171 q 500 117 501 144 q 490 64 499 90 q 478 37 486 50 q 458 14 469 24 q 424 -1 443 3 q 385 -7 404 -6 q 342 -8 364 -8 q 300 -8 321 -8 q 261 -9 281 -8 q 222 -8 242 -10 l 204 -4 q 201 -3 201 -1 q 203 -2 201 -1 q 204 -3 204 -3 q 215 -1 208 -1 q 240 0 228 0 q 264 0 251 0 l 297 0 q 344 2 318 0 q 392 13 369 4 q 425 42 414 21 q 428 49 428 44 q 429 56 428 53 q 433 85 432 71 q 435 114 435 100 l 435 736 q 435 811 435 768 q 433 885 436 854 q 432 907 433 896 q 426 928 431 918 q 415 943 422 936 q 408 951 413 950 q 402 956 407 954 q 394 958 397 957 q 365 969 381 967 q 333 972 350 971 q 276 973 304 974 q 218 972 247 972 q 181 972 200 972 q 144 969 163 972 q 131 966 139 968 q 117 961 124 964 q 111 957 114 960 q 106 951 108 954 q 101 948 104 950 q 94 943 97 946 q 92 936 93 940 q 88 929 90 932 q 77 883 78 907 q 76 836 76 860 l 76 311 q 76 251 76 290 q 77 174 76 213 q 76 114 78 135 q 76 92 76 103 q 71 71 75 82 q 68 66 69 71 q 67 61 67 61 q 64 64 64 61 q 59 68 61 67 q 54 71 57 69 l 44 79 q 43 87 43 82 q 42 94 43 92 q 39 116 40 106 q 35 136 38 126 q 31 217 31 168 q 32 296 32 265 l 32 829 q 31 908 32 861 q 32 985 31 954 q 35 1014 33 1000 q 46 1042 38 1028 q 53 1054 49 1050 q 58 1058 56 1057 q 63 1060 61 1058 q 93 1072 74 1068 q 133 1076 113 1076 q 175 1076 154 1076 l 275 1076 q 310 1076 292 1076 q 344 1071 329 1076 q 383 1050 367 1065 q 419 1024 400 1035 q 447 1013 432 1017 q 474 999 463 1008 q 485 987 479 994 q 492 974 490 979 q 499 951 497 964 q 500 926 500 938 q 502 881 503 904 q 501 831 501 857 z "},"J":{"ha":975,"x_min":-65,"x_max":964,"o":"m 963 900 l 963 564 q 963 517 963 549 q 962 449 963 486 q 958 381 961 413 q 947 335 954 350 q 919 265 938 304 q 883 194 900 226 q 864 152 874 174 q 842 111 854 131 q 777 46 817 81 q 706 -10 738 11 q 653 -32 685 -22 q 591 -49 622 -42 q 539 -60 560 -56 q 494 -65 526 -64 q 422 -65 463 -67 q 339 -58 381 -64 q 265 -44 297 -53 q 221 -24 233 -36 q 169 8 200 -10 q 108 46 139 25 q 57 88 78 67 q -6 167 26 119 q -53 246 -37 215 q -64 301 -64 275 q -65 310 -64 306 q -64 317 -65 314 q -60 324 -62 319 q -57 331 -58 328 q -53 338 -54 333 q -50 344 -51 343 q -44 350 -47 347 q -37 354 -40 353 q -4 370 -22 365 q 31 383 14 375 q 67 409 50 394 q 107 431 85 424 q 149 438 126 438 q 192 439 171 439 q 257 440 224 439 q 321 439 290 440 q 358 435 340 438 q 394 426 376 433 q 407 422 401 425 q 418 417 413 419 q 424 413 421 415 q 429 411 426 411 q 439 412 433 410 q 449 414 444 414 q 453 415 451 415 q 457 415 456 414 q 458 420 458 418 q 458 424 457 422 l 463 444 q 463 475 464 460 q 463 504 463 490 q 463 540 463 522 q 460 575 463 557 q 458 584 458 579 q 457 593 458 589 l 447 610 q 444 615 446 613 q 440 619 443 618 q 432 624 438 622 q 424 628 426 626 q 372 638 401 639 q 318 638 343 638 l 200 638 q 158 640 179 639 q 117 647 136 642 q 77 669 96 654 q 44 699 58 683 q 29 722 35 710 q 18 749 24 735 q 17 760 17 754 q 15 771 17 765 q 13 808 13 790 q 13 844 13 826 q 13 893 13 868 q 21 940 13 918 q 25 949 24 943 q 29 957 26 954 q 35 963 32 960 q 42 967 39 965 q 47 972 44 969 q 53 976 50 975 q 81 986 67 983 q 110 994 96 989 l 126 1004 q 156 1026 142 1014 q 186 1043 169 1038 q 222 1052 203 1050 q 258 1054 240 1054 l 846 1054 q 878 1053 863 1054 q 910 1047 894 1051 q 917 1045 913 1046 q 924 1042 921 1044 q 930 1038 926 1040 q 935 1032 933 1035 q 947 1022 943 1026 q 954 1004 953 1013 q 963 955 964 982 q 963 900 963 928 m 906 344 q 907 398 907 365 q 907 463 907 431 q 907 517 907 496 l 907 864 q 906 891 907 878 q 899 918 904 904 q 897 925 897 921 q 894 932 897 929 q 867 959 885 950 q 831 969 850 968 q 776 972 804 972 q 719 972 747 972 l 206 972 q 178 969 192 971 q 150 964 164 968 q 143 963 147 963 q 136 960 139 963 q 111 933 119 950 q 100 896 103 915 q 97 834 96 865 q 99 771 97 803 q 115 722 101 744 q 120 717 118 721 q 124 711 122 714 q 131 708 126 710 q 139 703 136 706 q 178 692 157 693 q 219 690 200 690 l 422 690 q 454 690 438 690 q 486 688 471 690 q 495 688 490 688 q 504 685 500 688 q 510 681 507 683 q 517 678 514 679 q 524 674 519 676 q 529 669 528 672 q 535 658 532 667 q 540 652 538 656 q 543 644 542 649 q 546 624 546 635 q 547 604 546 614 l 547 479 q 548 415 547 449 q 543 349 549 381 q 538 328 542 339 q 529 307 535 318 q 510 283 521 293 q 465 267 492 267 q 418 281 439 267 q 394 301 404 289 q 374 324 385 314 q 319 351 350 343 q 285 356 303 356 q 251 357 268 357 l 138 357 q 102 356 119 357 q 68 349 85 356 q 61 347 65 347 q 54 344 57 347 q 48 340 51 343 q 42 333 44 336 q 38 329 40 332 q 33 324 35 326 q 31 319 32 322 q 29 313 31 315 q 26 304 28 308 q 24 297 25 300 q 24 287 24 292 q 25 278 24 282 q 32 235 25 256 q 49 194 39 214 q 98 153 64 179 q 172 97 132 126 q 247 44 213 68 q 296 8 281 19 q 410 -11 353 -7 q 466 -3 422 -14 q 568 28 510 8 q 684 72 626 49 q 785 115 742 94 q 842 149 829 136 q 874 203 863 176 q 896 272 889 235 q 906 344 903 310 z "},"K":{"ha":993,"x_min":-31,"x_max":1039,"o":"m 919 -42 q 860 -43 899 -43 q 783 -43 821 -43 q 724 -43 744 -43 q 659 -43 693 -43 q 594 -33 625 -43 q 565 -19 579 -28 q 538 0 551 -10 q 504 21 525 13 q 499 24 503 22 q 493 25 496 25 q 481 22 489 25 q 473 21 478 21 q 465 19 468 21 q 458 15 461 18 q 450 8 454 11 q 422 -13 436 -1 q 392 -32 408 -25 q 346 -42 369 -42 q 300 -43 322 -43 q 222 -43 269 -43 q 143 -42 175 -43 q 102 -38 124 -40 q 64 -26 81 -36 q 40 -7 50 -19 q 27 9 33 0 q 14 26 21 18 q -8 59 3 42 q -25 96 -19 76 q -29 131 -29 113 q -29 167 -29 149 l -29 822 q -30 878 -29 850 q -28 933 -31 907 q -24 958 -26 944 q -15 983 -21 972 q 7 1002 -7 994 q 35 1013 21 1010 q 83 1017 58 1018 q 131 1015 107 1015 q 202 1016 163 1015 q 272 1011 242 1017 q 334 997 304 1006 q 394 985 364 988 q 426 986 410 985 q 457 990 443 988 q 501 1003 479 996 q 544 1014 522 1011 q 608 1016 576 1017 q 671 1015 640 1015 q 742 1016 703 1015 q 811 1013 781 1017 q 852 1006 832 1011 q 892 994 872 1000 q 934 987 913 989 q 975 978 956 985 q 985 975 979 976 q 993 971 990 974 q 1000 963 997 969 q 1006 956 1003 960 q 1011 949 1010 951 q 1012 941 1013 946 q 1011 933 1011 936 q 1003 895 1013 914 q 985 860 994 876 l 972 839 q 941 794 957 824 q 908 732 925 765 q 876 669 892 699 q 844 625 860 640 q 812 567 828 599 q 801 503 796 535 q 809 480 804 492 q 819 457 814 468 q 842 415 831 435 q 867 374 854 394 q 900 321 883 353 q 934 257 917 289 q 968 204 951 225 q 994 160 981 182 q 1019 114 1008 138 q 1030 93 1025 104 q 1036 71 1035 82 q 1039 57 1039 63 q 1034 34 1039 44 q 1022 14 1029 24 q 919 -42 986 -35 m 906 182 q 864 245 885 203 q 822 329 843 288 q 781 392 801 371 q 748 451 765 419 q 732 513 731 482 q 751 572 733 543 q 783 626 769 600 q 824 688 804 647 q 865 769 844 728 q 906 831 885 810 q 929 871 917 850 q 944 914 942 892 q 946 922 944 917 q 946 929 947 926 q 944 937 946 932 q 939 944 942 942 l 935 956 l 924 961 q 915 965 919 963 q 908 968 911 967 q 897 970 903 971 q 886 971 892 969 q 858 973 872 974 q 831 972 844 972 l 746 972 q 703 973 724 972 q 660 971 682 974 q 637 968 649 969 q 614 963 625 967 q 573 932 589 953 q 544 888 557 911 l 488 788 q 472 758 481 774 q 453 731 464 742 q 447 724 451 729 q 440 718 443 719 q 431 724 436 718 q 421 728 425 724 q 419 734 419 731 q 419 739 419 738 q 417 753 418 746 q 417 765 417 760 q 417 820 417 793 q 415 874 417 847 q 406 925 415 901 q 403 932 404 928 q 400 939 403 936 l 390 947 q 384 954 388 950 q 376 960 381 958 q 353 967 367 965 q 329 971 340 969 q 288 973 308 974 q 244 972 267 972 q 202 973 224 972 q 160 971 181 974 q 123 963 142 969 q 93 940 104 957 q 81 907 83 926 q 76 871 78 888 l 76 219 q 75 148 76 189 q 79 75 74 107 q 90 38 82 56 q 117 10 99 19 l 132 6 q 159 1 146 3 q 186 0 172 0 q 260 -1 218 0 q 333 1 303 -1 q 372 10 353 4 q 401 32 390 15 q 404 38 404 35 q 406 43 404 42 q 414 71 413 57 q 417 99 415 85 q 416 162 417 131 q 417 224 415 193 q 421 258 417 242 q 422 265 422 261 q 424 271 422 269 q 431 272 426 272 q 436 271 435 271 l 449 272 q 455 265 451 271 q 460 257 458 260 q 477 229 469 243 q 492 200 485 215 l 551 94 q 588 41 567 67 q 640 7 610 15 q 689 0 664 0 q 736 0 714 0 q 809 -1 768 0 q 881 0 850 -1 q 909 1 894 0 q 936 7 924 1 q 949 15 943 10 q 956 20 951 18 q 961 24 960 22 q 964 30 964 26 q 965 35 964 33 q 969 44 967 39 q 971 53 971 49 q 969 64 971 58 q 964 75 967 69 q 955 98 961 86 q 942 121 949 110 q 925 151 933 136 q 906 182 917 165 z "},"L":{"ha":869,"x_min":21,"x_max":950,"o":"m 949 201 l 949 197 q 948 149 949 174 q 944 99 947 124 q 941 75 943 88 q 933 51 939 63 q 903 17 922 31 q 869 -11 885 4 q 840 -44 853 -26 q 804 -72 826 -62 q 781 -78 794 -76 q 757 -79 768 -79 q 712 -81 735 -81 q 665 -81 689 -81 l 190 -81 q 158 -79 175 -81 q 125 -72 140 -78 l 110 -64 q 106 -60 108 -61 q 100 -57 103 -58 q 79 -19 83 -42 q 69 25 75 4 q 54 70 64 49 q 36 114 44 92 q 25 167 28 140 q 22 219 22 193 q 22 304 22 246 q 22 438 22 363 q 22 592 22 514 q 22 733 22 669 l 22 904 q 22 954 22 928 q 25 1004 21 981 q 28 1019 26 1011 q 33 1032 31 1026 q 83 1071 50 1064 q 146 1078 115 1078 l 242 1078 q 280 1077 261 1078 q 317 1072 299 1076 q 360 1060 340 1068 q 403 1044 381 1051 q 440 1036 422 1039 q 475 1026 458 1033 q 483 1024 479 1025 q 489 1021 488 1022 q 495 1016 492 1019 q 500 1010 499 1013 q 506 1004 503 1007 q 511 999 510 1001 q 521 976 518 989 q 525 953 524 964 q 526 910 526 931 q 526 867 526 889 l 526 564 q 526 509 526 538 q 529 453 525 481 q 531 444 531 449 q 533 435 532 439 q 538 426 535 431 q 543 419 542 422 l 549 410 q 554 407 551 408 q 558 404 557 406 q 567 400 563 403 q 575 396 571 397 q 584 394 579 394 q 593 393 589 393 q 643 390 618 389 q 693 390 668 392 q 723 388 708 389 q 751 383 738 386 q 794 369 774 378 q 835 353 814 360 q 872 346 854 349 q 908 335 890 343 q 915 332 911 333 q 919 329 918 331 q 926 322 922 326 q 932 314 929 317 q 935 310 933 313 q 939 306 938 308 q 942 296 942 301 q 943 286 942 290 q 949 244 950 267 q 949 201 949 222 m 851 131 l 851 135 q 851 176 851 154 q 846 219 851 199 q 835 247 843 233 q 814 268 826 261 q 781 281 800 278 q 747 283 763 283 q 645 285 696 286 q 543 285 594 283 q 510 286 526 285 q 478 293 494 288 q 471 296 475 294 q 464 299 467 297 q 458 303 461 300 q 453 308 456 307 q 448 314 451 311 q 442 319 444 317 l 438 331 q 433 349 435 340 q 431 367 432 357 q 429 413 429 390 q 429 458 429 436 l 429 792 q 429 842 429 817 q 426 893 429 868 q 422 917 425 904 q 413 939 419 929 q 380 963 400 957 q 338 971 360 969 q 307 973 324 974 q 275 972 290 972 l 235 972 q 188 972 211 972 q 142 968 165 972 q 119 962 132 967 q 100 949 107 957 q 89 932 94 943 q 82 922 85 928 q 81 913 81 918 q 79 904 81 908 q 77 876 78 890 q 76 847 76 863 l 76 225 q 76 153 76 190 q 78 81 75 117 q 90 42 81 61 q 118 13 99 24 q 125 10 121 11 q 133 7 129 10 q 158 3 146 4 q 185 0 171 1 l 733 0 q 767 1 749 0 q 800 8 785 3 q 813 15 806 11 q 825 22 819 18 q 830 28 828 25 q 833 33 832 32 q 850 80 849 54 q 851 131 851 106 z "},"M":{"ha":1189,"x_min":-26,"x_max":1160,"o":"m 1158 883 l 1158 228 q 1158 188 1158 208 q 1154 147 1157 167 q 1140 106 1151 124 q 1136 98 1139 104 q 1132 92 1133 92 q 1129 94 1132 92 q 1122 101 1126 97 q 1115 107 1117 104 q 1114 115 1114 110 q 1114 122 1114 119 q 1113 140 1113 132 q 1113 158 1113 149 l 1113 740 q 1113 817 1113 772 q 1111 892 1114 861 q 1110 915 1111 903 q 1103 936 1108 926 q 1097 943 1101 939 q 1090 950 1093 947 q 1083 958 1088 957 q 1075 963 1081 961 q 1067 965 1069 964 q 1023 972 1046 972 q 978 972 1000 972 l 896 972 q 872 970 885 971 q 847 967 858 969 q 803 938 821 958 q 771 893 786 917 l 700 776 q 678 740 689 758 q 656 701 667 721 q 643 681 650 692 q 629 661 636 671 l 617 646 q 615 643 615 644 q 613 640 614 642 q 603 639 610 639 q 593 639 597 639 l 582 638 q 578 642 581 639 q 575 646 576 644 q 564 658 569 653 q 553 671 558 664 q 524 719 538 694 q 494 768 510 744 q 458 827 476 797 q 422 886 440 857 q 392 930 408 908 q 353 961 376 951 q 328 968 342 967 q 304 971 315 969 q 261 973 282 974 q 218 972 240 972 q 176 973 197 972 q 133 968 154 974 l 117 964 q 103 956 111 961 q 92 944 94 950 l 88 935 q 78 900 79 917 q 75 826 74 869 q 76 751 76 783 l 76 100 q 79 72 78 86 q 86 44 81 58 q 92 29 89 33 q 100 22 93 25 q 106 16 103 19 q 114 10 110 13 q 124 7 118 8 q 136 4 131 6 q 162 1 149 1 q 188 0 175 0 l 272 0 q 289 0 281 0 q 306 -1 297 0 q 313 -3 308 -3 q 319 -4 318 -3 q 328 -11 326 -7 q 335 -15 331 -12 q 340 -21 339 -18 q 337 -27 340 -22 q 332 -35 333 -32 l 328 -46 q 322 -49 326 -47 q 314 -53 317 -50 q 264 -64 289 -64 q 189 -65 233 -65 q 113 -64 144 -65 q 60 -56 86 -62 q 15 -28 35 -49 q -6 6 1 -12 q -17 43 -12 25 q -24 95 -22 64 q -26 158 -26 126 q -26 210 -26 189 l -26 858 q -26 902 -26 879 q -18 943 -25 925 q 22 988 -4 974 q 49 997 35 994 q 78 1006 64 1000 q 130 1038 106 1018 q 185 1063 154 1057 q 225 1067 204 1067 q 265 1067 246 1067 q 329 1067 296 1067 q 390 1056 363 1067 q 439 1021 417 1046 q 460 994 450 1008 q 479 964 469 979 l 532 876 q 544 858 538 868 q 560 840 551 847 q 567 838 563 839 q 574 833 571 836 l 585 828 q 591 829 588 828 q 596 832 594 831 q 605 835 600 833 q 613 838 610 836 q 622 847 617 840 q 629 857 626 853 q 639 869 635 863 q 647 882 643 876 q 673 924 660 903 q 704 963 686 946 q 756 990 728 983 q 811 1008 785 996 q 849 1034 832 1019 q 888 1056 867 1049 q 954 1067 918 1068 q 1021 1067 990 1067 q 1064 1066 1042 1067 q 1106 1058 1086 1065 q 1115 1056 1110 1057 q 1124 1053 1119 1056 l 1133 1042 q 1144 1031 1140 1038 q 1153 1008 1151 1021 q 1157 983 1156 994 q 1159 935 1160 960 q 1158 883 1158 911 m 560 171 q 524 169 542 169 q 490 163 507 168 q 483 160 488 161 q 476 157 479 160 q 465 148 471 154 q 454 138 458 142 q 442 118 447 128 q 431 99 438 108 q 427 92 429 97 q 422 86 425 88 q 414 85 421 85 q 407 88 407 86 q 406 94 406 89 q 406 100 406 99 q 403 122 404 111 q 403 142 403 132 l 403 297 q 403 320 403 308 q 406 343 403 332 q 408 351 407 346 q 410 358 408 357 q 415 359 413 360 q 418 358 417 358 q 426 359 421 358 q 435 358 432 360 q 441 352 438 357 q 446 344 444 347 q 476 300 463 324 q 510 260 490 276 q 546 242 526 247 q 583 235 565 238 q 599 234 592 235 q 615 232 607 233 q 622 231 618 231 q 628 229 626 231 q 629 222 629 228 q 631 214 629 217 q 632 209 631 213 q 632 203 633 206 q 628 199 632 201 q 621 193 624 196 q 594 178 608 183 q 560 171 579 174 m 993 -62 q 941 -65 967 -64 q 889 -65 915 -65 q 848 -65 868 -65 q 807 -62 828 -64 q 756 -50 781 -60 q 715 -18 731 -40 q 699 19 706 -1 q 690 57 693 39 q 685 102 686 79 q 683 147 683 125 q 686 208 683 179 q 699 268 689 238 q 715 303 706 285 q 738 335 725 322 q 744 340 740 338 q 749 344 747 343 q 752 347 751 346 q 754 350 753 349 q 760 349 757 350 q 765 346 764 347 q 773 345 768 346 q 779 342 778 344 q 782 335 782 340 q 783 328 782 331 q 786 306 786 317 q 786 283 786 294 l 786 128 q 787 93 786 110 q 792 61 788 76 q 794 53 793 57 q 796 46 794 49 q 840 6 810 17 q 851 3 846 4 q 863 3 857 3 q 901 0 882 0 q 940 0 921 0 l 983 0 q 1006 0 994 0 q 1029 -3 1018 0 q 1038 -4 1032 -4 q 1044 -7 1043 -4 q 1048 -12 1047 -8 q 1049 -17 1049 -15 q 1052 -23 1050 -18 q 1054 -31 1054 -28 q 1043 -40 1051 -36 q 1032 -51 1039 -47 q 1015 -58 1026 -56 q 993 -62 1004 -61 z "},"N":{"ha":1028,"x_min":-8,"x_max":1015,"o":"m 421 925 q 458 888 442 907 q 488 844 474 868 q 498 832 493 838 q 510 819 503 826 l 518 811 q 522 813 521 811 q 525 815 524 814 q 533 821 528 818 q 539 826 538 824 q 542 833 542 829 q 543 838 542 836 q 553 867 547 853 q 568 894 558 882 q 572 901 569 897 q 576 906 575 904 q 589 908 579 908 q 597 912 592 910 q 604 913 603 914 q 608 909 606 913 q 611 904 610 906 q 617 898 614 901 q 621 892 619 894 q 622 887 622 890 q 622 881 622 883 q 624 866 624 874 q 625 851 625 858 l 625 689 q 625 665 625 676 q 622 640 625 653 q 621 634 621 639 q 619 626 621 629 q 612 622 618 624 q 603 618 606 619 q 600 615 601 617 q 596 615 599 614 q 590 620 594 615 q 585 626 586 625 q 567 650 575 638 q 550 676 558 663 q 517 729 533 697 q 483 792 500 761 q 449 844 465 824 l 424 886 q 417 896 421 890 q 411 907 413 901 q 410 917 410 911 q 410 926 410 922 q 408 931 410 929 q 408 935 407 933 q 415 931 410 935 q 421 925 419 928 m 1015 808 l 1015 64 q 1015 33 1015 49 q 1011 1 1014 17 q 999 -35 1007 -17 q 972 -64 990 -53 q 964 -67 969 -65 q 954 -69 958 -68 q 915 -75 936 -75 q 874 -75 893 -75 q 820 -75 847 -75 q 765 -74 793 -75 l 685 -65 q 634 -60 660 -62 q 585 -47 608 -58 q 544 -12 561 -35 q 513 32 528 10 q 510 36 511 33 q 506 40 508 39 q 497 44 503 43 q 488 47 492 46 q 479 50 481 51 q 476 46 478 50 q 475 40 475 42 q 468 26 471 33 q 464 13 465 19 q 459 -11 463 1 q 449 -33 456 -24 q 442 -41 447 -37 q 435 -49 438 -44 q 431 -53 433 -50 q 426 -57 429 -56 q 419 -60 424 -58 q 411 -64 415 -61 q 369 -74 392 -72 q 325 -75 347 -75 l 218 -75 q 166 -71 192 -74 q 114 -65 140 -68 q 62 -58 89 -62 q 15 -36 35 -54 q 13 -29 14 -33 q 8 -22 11 -25 q -1 5 1 -10 q -6 35 -4 19 q -7 102 -7 67 q -7 168 -7 138 l -7 708 q -8 760 -7 729 q -6 820 -8 790 q 4 871 -4 850 q 10 883 7 878 q 18 893 14 888 q 21 899 19 896 q 24 903 22 901 q 31 906 26 906 q 39 908 36 907 q 47 911 42 908 q 53 913 51 914 q 56 909 54 913 q 60 904 58 906 q 71 893 69 897 q 72 882 72 890 q 75 872 74 876 q 76 861 76 867 l 76 108 q 78 80 76 94 q 85 50 79 65 q 88 43 86 47 q 90 36 89 39 q 118 13 101 21 q 153 3 135 6 q 218 -1 185 -1 q 282 0 251 0 q 314 1 297 0 q 344 6 331 1 q 372 19 358 10 q 390 40 385 28 q 401 76 400 56 q 403 115 403 97 l 403 257 q 402 288 403 272 q 407 317 401 303 l 411 332 q 413 334 413 333 q 413 335 413 335 q 418 335 414 336 q 424 333 422 333 q 430 332 426 332 q 435 331 433 332 q 440 326 438 329 q 443 322 442 324 q 452 311 447 317 q 461 299 457 306 q 497 247 479 278 q 533 186 515 217 q 569 135 551 156 q 592 99 581 117 q 618 63 604 81 q 633 43 625 53 q 651 25 642 33 q 729 1 683 1 q 806 0 775 0 q 845 0 825 0 q 883 1 865 0 q 898 5 890 3 q 911 10 906 7 q 926 21 919 14 q 935 28 933 24 q 938 34 938 31 q 940 39 939 38 q 949 67 947 53 q 951 94 950 81 l 951 865 q 951 885 951 875 q 953 904 951 894 q 953 910 954 906 q 954 915 953 914 q 960 919 956 918 q 967 921 965 919 q 974 924 969 921 q 982 926 979 926 q 985 924 985 925 q 986 921 985 922 q 995 913 990 917 q 1003 904 1000 908 l 1007 889 q 1015 851 1014 871 q 1015 808 1015 831 z "},"O":{"ha":1031,"x_min":108,"x_max":1092,"o":"m 1085 299 q 1071 227 1081 268 q 1043 154 1061 186 q 1025 125 1035 140 q 1004 97 1015 110 q 975 67 990 82 q 942 40 960 53 q 897 15 929 28 q 824 -8 865 3 q 742 -28 783 -19 q 669 -41 701 -36 q 625 -46 638 -46 q 550 -42 594 -46 q 474 -31 506 -39 q 455 -26 464 -28 q 436 -21 446 -24 q 431 -19 435 -19 q 425 -17 428 -18 l 424 -7 q 432 -7 426 -6 q 439 -8 438 -8 q 458 -10 449 -10 q 478 -11 468 -11 q 531 -12 504 -12 q 583 -10 557 -12 q 641 9 599 -6 q 734 44 683 24 q 827 85 785 64 q 885 121 869 106 q 924 181 906 142 q 955 258 942 219 q 974 318 968 297 q 980 394 979 350 q 981 468 981 438 q 981 524 981 489 q 979 595 981 560 q 974 651 978 631 q 957 697 969 667 q 928 760 944 726 q 894 824 913 794 q 861 869 876 854 q 803 903 846 885 q 709 940 760 922 q 615 969 658 957 q 557 983 572 981 q 510 984 542 985 q 442 981 478 983 q 374 972 406 978 q 326 958 342 967 q 249 923 296 944 q 171 871 203 901 q 129 826 149 853 l 114 810 q 110 806 110 806 q 110 810 108 806 q 114 815 113 815 q 121 833 117 825 q 131 851 125 842 q 182 912 151 883 q 243 963 213 940 q 293 991 267 979 q 346 1013 319 1003 q 399 1034 358 1025 q 495 1048 440 1043 q 605 1053 550 1053 q 701 1049 660 1054 q 754 1033 742 1044 q 811 1013 783 1025 q 865 986 839 1001 q 935 931 897 964 q 999 865 972 897 q 1037 790 1022 835 q 1063 714 1051 746 q 1076 657 1069 686 q 1086 600 1083 628 q 1091 529 1090 569 q 1092 457 1092 489 q 1090 380 1092 426 q 1085 299 1089 333 m 553 650 q 541 624 547 638 q 532 597 535 611 q 522 533 522 567 q 521 468 521 500 q 520 427 521 449 q 525 386 519 406 q 531 372 528 381 q 536 358 533 364 q 549 346 542 351 q 561 333 556 340 q 570 324 564 329 q 578 314 576 318 q 576 306 578 311 q 574 299 575 301 q 574 294 574 297 q 571 288 574 290 q 565 283 569 285 q 558 278 561 281 q 525 265 544 268 q 488 268 506 263 q 443 300 460 276 q 419 350 426 324 q 413 397 414 372 q 411 444 413 421 q 411 516 411 476 q 414 586 411 556 q 423 635 417 610 q 447 679 429 661 q 515 707 472 707 q 523 707 518 707 q 531 706 528 707 q 540 701 535 704 q 549 694 544 697 q 556 690 554 692 q 557 685 557 689 q 557 679 557 682 q 558 665 558 671 q 553 650 557 660 z "},"P":{"ha":979,"x_min":-3,"x_max":1038,"o":"m 1038 694 q 1033 650 1036 672 q 1025 606 1031 628 q 1015 575 1021 590 q 1004 544 1010 560 q 997 516 1000 531 q 990 486 994 501 q 946 403 975 440 q 904 360 928 379 q 854 326 881 342 q 808 297 832 311 q 758 274 785 283 q 681 253 728 261 q 603 243 635 246 q 581 242 593 242 q 557 240 568 243 q 543 233 550 238 q 537 231 542 232 q 531 228 532 231 q 528 219 529 225 q 525 210 526 213 q 522 174 521 192 q 522 139 524 157 q 521 124 521 132 q 518 110 521 117 q 506 82 514 96 q 496 54 499 68 q 492 32 493 43 q 488 10 490 21 q 486 2 486 7 q 483 -6 486 -3 q 478 -13 482 -10 q 471 -19 474 -17 q 440 -44 458 -33 q 403 -58 421 -56 q 331 -63 372 -64 q 257 -62 289 -62 l 164 -62 q 138 -62 153 -62 q 113 -56 124 -61 q 97 -47 106 -53 q 82 -36 89 -40 q 73 -29 78 -33 q 63 -24 68 -25 q 48 -19 56 -21 q 33 -17 40 -18 q 25 -10 29 -14 q 18 -6 21 -7 q 10 1 11 -3 q 7 8 8 4 q 4 15 6 13 q -1 44 0 29 q -1 74 -1 60 l -1 814 q -2 852 -1 833 q -1 889 -3 871 q -1 904 -1 896 q 3 918 0 913 q 8 926 4 922 q 13 933 11 931 q 16 939 14 936 q 19 943 18 942 q 28 948 22 946 q 38 951 33 950 q 57 958 47 956 q 76 964 67 961 q 97 975 88 968 q 136 1004 119 986 q 174 1033 153 1022 q 210 1044 190 1043 q 247 1046 229 1046 l 550 1046 q 599 1047 574 1046 q 647 1046 624 1047 q 705 1034 663 1044 q 797 1008 747 1024 q 890 974 847 992 q 947 940 932 956 q 989 889 971 917 q 1022 813 1011 854 q 1034 756 1031 785 q 1038 694 1038 726 m 150 1 q 210 0 171 0 q 290 0 250 0 q 350 0 329 0 q 397 10 376 0 q 405 13 400 11 q 411 15 410 14 q 429 39 424 25 q 432 54 432 47 q 438 106 438 76 l 438 217 q 438 239 438 228 q 440 260 439 250 q 442 267 442 263 q 443 275 442 272 q 446 278 444 276 q 449 281 447 279 q 457 288 453 283 q 467 296 461 293 q 481 299 475 299 q 518 303 500 303 q 565 305 542 304 q 610 307 588 306 q 665 326 625 311 q 754 363 706 342 q 843 407 803 385 q 899 444 883 429 q 931 513 919 475 q 947 582 943 551 q 944 639 953 597 q 918 731 935 681 q 881 822 901 781 q 846 879 861 864 q 794 910 831 894 q 717 938 758 925 q 639 958 675 950 q 588 969 603 967 q 515 972 557 972 q 440 972 472 972 l 222 972 q 176 972 200 972 q 129 967 153 972 q 115 964 124 967 q 100 953 107 960 l 92 947 q 89 940 90 944 q 85 932 88 935 q 78 906 79 918 q 76 878 76 893 l 76 200 q 76 140 76 169 q 78 81 76 110 q 80 61 78 71 q 85 40 82 51 q 87 35 86 39 q 89 31 88 32 q 93 27 90 29 q 97 22 96 25 q 105 16 101 19 q 113 10 108 13 q 130 5 119 7 q 150 1 140 3 m 513 713 q 527 711 519 711 q 540 708 535 711 q 549 705 544 707 q 556 700 553 703 q 562 697 558 699 q 567 694 565 696 l 575 681 q 579 674 576 678 q 583 667 582 669 q 587 646 586 657 q 586 624 588 635 q 585 615 585 619 q 583 608 585 611 q 580 602 582 606 q 576 596 578 599 l 568 583 q 556 576 564 579 q 522 563 540 567 q 485 560 503 558 q 474 561 479 560 q 463 564 468 563 l 456 564 q 451 570 453 567 q 446 575 449 574 q 441 581 444 578 q 436 586 438 585 q 434 594 435 589 q 433 601 433 599 q 431 626 432 614 q 431 650 431 639 q 431 664 431 657 q 432 676 431 671 q 437 686 433 682 q 442 694 440 690 q 444 700 443 697 q 447 704 446 703 q 455 707 450 707 q 461 708 460 707 q 486 713 474 713 q 513 713 499 714 z "},"Q":{"ha":1031,"x_min":-43,"x_max":1081,"o":"m 986 -185 q 976 -191 981 -187 q 965 -197 971 -194 q 957 -199 961 -199 q 950 -201 953 -200 q 899 -206 925 -206 l 794 -206 q 747 -205 772 -206 q 699 -196 721 -204 q 648 -164 669 -185 q 597 -135 626 -143 q 572 -130 585 -131 q 547 -129 558 -129 q 509 -127 528 -128 q 471 -125 490 -126 q 423 -117 456 -122 q 352 -102 390 -111 q 281 -81 314 -93 q 233 -53 249 -68 q 184 -13 207 -35 q 142 33 161 8 q 116 75 128 53 q 90 118 104 97 q 38 192 65 150 q -7 264 11 233 q -25 310 -18 279 q -35 378 -32 342 q -40 447 -39 415 q -42 493 -42 478 q -42 540 -42 508 q -42 608 -43 571 q -37 676 -40 644 q -29 722 -35 707 q -12 775 -22 743 q 15 839 -1 807 q 51 892 31 871 q 99 917 63 903 q 185 949 135 932 q 292 981 236 965 q 399 1008 349 997 q 487 1025 450 1019 q 533 1025 524 1031 q 592 1019 554 1022 q 669 1011 631 1015 q 728 997 707 1007 q 785 972 749 988 q 858 938 821 957 q 915 897 894 918 q 966 855 942 878 q 1008 806 990 832 q 1047 733 1032 775 q 1069 660 1063 692 q 1078 600 1076 639 q 1081 522 1081 561 q 1081 463 1081 483 q 1080 403 1081 442 q 1076 324 1079 364 q 1065 264 1074 285 q 1052 221 1060 242 q 1035 181 1044 200 q 1017 146 1026 163 q 1003 110 1007 129 q 1001 103 1003 107 q 1000 94 1000 99 q 1001 85 1000 90 q 1004 76 1003 81 q 1028 26 1011 50 q 1060 -21 1046 3 q 1065 -31 1063 -26 q 1069 -42 1068 -36 q 1072 -51 1072 -46 q 1072 -61 1071 -56 q 1073 -66 1072 -62 q 1072 -72 1074 -69 q 1065 -81 1072 -76 q 1054 -96 1061 -89 q 1041 -103 1049 -101 q 1028 -111 1033 -106 q 1013 -136 1017 -121 q 1003 -164 1010 -151 q 996 -174 1000 -169 q 986 -185 992 -178 m 750 -90 l 890 -90 q 907 -90 899 -90 q 924 -87 915 -89 q 935 -85 929 -86 q 946 -83 942 -85 q 955 -74 950 -81 q 967 -61 960 -68 q 967 -56 968 -58 q 967 -53 967 -54 q 967 -41 967 -47 q 967 -29 968 -35 q 958 -8 964 -18 q 946 10 951 1 q 919 51 933 31 q 903 96 906 72 q 900 111 900 104 q 901 118 900 114 q 904 126 903 122 q 907 135 906 131 q 910 144 908 140 q 942 216 926 176 q 967 286 957 256 q 976 335 974 301 q 979 406 979 368 q 979 478 979 444 q 979 526 979 511 q 977 606 979 558 q 965 683 975 653 q 948 735 960 704 q 920 796 936 765 q 883 847 904 826 q 833 877 871 860 q 747 913 796 894 q 649 948 699 932 q 563 974 600 964 q 513 985 525 985 q 460 971 500 985 q 367 935 419 957 q 261 888 314 913 q 168 842 208 864 q 115 808 128 821 q 96 776 106 793 q 79 740 86 760 q 60 685 67 725 q 51 598 53 646 q 49 510 49 550 q 49 456 49 471 q 54 397 49 440 q 69 302 60 354 q 92 207 79 250 q 121 149 106 164 q 163 118 133 136 q 232 80 193 100 q 310 42 271 60 q 378 10 349 24 q 421 -7 408 -3 q 463 -11 442 -10 q 504 -12 483 -12 q 539 -14 521 -14 q 572 -19 557 -14 q 626 -48 603 -28 q 676 -79 649 -68 q 713 -87 694 -86 q 750 -90 732 -89 m 617 406 q 609 349 615 378 q 583 297 603 319 q 532 274 563 276 q 474 283 501 271 q 431 315 446 294 q 414 366 417 339 q 411 419 411 393 q 409 471 410 440 q 409 531 408 501 q 413 582 410 561 q 419 627 414 604 q 436 668 424 650 q 483 702 453 692 q 540 704 513 713 q 567 690 554 700 q 589 668 581 679 q 610 621 604 647 q 617 568 615 594 q 619 489 619 538 q 617 406 618 440 m 514 451 q 517 446 514 450 q 522 442 521 442 q 523 444 524 442 q 524 449 522 447 l 528 468 q 529 496 531 482 q 525 524 528 510 q 517 533 524 531 q 511 536 513 538 q 511 529 511 536 q 511 520 511 525 q 510 510 511 515 l 510 488 q 510 471 510 479 q 514 451 511 463 z "},"R":{"ha":1003,"x_min":8,"x_max":981,"o":"m 351 -68 q 341 -75 346 -71 q 331 -82 336 -79 q 307 -89 319 -87 q 283 -92 294 -90 q 247 -93 265 -93 q 210 -93 228 -93 q 151 -94 181 -93 q 94 -92 122 -94 q 64 -87 79 -92 q 56 -83 60 -86 q 47 -79 51 -81 q 42 -76 46 -76 q 38 -74 39 -75 q 34 -67 36 -71 q 31 -62 32 -64 q 26 -54 29 -58 q 21 -44 22 -50 q 19 -36 19 -42 q 18 -26 19 -31 q 15 10 15 -8 q 15 47 15 29 q 13 100 14 68 q 10 163 11 132 q 8 215 8 194 l 8 890 q 8 933 8 911 q 10 975 8 954 q 13 999 11 986 q 19 1022 14 1013 q 40 1044 26 1035 q 67 1057 53 1053 q 106 1060 86 1061 q 144 1060 126 1060 l 389 1060 q 433 1060 411 1060 q 476 1058 454 1060 q 534 1056 506 1058 q 592 1050 563 1053 q 663 1040 624 1046 q 733 1022 703 1033 q 792 983 754 1010 q 868 925 831 956 q 926 874 906 894 q 956 800 944 839 q 964 753 963 778 q 965 706 965 729 q 965 684 965 696 q 963 663 965 672 l 953 646 q 951 642 953 642 q 951 643 950 642 q 950 646 951 644 q 949 656 950 651 q 947 665 949 660 q 940 705 943 685 q 929 744 936 725 q 897 795 918 765 q 851 854 875 825 q 806 901 826 883 q 759 925 793 914 q 681 944 725 936 q 591 959 636 953 q 512 969 546 965 q 465 972 478 972 l 281 972 q 223 973 251 972 q 165 971 194 974 q 144 968 156 969 q 121 961 132 967 q 113 956 117 960 q 106 950 110 953 q 101 947 104 949 q 96 943 99 946 q 93 936 94 940 q 89 929 92 932 q 81 901 83 915 q 76 872 78 888 q 76 799 75 842 q 76 725 76 757 l 76 136 q 76 97 76 118 q 82 58 76 76 q 86 49 83 54 q 90 40 89 44 q 119 10 100 21 q 139 4 128 6 q 160 1 150 3 q 234 0 192 0 q 307 0 276 0 q 338 1 322 0 q 367 -3 353 1 q 375 -6 369 -4 q 382 -8 381 -7 q 382 -15 383 -10 q 379 -24 381 -21 q 378 -39 379 -35 q 374 -44 376 -42 q 369 -49 372 -46 q 363 -58 367 -53 q 351 -68 358 -62 m 446 588 q 439 599 443 593 q 432 610 435 604 q 428 633 428 621 q 429 654 428 644 q 429 661 429 657 q 431 669 429 665 q 434 674 432 672 q 438 678 436 676 q 442 685 440 681 q 447 693 444 690 q 455 698 450 696 q 463 701 460 700 q 510 708 483 713 q 556 689 538 704 q 565 678 560 685 q 572 665 571 671 q 575 656 575 661 q 576 647 575 651 q 577 642 576 644 q 578 636 578 639 q 575 625 578 631 q 574 615 574 621 q 571 607 574 610 q 561 594 568 601 q 550 585 554 588 q 516 572 536 575 q 479 571 496 569 q 472 572 476 572 q 464 574 467 572 q 456 580 460 576 q 446 588 451 583 m 921 139 l 857 257 q 838 293 847 274 q 825 331 828 313 q 827 365 822 347 q 846 393 832 383 q 858 403 850 397 q 861 406 861 406 q 862 403 863 404 q 863 401 861 403 q 863 393 863 397 q 865 385 864 389 q 869 369 868 378 q 872 351 871 360 q 876 341 874 346 q 881 331 879 336 q 909 276 893 310 q 942 208 925 242 q 971 153 960 174 q 976 139 974 147 q 979 124 979 131 q 979 116 981 121 q 978 108 978 111 q 978 100 978 107 q 976 92 978 93 q 969 92 975 90 q 961 93 964 93 q 956 93 960 93 q 950 94 951 93 q 947 99 949 96 q 943 103 944 101 q 933 119 938 111 q 921 139 928 128 m 819 -93 l 665 -93 q 611 -90 639 -93 q 563 -69 583 -86 q 546 -52 553 -62 q 532 -32 539 -42 q 512 8 521 -12 q 493 49 503 28 q 486 63 490 56 q 479 76 482 71 q 472 92 476 86 q 468 94 471 93 q 463 97 465 96 q 451 103 457 100 q 439 110 444 107 q 431 113 436 111 q 425 117 426 115 q 424 125 424 119 q 425 132 425 131 q 424 154 424 143 q 424 176 424 165 q 424 212 424 194 q 428 246 424 229 q 430 256 429 250 q 432 264 431 261 q 436 269 433 267 q 440 272 439 271 q 447 278 443 274 q 453 282 450 282 q 460 281 456 283 q 467 279 465 279 q 474 278 469 278 q 481 275 479 278 q 486 270 483 274 q 490 264 489 267 q 501 249 497 257 q 511 233 506 242 q 542 170 528 203 q 569 106 556 138 q 589 69 579 88 q 613 36 599 51 q 658 10 632 17 q 710 1 683 3 q 776 0 742 0 q 842 0 811 0 q 863 0 853 0 q 883 -1 874 0 q 891 -1 886 -1 q 899 -3 896 -1 q 908 -7 903 -4 q 917 -12 913 -10 q 921 -14 919 -14 q 924 -17 922 -14 q 924 -22 925 -18 q 924 -28 924 -26 q 925 -44 926 -40 q 919 -50 924 -49 q 913 -60 917 -54 q 906 -68 910 -65 q 866 -86 889 -82 q 819 -93 843 -90 z "},"S":{"ha":968,"x_min":6,"x_max":1017,"o":"m 1003 163 q 986 121 996 140 q 963 82 976 101 q 918 51 950 69 q 844 14 886 33 q 760 -24 803 -6 q 686 -57 718 -43 q 642 -78 654 -71 q 581 -87 621 -83 q 502 -91 542 -90 q 442 -90 463 -92 q 376 -83 411 -87 q 310 -71 342 -79 q 249 -42 289 -61 q 168 -1 208 -24 q 107 42 128 21 q 56 121 75 76 q 35 191 42 153 q 21 260 29 229 q 10 303 15 282 q 11 347 6 325 q 14 363 11 354 q 18 368 15 365 q 22 372 21 371 q 28 380 25 375 q 35 386 32 385 q 52 394 42 392 q 71 400 63 397 q 81 405 74 403 q 90 410 89 407 q 92 417 92 411 q 96 428 94 422 q 97 439 97 433 q 94 451 97 444 q 89 464 92 458 q 68 524 76 494 q 59 563 63 543 q 50 601 56 583 q 38 652 44 626 q 28 704 31 678 q 27 779 24 736 q 44 853 31 822 q 88 895 58 868 q 153 952 118 922 q 219 1007 188 982 q 265 1044 250 1032 q 341 1063 297 1057 q 415 1071 385 1069 q 465 1065 428 1072 q 551 1046 503 1058 q 649 1018 600 1033 q 735 988 697 1003 q 785 960 772 972 q 817 927 801 944 q 844 890 832 910 q 867 849 857 871 q 892 808 878 828 q 915 780 903 794 q 936 750 926 765 q 960 712 949 732 q 974 669 972 692 q 976 659 975 664 q 976 650 976 654 q 973 639 975 644 q 969 629 971 633 q 968 626 968 628 q 967 622 968 624 q 957 615 963 618 q 949 610 953 613 q 942 604 946 607 q 927 600 935 601 q 913 594 919 599 q 907 590 910 593 q 901 585 904 588 q 896 581 900 583 q 889 575 892 578 q 888 567 888 572 q 888 560 888 563 l 886 544 q 893 524 888 535 q 903 504 899 514 q 935 456 918 479 q 969 410 953 433 q 996 360 985 394 q 1012 287 1007 326 q 1015 213 1017 247 q 1003 163 1014 179 m 847 832 q 817 864 833 849 q 782 893 801 879 q 722 920 769 906 q 612 948 675 935 q 485 969 549 961 q 375 978 422 978 q 315 965 328 978 q 264 925 300 954 q 185 860 228 896 q 108 792 143 824 q 61 744 74 760 q 53 704 56 725 q 51 663 51 683 q 53 632 51 647 q 58 601 56 617 q 74 553 63 578 q 126 511 89 538 q 206 456 163 485 q 287 406 250 428 q 339 375 324 383 q 392 365 360 369 q 455 355 424 360 q 507 343 486 350 q 519 339 514 342 q 531 333 525 336 q 537 331 533 332 q 542 328 540 331 q 547 322 544 326 q 550 314 549 317 q 553 309 550 313 q 556 304 556 306 q 550 293 556 299 q 547 285 549 290 q 543 278 546 281 q 537 274 542 276 q 529 271 532 272 q 485 262 508 261 q 440 267 463 263 q 390 285 414 274 q 340 301 367 296 q 285 312 319 310 q 215 313 250 314 q 160 313 181 313 q 126 312 143 313 q 93 308 108 311 l 75 304 q 38 260 44 290 q 37 253 36 257 q 38 246 38 249 q 50 193 38 218 q 62 168 56 181 q 76 144 68 156 q 135 99 97 124 q 209 51 172 74 q 267 17 246 29 q 328 1 297 7 q 390 -8 360 -4 q 486 -12 439 -12 q 567 -8 525 -12 q 615 19 579 -3 q 699 70 651 40 q 794 132 746 100 q 878 190 842 164 q 926 228 914 215 q 935 283 938 243 q 921 369 932 322 q 893 455 910 415 q 861 510 876 494 q 797 552 833 536 q 729 581 761 568 q 678 596 708 590 q 616 606 647 601 q 564 615 585 611 q 522 622 543 618 q 481 632 500 626 q 467 638 475 635 q 454 644 460 640 q 449 651 451 647 q 444 656 447 654 q 440 662 443 658 q 435 667 436 665 q 435 674 433 669 q 438 682 436 679 q 438 689 438 685 q 439 694 438 693 q 444 697 440 696 q 449 700 447 699 q 474 708 460 707 l 493 708 q 526 700 510 707 q 557 686 542 693 q 617 672 586 675 q 679 668 649 669 l 783 668 q 820 669 801 668 q 857 675 839 669 q 866 678 861 676 q 874 681 871 679 q 879 687 876 683 q 883 692 882 690 q 889 697 886 694 q 893 703 892 700 q 894 710 894 706 q 896 717 894 714 q 897 725 896 721 q 897 732 897 729 q 896 740 897 736 q 894 747 894 744 q 867 807 886 778 q 847 832 860 818 z "},"T":{"ha":936,"x_min":-32,"x_max":1019,"o":"m 1018 735 q 1015 706 1017 721 q 1007 681 1014 692 q 981 656 997 664 q 944 644 964 647 q 890 642 918 642 q 833 642 861 643 q 808 639 822 640 q 783 632 794 638 q 777 626 781 631 q 771 619 774 622 q 767 616 769 618 q 763 611 764 614 q 760 601 760 606 q 755 583 757 592 q 753 565 753 575 q 751 517 751 542 q 751 468 751 492 l 751 132 q 751 86 751 110 q 749 39 751 63 q 744 17 747 29 q 735 -6 742 4 l 725 -11 q 718 -17 722 -14 q 710 -24 714 -21 l 692 -28 q 642 -33 668 -33 q 592 -32 617 -32 q 526 -32 561 -32 q 458 -29 490 -32 q 425 -22 443 -29 q 419 -22 424 -22 q 414 -19 415 -21 l 415 -6 q 421 -4 417 -4 q 426 -3 425 -4 q 455 0 442 0 q 482 0 468 0 q 534 3 503 0 q 594 15 565 6 q 635 46 622 25 q 642 69 640 57 q 643 93 643 82 q 645 141 646 117 q 644 189 644 165 l 644 493 q 644 541 644 517 q 646 589 644 565 q 647 613 646 600 q 654 636 649 626 q 683 663 664 656 q 721 672 701 671 q 776 674 749 675 q 829 675 803 674 q 853 679 840 676 q 875 688 865 682 q 899 714 890 697 q 910 749 907 731 q 913 799 913 774 q 913 849 913 824 q 911 887 913 868 q 901 924 910 906 q 899 931 900 926 q 896 938 899 936 q 869 960 886 953 q 833 969 851 968 q 767 973 803 974 q 700 972 732 972 l 151 972 q 114 972 133 972 q 78 965 94 972 q 70 962 74 964 q 64 957 67 960 q 51 950 56 954 q 48 944 50 949 q 43 938 46 940 q 24 883 25 914 q 24 824 24 851 l 24 786 q 24 760 24 772 q 21 735 24 747 q 20 728 21 733 q 18 719 19 722 q 13 718 17 718 q 7 718 8 718 q 1 717 6 718 q -6 717 -3 715 q -10 724 -7 718 q -14 731 -12 729 l -24 743 q -29 772 -29 760 q -32 812 -32 792 q -32 851 -32 832 q -31 902 -32 872 q -23 962 -31 932 q 4 1013 -15 992 q 10 1019 7 1015 q 17 1026 13 1024 q 71 1051 40 1049 q 132 1054 101 1054 l 721 1054 q 773 1055 747 1054 q 825 1053 799 1056 q 862 1048 843 1051 q 896 1035 881 1044 q 928 1005 917 1024 q 954 968 940 986 q 985 934 969 950 q 1010 896 1001 918 q 1018 862 1017 881 q 1019 826 1019 843 l 1018 735 m 135 674 q 185 674 160 674 q 235 672 210 675 q 243 672 239 671 q 250 671 247 672 l 268 661 q 274 658 271 660 q 278 656 276 657 q 283 647 281 653 q 286 638 285 642 q 293 593 294 618 q 292 546 292 568 l 292 253 q 292 202 292 232 q 292 142 292 172 q 292 90 293 111 q 292 76 292 85 q 290 63 293 68 q 285 56 289 60 q 279 49 282 51 q 276 44 278 49 q 272 40 274 40 q 269 42 271 40 q 265 46 268 44 q 260 51 264 49 q 254 57 257 54 q 247 67 249 61 q 243 79 246 72 q 237 112 238 94 q 236 146 236 129 q 236 194 236 158 q 236 278 236 231 q 236 372 236 325 q 236 456 236 419 q 236 504 236 492 q 236 540 236 522 q 233 575 236 557 q 233 584 233 579 q 231 593 233 589 q 227 601 229 597 q 224 608 225 604 l 215 622 q 209 627 214 625 q 201 631 204 629 l 189 639 q 159 647 175 646 q 129 654 143 649 q 119 660 124 657 q 111 665 115 663 q 107 667 110 667 q 104 669 104 668 q 108 671 104 672 q 113 671 111 669 q 122 673 117 672 q 135 674 128 674 z "},"U":{"ha":1036,"x_min":-42,"x_max":1065,"o":"m 1064 749 l 1064 411 q 1061 356 1064 396 q 1052 269 1058 317 q 1035 183 1046 222 q 1010 128 1025 143 q 958 81 990 107 q 894 31 926 54 q 842 -7 863 7 q 784 -26 814 -18 q 725 -43 754 -35 q 676 -55 700 -49 q 626 -65 651 -61 q 556 -74 596 -71 q 483 -75 515 -76 q 435 -72 468 -75 q 366 -63 403 -69 q 297 -48 329 -57 q 249 -26 264 -39 q 181 20 218 -7 q 111 76 143 47 q 60 124 85 100 q 17 176 36 147 q -10 231 1 192 q -28 315 -21 269 q -37 399 -35 360 q -40 453 -40 438 l -40 818 q -41 867 -40 842 q -39 914 -42 892 q -36 929 -37 921 q -32 943 -35 938 q -28 949 -31 946 q -24 956 -25 953 q -20 962 -22 958 q -17 967 -18 965 q -10 972 -14 969 q -3 975 -6 974 q 43 990 18 988 q 92 999 68 993 q 138 1015 115 1004 q 183 1032 160 1026 q 220 1037 201 1036 q 257 1038 239 1038 l 343 1038 q 388 1038 365 1038 q 432 1031 411 1038 q 440 1028 435 1029 q 449 1025 446 1028 q 455 1020 451 1024 q 460 1014 458 1017 q 472 1003 469 1008 q 479 986 476 996 q 490 958 486 972 q 497 928 493 943 q 510 853 508 897 q 511 776 511 808 l 511 469 q 513 467 514 468 q 513 474 513 467 l 513 851 q 513 903 513 876 q 528 951 514 929 q 535 965 531 958 q 541 970 538 968 q 547 974 544 972 q 553 978 550 976 q 558 982 556 981 q 601 992 578 992 q 646 999 625 993 q 688 1014 668 1004 q 729 1029 707 1024 q 769 1036 749 1035 q 810 1038 789 1038 l 906 1038 q 957 1036 931 1038 q 1006 1019 983 1035 l 1018 1011 q 1022 1005 1021 1010 q 1025 997 1024 1000 q 1038 973 1033 986 q 1046 944 1042 960 q 1056 906 1051 926 q 1063 867 1061 886 q 1065 810 1065 839 q 1064 749 1064 781 m 68 913 l 68 458 q 67 406 68 438 q 68 342 67 374 q 74 289 69 310 q 95 217 81 258 q 132 144 110 176 q 188 112 144 132 q 291 69 232 92 q 410 26 350 46 q 513 -4 469 7 q 569 -12 557 -15 q 635 -5 601 -10 q 700 8 669 0 q 753 32 721 18 q 818 65 786 46 q 871 104 850 83 q 925 185 903 136 q 957 265 947 235 q 966 322 964 286 q 968 395 968 358 q 968 453 968 432 l 968 878 q 967 906 968 893 q 964 933 967 919 q 961 949 964 940 q 953 956 960 953 q 947 963 950 958 q 939 968 943 967 q 932 969 936 969 q 925 969 928 969 q 906 972 915 972 q 888 972 897 972 l 692 972 q 654 968 674 972 q 649 967 653 967 q 643 965 646 967 q 637 959 640 964 q 631 951 633 954 q 627 947 629 950 q 624 942 625 944 q 622 934 622 939 q 622 926 622 929 q 621 908 621 917 q 621 892 621 900 l 621 438 q 621 384 621 411 q 614 332 621 357 q 606 310 611 322 q 593 292 600 299 q 570 277 583 282 q 543 269 557 272 q 524 266 535 267 q 504 265 514 265 q 488 269 497 267 q 472 274 478 271 q 460 280 467 276 q 449 288 453 283 q 444 294 446 290 q 439 301 442 299 q 416 367 417 329 q 415 435 415 404 l 415 879 q 415 908 415 893 q 413 935 415 922 q 408 945 411 940 q 401 954 404 950 q 400 958 400 956 q 397 961 400 960 q 391 965 396 964 q 383 967 386 965 l 369 972 q 350 973 360 974 q 331 972 340 972 l 175 972 q 147 973 161 972 q 119 971 133 974 q 110 969 115 969 q 100 968 104 969 q 90 962 96 967 q 76 950 85 957 q 74 939 74 944 q 70 927 72 933 q 68 913 68 921 z "},"V":{"ha":1008,"x_min":-28,"x_max":1018,"o":"m 990 824 l 989 819 q 953 688 971 760 q 919 544 936 617 q 884 406 901 471 q 849 292 867 340 q 814 224 832 244 l 789 139 q 776 101 783 121 q 758 65 769 82 q 728 28 744 46 q 696 -7 711 11 q 665 -41 681 -24 q 628 -69 649 -58 q 592 -81 611 -78 q 556 -83 574 -83 q 515 -85 535 -85 q 474 -85 494 -85 q 399 -85 438 -85 q 325 -83 361 -86 q 285 -78 306 -82 q 249 -60 265 -74 q 227 -30 235 -47 q 213 6 219 -12 q 194 63 203 33 q 178 119 186 92 q 144 197 161 146 q 112 312 128 247 q 80 442 96 376 q 47 563 64 507 l -3 733 q -19 789 -11 761 q -28 844 -28 817 q -23 878 -26 861 q -18 910 -19 894 q -12 944 -15 926 q -4 978 -10 961 q -1 986 -3 981 q 1 994 0 992 q 19 1011 8 1006 q 40 1019 31 1017 q 92 1026 65 1026 q 144 1025 119 1025 q 201 1026 172 1025 q 258 1022 231 1026 q 294 1015 276 1019 q 328 1004 311 1010 q 364 990 346 999 q 396 967 382 982 q 424 917 415 946 q 439 860 432 888 q 457 790 449 825 q 475 718 465 754 q 478 709 476 714 q 481 700 479 704 q 492 683 485 690 q 495 677 493 682 q 499 672 497 672 q 501 675 499 672 q 513 683 510 681 q 522 694 519 688 q 526 706 524 700 q 539 751 535 729 q 560 833 550 792 q 582 915 571 875 q 600 966 589 940 q 635 1006 611 992 q 682 1022 656 1019 q 732 1025 708 1025 q 829 1025 781 1025 q 925 1014 878 1025 q 962 1003 943 1011 q 994 983 981 996 q 1002 978 997 982 q 1008 971 1007 975 q 1011 960 1011 965 q 1015 951 1014 956 q 1018 942 1017 947 q 1015 924 1018 935 q 1006 872 1014 897 q 990 824 997 847 m 864 972 l 861 972 q 799 973 831 972 q 735 971 767 974 q 697 965 717 969 q 661 947 676 960 q 637 911 644 933 q 622 869 629 889 q 600 788 610 829 q 579 706 590 746 q 558 618 569 663 q 535 529 546 574 q 531 514 533 522 q 526 499 529 506 q 522 493 525 496 q 517 488 519 490 q 513 481 515 486 q 508 475 510 475 q 503 478 507 475 q 499 482 500 481 q 492 487 496 485 q 485 492 488 489 q 481 502 482 496 q 478 514 481 508 q 458 587 467 550 q 440 658 450 624 q 415 763 428 711 q 388 865 403 814 q 367 919 379 893 q 326 960 354 946 q 304 967 317 965 q 281 971 292 969 q 228 973 254 974 q 176 972 203 972 q 140 972 158 972 q 103 971 121 972 q 88 969 94 971 q 74 965 81 968 q 69 964 72 964 q 63 963 65 964 q 59 959 61 961 q 54 954 57 957 q 47 947 51 951 q 40 940 43 943 q 39 935 39 939 q 38 929 39 932 q 35 911 35 918 q 35 901 33 906 q 36 892 36 896 q 44 858 39 875 q 53 826 49 842 q 67 782 60 804 q 79 738 74 760 q 118 590 99 671 q 158 431 138 510 q 197 292 178 353 q 236 206 217 232 q 252 152 244 179 q 268 99 260 125 q 290 49 276 72 q 329 13 304 25 q 375 1 350 3 q 422 0 400 0 q 515 -1 468 0 q 607 0 561 -1 q 662 7 635 1 q 708 33 689 13 q 731 72 724 50 q 744 114 739 94 q 768 189 757 151 q 789 264 779 226 q 822 341 806 290 q 854 456 838 392 q 887 585 871 519 q 919 704 903 650 l 958 839 q 967 867 963 853 q 974 896 972 882 q 975 905 974 900 q 976 915 976 910 q 974 926 975 921 q 971 936 972 932 q 970 941 969 939 q 969 944 971 943 q 957 954 965 949 q 952 960 956 957 q 946 964 949 963 q 937 967 942 967 q 928 968 932 967 q 896 972 913 972 q 864 972 879 972 z "},"W":{"ha":1189,"x_min":13,"x_max":1214,"o":"m 1203 753 q 1188 695 1196 743 q 1173 579 1181 647 q 1158 435 1165 511 q 1142 292 1150 360 q 1127 176 1135 224 q 1111 118 1119 129 q 1103 63 1107 90 q 1094 7 1100 35 q 1083 -30 1090 -11 q 1063 -61 1076 -49 q 1038 -76 1053 -71 q 1008 -82 1022 -81 q 968 -85 989 -85 q 926 -85 947 -85 q 859 -84 896 -85 q 790 -78 822 -83 q 749 -70 771 -75 q 711 -54 728 -65 q 672 -3 682 -35 q 643 56 661 29 q 638 68 642 61 q 629 78 633 75 q 624 81 628 81 q 618 83 621 82 q 613 85 617 83 q 607 88 610 88 l 600 78 q 590 66 594 72 q 583 53 586 60 q 570 22 576 38 q 557 -10 564 6 q 546 -31 551 -19 q 533 -50 540 -42 q 488 -77 515 -71 q 433 -85 461 -83 q 375 -85 413 -85 q 301 -83 338 -85 q 243 -76 264 -81 q 197 -67 221 -74 q 158 -44 174 -61 q 138 -10 144 -29 q 128 28 132 10 q 118 94 122 60 q 108 158 114 128 q 97 207 103 169 q 84 299 90 244 q 72 413 78 353 q 59 526 65 472 q 47 619 53 581 q 35 667 42 657 q 27 719 32 688 q 18 781 22 750 q 13 832 14 811 q 13 847 13 839 q 14 863 13 856 q 16 869 14 865 q 19 875 18 872 q 22 881 21 876 q 25 886 24 886 q 29 882 26 886 q 33 878 32 878 q 38 874 35 876 q 42 869 40 872 q 45 856 44 864 q 47 843 46 849 q 59 765 54 813 q 69 686 64 718 q 83 627 76 674 q 96 517 89 581 q 110 391 103 454 q 123 281 117 328 q 136 222 129 235 q 145 162 140 192 q 156 103 150 132 q 165 65 158 85 q 185 32 171 46 q 215 12 197 18 q 251 3 233 6 q 294 1 272 1 q 336 0 315 0 q 404 3 368 0 q 465 32 440 7 q 497 79 485 51 q 519 133 510 107 q 540 187 531 160 q 563 238 549 214 q 567 247 565 242 q 572 254 569 253 q 579 259 575 257 q 586 263 583 261 q 592 265 589 263 q 597 267 596 267 q 604 263 600 267 q 610 258 608 260 q 627 238 621 250 q 639 213 633 225 q 660 162 650 188 q 679 111 669 136 q 693 78 686 94 q 710 47 700 61 q 757 10 726 21 q 808 0 781 0 q 860 0 835 0 q 897 0 879 0 q 933 1 915 0 q 963 6 949 3 q 990 18 978 10 q 1015 47 1007 29 q 1029 82 1024 64 q 1043 153 1039 114 q 1053 222 1047 192 q 1066 283 1060 235 q 1079 394 1072 331 q 1093 523 1086 458 q 1107 635 1100 588 q 1121 694 1114 682 q 1130 763 1125 726 q 1140 829 1135 799 q 1144 851 1142 840 q 1147 871 1146 861 q 1149 879 1149 874 q 1150 886 1149 885 q 1158 892 1153 889 q 1167 899 1164 896 q 1172 903 1171 903 q 1178 900 1175 903 q 1182 896 1181 897 q 1190 892 1185 894 q 1197 886 1196 889 q 1201 879 1200 883 q 1203 872 1201 875 q 1211 815 1214 844 q 1203 753 1208 785 m 436 817 q 443 775 440 796 q 450 733 446 754 q 456 700 453 717 q 457 665 460 683 q 455 653 457 660 q 451 640 453 647 q 444 618 449 629 q 431 600 439 607 l 422 592 q 419 589 419 589 q 418 593 418 589 l 414 607 q 408 637 410 622 q 404 667 407 651 q 398 721 401 688 q 391 788 394 754 q 383 842 388 821 q 381 864 382 853 q 382 885 381 875 l 382 900 q 387 900 385 901 q 390 899 389 899 q 400 896 394 897 q 408 890 406 894 q 415 880 411 885 q 422 868 419 875 q 431 844 428 857 q 436 817 433 832 m 782 793 q 785 815 783 804 q 788 836 786 826 q 789 844 789 839 q 790 851 789 850 q 797 853 792 853 q 803 854 801 854 q 805 855 804 854 q 807 856 806 856 l 806 843 q 803 824 804 833 q 800 803 803 814 q 792 729 796 772 q 782 654 789 686 q 772 617 781 633 q 769 611 771 615 q 767 606 768 607 q 765 607 765 606 q 764 608 765 608 l 751 618 q 739 647 739 628 q 744 679 739 665 q 751 690 747 685 q 758 699 756 694 q 776 743 772 718 q 782 793 779 768 z "},"X":{"ha":1026,"x_min":8,"x_max":1076,"o":"m 1021 -56 q 944 -59 990 -60 q 865 -58 897 -58 q 811 -59 839 -58 q 756 -57 783 -60 q 736 -53 746 -54 q 717 -47 726 -51 q 710 -44 714 -46 q 703 -42 706 -43 q 696 -35 699 -39 q 690 -26 693 -31 q 685 -21 685 -24 q 685 -19 685 -19 q 686 -18 686 -18 q 692 -9 689 -15 q 697 -1 694 -3 q 705 1 700 1 q 711 0 710 0 q 735 1 724 1 q 760 0 747 0 q 811 0 781 0 q 872 0 842 0 q 922 1 901 0 q 951 4 938 1 q 975 13 964 7 q 983 17 978 15 q 989 21 988 18 q 993 28 992 24 q 996 38 994 33 q 999 43 997 40 q 1001 47 1001 46 q 999 60 1001 51 q 989 92 997 76 q 967 129 979 111 q 944 165 956 147 q 910 213 929 181 q 869 283 890 246 q 828 352 847 319 q 793 400 808 385 q 769 437 782 418 q 751 476 757 456 q 756 538 744 510 q 783 591 765 565 q 814 642 800 617 q 852 697 833 663 q 890 765 871 731 q 928 819 910 799 q 951 858 939 839 q 969 897 963 876 q 975 911 975 906 q 976 920 976 915 q 975 929 975 925 q 974 935 974 932 q 974 940 975 939 q 969 947 972 943 q 964 951 967 950 l 954 963 q 947 965 951 964 q 939 967 942 965 q 907 972 924 971 q 874 972 890 972 l 767 972 q 713 972 742 972 q 661 960 685 971 q 636 943 647 954 q 615 921 625 932 q 585 878 599 901 q 556 833 572 854 q 549 826 553 831 q 542 819 546 822 q 535 817 540 818 q 526 814 531 815 q 522 811 525 813 q 515 810 518 810 q 501 818 507 813 q 475 843 485 826 q 456 874 465 860 q 432 913 444 893 q 401 946 419 932 q 347 968 378 964 q 307 972 328 972 q 267 972 286 972 l 144 972 q 113 972 129 972 q 82 972 97 971 q 61 979 71 975 q 58 981 60 981 q 54 982 56 981 q 51 987 53 983 q 47 992 50 990 q 43 999 46 994 q 40 1006 40 1003 q 41 1013 39 1008 q 44 1019 43 1018 q 47 1027 46 1022 q 49 1033 47 1032 q 58 1046 51 1039 q 69 1056 65 1053 l 83 1060 q 123 1069 103 1068 q 164 1071 143 1071 l 293 1071 q 357 1066 325 1071 q 415 1039 389 1061 q 451 1000 435 1022 q 481 956 467 978 q 494 942 488 949 q 507 928 500 935 q 512 924 510 926 q 515 919 514 921 q 522 919 518 918 q 528 919 526 919 q 543 918 538 917 l 550 922 q 559 929 554 926 q 567 936 564 932 q 574 946 571 940 q 581 956 578 951 q 609 999 596 976 q 640 1039 622 1021 q 713 1068 671 1065 q 786 1071 756 1071 l 889 1071 q 924 1071 906 1071 q 960 1064 943 1071 q 994 1041 981 1057 q 1021 1010 1008 1025 q 1033 994 1026 1003 q 1042 978 1039 986 q 1047 924 1051 953 q 1035 871 1042 894 q 1011 816 1028 842 q 979 765 994 790 q 928 686 953 735 q 878 606 903 638 q 854 568 867 588 q 835 529 842 549 q 828 507 831 519 q 826 482 825 494 q 835 459 829 471 q 846 438 840 447 q 869 399 857 418 q 894 361 882 381 q 947 281 921 331 q 999 199 972 231 q 1031 150 1014 175 q 1060 99 1049 125 q 1069 76 1065 89 q 1075 53 1074 64 q 1074 28 1076 40 q 1069 4 1072 15 q 1061 -25 1068 -10 q 1060 -30 1060 -26 q 1057 -36 1060 -33 q 1021 -56 1047 -49 m 40 186 q 76 235 56 201 q 119 308 97 269 q 163 381 142 347 q 199 431 183 415 q 222 467 208 449 q 231 474 226 471 q 240 482 236 478 q 246 486 244 486 q 255 485 249 488 q 264 481 261 482 q 267 479 267 481 q 265 472 268 478 q 265 465 265 468 q 264 457 264 461 q 258 443 263 450 q 251 429 254 436 q 237 406 244 418 q 221 382 229 393 q 176 319 200 361 q 129 234 153 276 q 85 171 106 192 q 66 141 75 157 q 46 110 57 125 q 40 103 43 107 q 35 94 38 99 q 33 91 33 93 q 31 89 33 89 q 24 88 29 88 q 17 88 19 88 q 13 88 13 88 q 12 92 11 89 q 11 96 13 94 q 10 105 11 100 q 10 115 8 110 q 12 124 10 119 q 15 133 14 129 q 26 159 19 146 q 40 186 33 172 m 482 43 q 451 -6 468 19 q 408 -44 435 -32 q 368 -56 390 -54 q 325 -58 346 -57 q 263 -59 294 -60 q 200 -58 232 -58 q 161 -58 181 -58 q 122 -57 142 -58 q 101 -56 113 -57 q 81 -50 89 -54 q 72 -43 76 -47 q 64 -36 68 -39 q 58 -32 58 -33 q 60 -28 57 -31 q 63 -18 61 -25 q 67 -8 64 -11 q 76 -5 69 -6 q 85 -4 82 -4 q 113 0 99 0 q 140 0 126 0 l 254 0 q 294 1 274 0 q 333 7 315 1 q 393 52 365 18 q 442 117 421 86 q 454 134 449 125 q 467 151 460 143 q 472 158 469 154 q 476 163 474 161 q 486 168 481 165 q 496 172 492 171 q 503 175 501 175 q 508 172 506 175 q 513 168 511 169 q 519 165 515 167 q 524 160 522 163 q 525 151 525 158 q 528 132 528 140 q 524 122 526 126 q 521 114 522 118 q 504 78 515 96 q 482 43 493 61 z "},"Y":{"ha":986,"x_min":-37,"x_max":1008,"o":"m 404 836 l 404 846 q 404 849 404 849 q 407 847 407 849 q 408 843 407 844 q 415 833 411 839 q 422 824 418 826 q 447 818 429 818 q 459 823 453 821 q 469 829 465 825 q 475 837 472 832 q 479 844 478 842 q 494 867 488 856 q 506 892 500 879 l 550 979 q 569 1013 558 996 q 594 1043 581 1031 q 629 1062 610 1056 q 668 1069 649 1068 q 733 1072 700 1072 q 797 1071 767 1071 q 864 1067 829 1071 q 922 1038 899 1064 q 928 1033 925 1036 q 933 1028 932 1031 q 938 1017 936 1022 q 940 1006 939 1011 q 943 999 943 1000 q 942 996 943 997 q 939 992 940 994 q 932 983 936 989 q 925 975 928 978 q 916 974 922 974 q 906 974 910 974 q 882 972 894 972 q 858 972 869 972 q 799 973 828 972 q 739 972 769 974 q 697 967 718 971 q 658 953 676 964 q 631 925 642 943 q 610 890 619 907 q 578 828 593 860 q 547 767 563 797 q 536 747 542 757 q 524 726 531 736 q 520 721 522 725 q 515 714 518 717 l 499 710 q 494 708 497 710 q 488 707 490 706 q 477 713 483 707 q 468 721 471 718 q 458 732 463 725 q 450 746 454 739 q 437 772 443 758 q 424 797 431 785 q 413 817 419 807 q 404 836 407 826 m 1001 886 q 1008 875 1007 882 q 1007 868 1008 872 q 1006 861 1006 864 q 998 833 1004 847 q 983 803 992 819 q 953 756 971 790 q 917 676 936 721 q 877 585 897 631 q 840 506 857 540 q 810 458 822 471 q 782 403 796 432 q 754 347 768 375 q 734 308 744 328 q 717 265 724 288 q 705 206 707 244 q 703 131 703 168 q 704 72 704 93 q 703 20 704 47 q 689 -31 701 -7 q 675 -49 683 -40 q 657 -67 667 -58 q 628 -87 643 -78 q 597 -103 613 -97 q 560 -110 579 -108 q 524 -112 542 -112 l 438 -112 q 392 -112 415 -112 q 349 -106 369 -112 q 339 -101 344 -103 q 331 -99 333 -100 q 326 -94 328 -97 q 321 -90 324 -92 l 307 -78 q 304 -71 306 -75 q 301 -64 303 -67 q 294 -30 296 -47 q 290 6 293 -12 q 281 67 288 36 q 269 128 274 97 q 267 172 268 150 q 264 217 267 194 q 249 273 261 238 q 222 344 238 308 q 192 400 207 379 q 159 453 176 415 q 123 537 142 492 q 87 620 104 582 q 54 674 69 658 q 35 712 44 693 q 15 749 25 731 q -1 785 7 767 q -11 822 -8 803 q -13 846 -12 833 q -14 869 -14 858 q -18 907 -15 889 q -25 943 -21 925 q -33 974 -29 958 q -36 1006 -37 990 q -35 1016 -35 1010 q -35 1028 -36 1022 q -30 1036 -33 1032 q -25 1043 -26 1040 q -22 1049 -24 1046 q -19 1053 -21 1051 q -12 1057 -17 1056 q -7 1060 -8 1058 q 21 1068 7 1067 q 49 1071 35 1069 l 171 1071 q 211 1069 190 1071 q 250 1061 232 1068 q 261 1057 256 1060 q 271 1051 267 1054 q 291 1035 282 1044 q 308 1014 300 1025 q 313 1002 313 1008 q 315 989 314 996 q 317 986 315 988 q 317 982 318 985 q 310 979 315 981 q 303 976 306 978 q 289 969 294 971 l 275 971 q 260 972 268 971 q 244 972 251 972 q 167 974 214 974 q 89 972 121 974 q 71 970 82 971 q 53 965 60 969 q 47 962 50 964 q 40 957 43 960 q 35 953 39 956 q 29 949 31 951 q 27 943 28 947 q 25 936 26 939 q 24 928 25 933 q 21 921 22 924 q 23 912 21 917 q 26 903 25 907 q 46 853 33 876 q 69 806 58 829 q 101 755 82 793 q 144 666 121 717 q 189 565 167 615 q 231 476 211 514 q 263 425 250 438 q 288 374 275 400 q 310 321 301 349 q 318 272 317 297 q 319 221 319 246 l 319 132 q 320 88 319 111 q 331 46 321 65 q 338 29 333 36 q 345 22 340 25 q 354 17 350 19 l 364 8 q 371 7 367 7 q 379 6 375 7 q 435 0 403 0 q 511 -1 467 0 q 586 1 556 -1 q 609 6 597 3 q 631 14 621 8 q 638 20 635 17 q 644 26 642 24 q 649 31 646 29 q 653 35 651 32 q 656 42 656 38 q 658 50 657 46 q 667 97 667 72 q 667 146 667 122 q 666 222 667 178 q 672 297 665 267 q 680 327 675 313 q 690 356 685 342 q 728 433 707 388 q 767 510 749 479 q 800 563 782 525 q 836 647 818 601 q 872 730 854 692 q 906 783 890 768 q 931 833 918 807 q 958 881 943 858 q 962 888 960 883 q 967 893 964 892 q 974 896 969 896 q 982 897 979 896 q 989 899 985 897 q 994 901 993 901 q 999 894 997 900 q 1001 886 1000 889 z "},"Z":{"ha":963,"x_min":-54,"x_max":971,"o":"m 969 64 q 967 35 968 50 q 960 8 965 21 q 927 -24 949 -14 q 885 -43 906 -35 q 844 -63 864 -53 q 801 -78 824 -74 q 761 -83 782 -82 q 721 -83 740 -83 l 100 -83 q 52 -79 76 -83 q 8 -61 28 -75 q -8 -42 -1 -53 q -21 -22 -14 -32 q -49 43 -40 11 q -54 99 -54 71 q -54 154 -54 128 q -49 218 -54 186 q -26 278 -44 250 q 1 313 -15 297 q 32 344 17 329 l 126 444 q 171 490 149 468 q 214 536 193 513 q 233 564 225 547 q 237 569 235 567 q 239 574 239 572 q 233 585 239 579 q 231 593 232 588 q 226 600 229 599 q 218 601 224 601 q 208 604 213 603 q 197 606 203 606 q 145 608 171 608 q 93 608 119 607 q 72 610 83 608 q 49 614 60 611 q 14 640 26 622 q -10 678 1 658 q -36 738 -28 708 q -40 774 -40 756 q -40 811 -40 793 q -40 849 -40 831 q -39 885 -40 867 q -32 915 -36 900 q -19 942 -28 929 q 6 968 -8 957 q 32 992 19 979 q 60 1022 46 1007 q 93 1046 75 1038 q 125 1053 107 1053 q 158 1054 143 1054 l 625 1054 q 703 1055 657 1054 q 781 1054 750 1056 q 823 1049 801 1053 q 861 1031 844 1046 q 885 999 876 1018 q 904 964 894 981 q 924 935 914 950 q 942 903 935 919 q 950 863 949 885 q 951 821 951 842 q 951 744 951 790 q 932 667 950 699 q 896 617 918 640 q 853 569 874 593 q 794 506 824 539 q 736 440 765 472 q 730 432 733 436 q 724 422 726 428 q 720 419 722 421 q 717 414 718 417 q 716 404 715 410 q 718 394 717 399 q 717 389 718 393 q 718 382 717 385 q 728 378 722 378 q 736 373 732 376 q 744 368 740 369 q 752 367 747 367 q 760 368 757 368 q 811 367 783 367 q 861 356 839 367 q 894 326 883 346 q 917 286 906 306 q 942 248 928 267 q 963 208 956 229 q 967 183 965 196 q 969 157 968 169 q 970 112 971 135 q 969 64 969 89 m 718 972 l 169 972 q 142 971 156 972 q 114 965 128 969 q 107 963 111 964 q 100 960 103 963 q 94 956 97 958 q 89 950 92 953 q 84 946 88 949 q 79 940 81 943 q 76 933 78 938 q 72 926 75 929 q 63 879 63 904 q 63 831 63 854 q 63 809 63 821 q 64 786 63 797 q 67 760 65 774 q 74 735 68 746 q 108 702 85 711 q 157 692 132 693 q 212 690 178 690 q 280 690 246 690 q 335 690 314 690 q 365 690 350 690 q 393 682 381 689 q 401 679 396 681 q 408 675 407 678 q 410 667 410 674 q 410 658 410 661 q 410 653 410 657 q 410 646 411 649 q 408 642 410 644 q 403 638 406 640 q 394 626 399 632 q 383 613 390 619 l 321 547 q 267 492 300 526 q 201 422 235 457 q 147 367 168 388 q 92 301 118 336 q 54 233 65 265 q 49 180 49 207 q 49 126 49 153 q 49 108 49 117 q 51 89 50 99 q 51 81 51 86 q 53 74 51 76 q 59 65 56 69 q 64 56 63 60 q 68 49 67 50 q 72 47 71 47 q 75 46 74 47 q 86 42 81 44 q 97 39 92 39 q 105 39 100 38 q 113 42 110 40 q 131 46 122 43 q 147 51 139 49 q 199 69 174 60 q 249 88 224 78 q 296 113 261 100 q 376 138 331 125 q 466 163 421 150 q 546 187 511 175 q 593 211 581 199 q 649 232 621 222 q 706 251 678 242 q 719 258 713 254 q 732 265 726 261 q 737 267 735 267 q 739 268 739 267 q 734 272 739 269 q 729 275 729 274 q 722 280 725 278 q 714 283 718 282 q 703 284 710 285 q 692 285 697 283 q 638 284 665 286 q 585 288 611 282 q 576 290 582 289 q 567 292 569 290 q 563 297 565 293 q 558 303 560 301 q 554 307 557 304 q 551 311 551 310 q 556 321 551 317 q 565 339 560 332 q 575 354 569 346 q 618 403 596 379 q 663 451 640 428 q 709 501 683 472 q 760 560 735 531 q 806 610 785 589 q 851 658 828 633 q 886 711 874 682 q 897 761 896 735 q 899 813 899 788 q 899 857 899 835 q 896 901 899 879 q 885 936 894 919 q 860 961 876 953 q 838 969 850 968 q 814 971 825 971 q 767 973 792 974 q 718 972 743 972 m 789 253 q 743 229 779 243 q 656 199 707 215 q 551 167 606 183 q 445 134 496 150 q 359 105 394 118 q 313 81 324 92 l 194 39 q 178 33 186 36 q 164 24 171 29 q 154 18 157 24 q 155 17 154 18 q 156 15 156 17 q 158 8 157 14 q 160 1 158 3 q 165 0 161 0 q 171 0 169 0 l 718 0 q 768 -1 743 0 q 818 0 793 -1 q 844 2 831 1 q 869 7 858 3 q 883 14 875 10 q 896 22 892 18 q 900 29 899 25 q 903 36 901 33 q 908 42 906 39 q 911 50 910 46 q 913 59 913 54 q 914 68 913 64 q 917 107 917 88 q 917 144 917 126 l 917 186 q 914 215 915 201 q 906 240 913 228 q 903 248 904 243 q 900 256 903 253 q 894 260 899 258 q 886 263 889 261 q 879 267 883 265 q 872 269 875 269 q 865 270 869 271 q 857 269 860 269 q 824 264 840 268 q 789 253 808 260 z "},"А":{"ha":1049,"x_min":-43,"x_max":1110,"o":"m 988 -58 q 917 -59 957 -58 q 844 -56 876 -60 q 812 -49 828 -53 q 781 -43 796 -46 q 738 -36 760 -40 q 696 -22 715 -32 q 663 8 675 -11 q 632 40 650 26 q 594 61 615 56 q 549 68 572 67 q 504 65 528 68 q 463 49 481 61 q 423 2 436 31 q 382 -43 410 -26 q 332 -57 360 -56 q 279 -58 304 -58 q 214 -59 249 -58 q 147 -57 179 -60 q 106 -51 126 -54 q 65 -42 85 -47 q 38 -37 51 -39 q 13 -32 25 -35 l -3 -28 q -15 -17 -7 -25 q -22 -12 -18 -14 q -28 -7 -25 -10 q -31 1 -29 -4 q -33 8 -32 6 q -40 37 -39 22 q -42 65 -40 51 q -42 106 -43 86 q -37 146 -42 126 q -22 205 -32 176 q -1 261 -11 233 q 26 317 10 272 q 63 428 43 363 q 105 565 83 493 q 147 703 126 638 q 184 814 167 768 q 211 869 201 860 q 231 926 221 897 q 251 982 240 956 q 269 1017 258 1000 q 294 1046 279 1035 q 337 1063 314 1060 q 382 1068 360 1067 q 462 1069 414 1069 q 540 1068 510 1068 q 594 1067 567 1068 q 646 1056 622 1067 q 676 1037 663 1049 q 704 1014 690 1025 q 735 990 719 1003 q 761 961 750 976 q 780 933 772 949 q 794 901 788 917 q 815 856 806 879 q 833 808 824 832 q 861 753 846 796 q 892 651 876 710 q 924 535 908 593 q 956 433 940 476 q 983 378 971 390 q 1009 321 996 363 q 1035 229 1022 279 q 1062 138 1049 179 q 1088 81 1075 96 q 1099 47 1093 64 q 1106 14 1104 31 q 1108 3 1107 8 q 1108 -6 1110 -1 q 1106 -12 1108 -8 q 1103 -21 1104 -17 q 1101 -28 1101 -24 q 1097 -35 1100 -32 q 1092 -38 1096 -36 q 1085 -43 1088 -40 q 1078 -47 1082 -44 q 1072 -51 1075 -50 q 1064 -53 1069 -53 q 1054 -56 1058 -54 q 1024 -58 1040 -57 q 988 -58 1007 -58 m 1015 131 q 989 185 1006 142 q 953 290 972 228 q 914 420 935 351 q 874 551 893 489 q 840 656 856 613 q 813 710 824 700 q 787 787 800 742 q 760 863 774 832 q 743 909 753 885 q 715 949 733 933 q 683 965 701 960 q 646 971 664 969 q 590 973 618 974 q 535 972 563 972 q 476 973 506 972 q 417 972 446 974 q 375 968 396 971 q 338 951 354 965 q 315 922 324 940 q 299 888 306 904 q 278 829 288 858 q 257 771 268 800 q 229 714 244 758 q 197 610 214 669 q 163 490 181 550 q 131 386 146 431 q 103 329 115 342 q 80 269 92 308 q 57 192 68 231 q 33 132 46 153 q 22 97 28 114 q 13 63 15 81 q 11 53 13 58 q 11 43 10 47 q 14 36 11 40 q 18 29 17 32 q 21 24 19 28 q 25 17 22 19 q 33 13 28 14 q 42 8 38 11 q 88 -1 63 -1 q 136 0 114 0 l 247 0 q 283 4 264 1 q 315 17 301 7 q 349 58 339 32 q 378 103 360 85 q 383 108 381 106 q 388 113 386 111 q 394 116 390 115 q 401 118 399 117 q 438 126 419 125 q 475 126 457 126 l 585 126 q 611 126 599 126 q 636 122 624 125 q 644 121 640 121 q 651 118 649 121 q 683 88 674 108 q 706 49 693 67 q 750 10 724 22 q 792 1 769 1 q 835 0 814 0 q 902 0 867 0 q 968 1 938 0 q 986 3 978 1 q 1004 8 994 6 q 1014 11 1008 8 q 1021 18 1018 14 q 1026 25 1024 22 q 1030 30 1028 28 q 1033 33 1032 32 q 1035 42 1036 36 q 1035 51 1035 49 q 1029 90 1036 71 q 1015 131 1022 110 m 468 435 q 467 449 468 442 q 467 463 467 456 q 472 485 468 474 q 479 507 476 497 q 487 534 483 521 q 496 560 490 547 q 501 571 499 564 q 506 581 503 578 q 512 585 508 583 q 518 588 515 586 q 523 590 519 588 q 528 592 526 592 q 531 590 531 592 q 533 586 532 588 q 551 560 546 574 q 563 528 558 544 q 574 493 568 511 q 579 473 576 483 q 582 451 582 463 q 580 440 582 446 q 576 429 578 435 q 575 422 576 424 q 569 417 574 419 q 563 411 565 414 q 559 408 561 410 q 554 404 557 406 q 547 403 551 403 q 539 401 542 403 q 517 400 529 400 q 496 404 506 400 q 483 413 490 407 q 478 417 482 415 q 472 421 475 419 q 468 435 471 422 z "},"Б":{"ha":933,"x_min":-33,"x_max":982,"o":"m 961 156 q 941 117 951 136 q 915 79 931 97 q 863 31 892 51 q 811 7 850 18 q 721 -14 772 -4 q 617 -31 669 -24 q 526 -41 565 -37 q 475 -44 488 -44 l 213 -44 q 173 -43 193 -44 q 135 -35 153 -42 q 98 -16 115 -28 q 61 6 81 -4 q 30 19 47 13 q 0 38 13 25 q -20 72 -14 51 q -29 111 -26 92 q -33 188 -33 143 q -32 263 -32 232 l -32 867 q -31 910 -32 888 q -25 951 -31 932 q 17 992 -15 972 q 85 1027 49 1013 q 142 1043 121 1042 q 222 1044 174 1044 q 301 1043 271 1043 l 590 1043 q 656 1044 622 1043 q 719 1043 689 1044 q 760 1040 739 1042 q 799 1028 781 1038 q 830 1004 817 1019 q 854 974 843 989 q 883 929 869 953 q 901 881 896 906 q 908 829 908 856 q 908 776 908 803 q 907 733 908 756 q 897 692 906 711 q 894 685 896 689 q 890 678 893 681 q 866 658 881 664 q 836 646 851 651 q 827 643 832 644 q 818 639 822 642 q 811 638 813 639 q 807 628 808 635 q 803 618 806 622 q 802 617 803 618 q 801 615 801 617 q 808 606 804 610 l 825 585 q 876 519 854 553 q 920 453 897 489 q 958 386 943 418 q 975 340 969 371 q 981 272 981 308 q 977 204 982 236 q 961 156 972 172 m 706 972 l 190 972 q 163 972 176 972 q 136 967 150 971 q 113 958 125 964 q 94 942 101 953 q 81 910 85 928 q 76 875 78 892 l 76 313 q 76 243 76 282 q 76 172 75 204 q 77 158 78 167 q 78 144 76 150 l 89 133 q 92 128 90 132 q 96 125 94 125 q 104 128 99 125 q 117 134 111 131 q 129 143 124 138 q 163 183 147 163 q 196 222 179 203 q 238 271 211 238 q 292 342 264 304 q 347 413 321 379 q 389 461 374 446 q 418 498 404 481 q 446 533 432 515 q 456 547 451 540 q 465 561 461 554 q 470 567 468 564 q 472 574 472 571 q 474 585 475 579 q 474 596 474 590 q 475 603 475 599 q 470 611 474 607 q 464 618 467 615 q 455 631 458 625 q 449 644 451 638 q 445 649 447 646 q 444 654 443 653 q 448 662 444 657 q 453 668 451 667 q 456 674 454 671 q 458 678 457 676 q 469 681 463 681 q 481 683 476 682 q 517 688 499 689 q 554 688 536 688 l 750 688 q 792 689 771 688 q 831 700 813 690 q 838 704 833 703 q 843 707 842 706 q 859 728 854 715 q 867 751 864 740 q 871 791 871 771 q 871 829 871 811 q 872 869 871 849 q 868 907 872 889 q 858 935 865 924 q 853 942 857 939 q 847 949 850 946 q 844 953 846 951 q 839 957 842 956 q 831 961 836 960 q 821 964 825 963 q 765 973 794 974 q 706 972 735 972 m 731 28 q 786 52 758 39 q 836 83 814 65 q 871 133 851 99 q 908 208 890 168 q 935 283 925 249 q 943 333 946 318 q 927 392 942 354 q 892 468 913 431 q 851 526 872 506 q 795 566 826 550 q 732 592 764 582 q 690 605 713 599 q 646 610 668 611 q 637 610 642 610 q 628 608 632 610 q 593 590 608 604 q 565 561 578 576 q 527 515 546 539 q 489 467 508 490 q 477 452 483 461 q 468 436 471 443 q 467 428 467 433 q 467 421 467 424 q 465 414 467 419 q 465 406 464 408 q 472 401 467 404 q 479 397 478 399 l 493 389 q 508 385 500 386 q 522 381 515 383 q 536 376 529 379 q 549 368 543 372 q 555 360 551 365 q 561 351 558 356 q 565 347 563 350 q 568 342 567 344 q 571 334 571 339 q 571 326 571 329 q 574 311 574 318 q 547 260 571 282 q 542 257 546 258 q 535 254 538 256 q 494 242 517 244 q 453 251 471 240 q 446 256 450 254 q 439 261 442 258 q 436 266 438 263 q 433 271 435 269 l 421 301 q 420 310 421 304 q 417 317 419 315 q 413 321 415 319 q 407 324 410 322 q 401 329 406 325 q 394 333 397 333 q 392 332 393 333 q 388 329 390 331 q 378 324 383 326 q 369 317 374 321 q 358 305 364 311 q 347 292 353 299 l 308 242 q 248 168 278 211 q 189 93 218 125 q 173 72 181 83 q 158 49 165 61 q 154 42 157 47 q 151 35 151 38 q 153 28 151 32 q 157 21 156 24 q 159 15 158 19 q 161 7 160 10 q 167 6 164 6 q 172 4 171 6 q 187 1 179 3 q 201 0 194 0 l 471 0 q 523 0 492 0 q 585 1 554 0 q 636 7 615 3 q 731 28 679 13 m 471 329 q 468 328 469 328 q 464 326 467 328 q 462 326 464 326 q 461 325 460 326 q 467 327 463 325 q 471 329 472 329 z "},"В":{"ha":1019,"x_min":7,"x_max":1024,"o":"m 992 453 q 1013 408 1006 438 q 1022 343 1021 378 q 1019 278 1024 308 q 1006 231 1015 247 q 981 178 994 201 q 963 153 972 165 q 944 129 954 142 q 899 67 922 99 q 844 14 876 36 q 800 -9 832 1 q 726 -28 768 -19 q 642 -42 685 -36 q 568 -51 600 -49 q 524 -54 536 -54 l 172 -54 q 131 -54 153 -54 q 90 -46 110 -54 q 64 -31 78 -42 q 33 3 47 -17 q 11 44 18 22 q 8 69 8 56 q 7 96 7 83 l 7 860 q 8 890 7 875 q 10 918 8 904 q 12 926 11 921 q 14 932 13 931 q 33 956 21 947 q 57 975 46 965 q 80 993 68 983 q 106 1008 92 1003 q 131 1015 117 1014 q 157 1018 144 1017 q 200 1019 179 1019 q 243 1018 221 1018 l 490 1018 q 535 1018 506 1018 q 599 1017 565 1018 q 663 1014 633 1017 q 708 1007 693 1011 q 767 995 729 1003 q 843 976 806 988 q 901 943 881 964 q 943 890 922 922 q 979 824 964 857 q 999 769 994 790 q 1002 717 1003 744 q 993 667 1001 690 q 978 633 988 649 q 958 601 969 617 q 948 588 953 594 q 939 574 943 581 q 935 567 938 571 q 932 560 932 563 q 932 552 931 557 q 933 544 933 547 q 935 535 935 540 q 936 528 935 531 q 943 517 939 522 q 950 508 947 513 q 972 481 961 494 q 992 453 983 468 m 924 124 q 951 172 939 139 q 971 242 964 204 q 978 313 978 281 q 969 361 978 346 q 944 416 961 390 q 906 467 928 442 q 898 477 903 472 q 890 488 893 482 q 888 497 889 492 q 888 507 888 503 q 886 519 885 515 q 888 526 886 522 q 892 532 890 529 q 902 548 897 540 q 913 563 907 556 q 932 593 924 578 q 946 624 940 608 q 956 675 954 649 q 954 728 957 701 q 929 785 950 749 q 883 860 908 822 q 836 917 857 897 q 780 943 821 932 q 691 960 739 954 q 602 969 643 967 q 546 972 561 972 l 283 972 q 224 973 253 972 q 164 971 194 974 q 142 969 154 971 q 119 964 129 968 l 104 953 q 96 946 97 950 q 89 933 92 942 q 80 906 82 919 q 78 876 78 892 q 76 806 76 846 q 76 735 76 767 l 76 106 q 79 76 78 90 q 86 47 81 61 q 92 32 89 36 l 103 22 q 108 18 106 21 q 114 13 111 15 q 144 3 128 6 q 175 0 161 1 l 564 0 q 613 1 579 0 q 683 7 646 3 q 754 18 721 11 q 803 36 788 25 q 868 72 835 50 q 924 124 901 93 m 446 624 q 442 631 443 626 q 438 636 440 635 q 428 657 432 646 q 426 679 425 668 q 429 686 428 682 q 432 694 431 690 q 435 702 433 697 q 438 710 436 707 q 444 714 439 711 q 453 722 449 717 q 464 728 458 726 q 474 729 468 729 q 483 731 479 729 q 513 731 499 733 q 540 725 526 729 q 549 723 544 724 q 556 719 553 722 q 563 713 560 718 q 572 701 567 708 q 578 690 575 696 q 583 676 582 683 q 582 669 583 671 q 582 658 582 664 q 579 647 582 651 q 574 641 578 644 q 568 635 571 638 q 561 625 565 629 q 553 621 558 622 q 543 617 547 619 q 503 608 525 610 q 464 615 481 607 q 454 620 460 618 q 446 624 449 622 m 590 346 q 595 339 593 343 q 599 331 597 335 l 604 321 l 604 308 q 603 299 603 304 q 603 290 604 294 q 597 276 601 285 q 588 264 592 268 q 575 257 583 260 q 544 244 561 247 q 508 240 528 242 q 497 240 503 240 q 483 242 490 240 q 474 244 478 243 q 465 247 469 246 l 454 251 q 451 256 453 253 q 446 260 449 258 q 440 266 444 263 q 435 274 436 269 q 433 280 433 276 q 432 285 432 283 q 428 294 431 289 q 426 304 426 299 q 429 319 426 311 q 430 328 429 324 q 432 336 431 333 q 442 349 433 340 q 447 355 444 351 q 450 360 449 358 q 458 364 453 363 q 464 367 463 365 q 486 372 475 371 q 508 374 497 374 q 538 372 522 374 q 567 363 554 369 q 579 356 572 361 q 590 346 586 350 z "},"Г":{"ha":832,"x_min":4,"x_max":875,"o":"m 872 729 q 865 702 869 715 q 851 678 861 689 q 818 658 838 664 q 779 649 799 651 q 725 644 758 644 q 659 644 692 643 q 606 644 626 644 q 576 644 592 644 q 546 640 561 643 q 539 640 543 640 q 532 638 535 640 q 526 634 529 636 q 519 629 522 632 q 514 626 518 628 q 507 621 510 624 l 503 610 q 497 592 499 600 q 494 572 496 583 q 492 519 492 546 q 493 465 493 492 l 493 143 q 494 97 493 121 q 492 50 494 74 q 490 26 492 39 q 482 3 489 14 q 478 -3 481 0 q 472 -8 475 -6 q 467 -14 469 -11 q 461 -19 464 -17 q 449 -26 457 -24 q 417 -36 433 -33 q 383 -42 400 -39 q 322 -43 353 -43 q 261 -43 292 -43 q 184 -44 231 -43 q 106 -43 138 -44 q 86 -42 96 -43 q 65 -40 76 -42 q 58 -39 63 -39 q 50 -37 53 -39 q 11 7 21 -24 q 9 16 10 11 q 7 25 8 21 q 4 65 4 44 q 4 104 4 85 l 4 789 q 4 828 4 808 q 7 867 4 849 q 31 919 11 896 q 50 942 39 932 q 71 964 61 953 q 99 1000 86 982 q 135 1028 113 1018 q 158 1035 146 1033 q 182 1036 171 1036 q 231 1038 206 1039 q 279 1038 256 1038 l 715 1038 q 765 1034 739 1038 q 811 1017 792 1031 q 845 978 833 1003 q 863 929 857 954 q 873 869 871 908 q 874 792 875 831 q 872 729 874 753 m 289 0 q 332 0 308 0 q 374 8 356 0 q 406 47 394 19 q 420 103 417 74 q 424 154 424 133 l 424 596 q 424 620 424 607 q 431 643 425 633 q 433 649 431 646 q 436 653 435 651 q 442 662 439 657 q 449 668 444 667 q 456 672 451 671 q 463 675 460 674 q 494 685 478 683 q 528 688 511 686 q 579 688 549 689 q 640 688 610 688 q 690 688 669 688 q 724 690 707 689 q 756 699 740 692 q 763 703 758 701 q 769 706 768 704 q 775 712 772 708 q 781 717 778 715 l 790 729 q 794 736 793 732 q 796 743 794 740 q 802 776 801 760 q 804 810 803 793 q 805 863 804 835 q 797 915 806 892 q 788 938 793 926 q 772 954 782 949 q 746 966 761 963 q 717 971 731 969 q 638 974 686 975 q 557 972 589 972 l 264 972 q 202 973 233 972 q 142 967 171 974 q 119 959 131 964 q 99 944 107 954 q 96 939 97 943 q 92 932 94 935 q 82 904 85 918 q 78 875 79 890 q 76 807 76 844 q 76 738 76 769 l 76 233 q 76 169 76 203 q 76 104 75 136 q 81 67 78 86 q 94 32 85 47 q 124 11 106 18 q 160 3 142 4 q 223 0 192 0 q 289 0 254 0 z "},"Д":{"ha":1174,"x_min":-35,"x_max":1231,"o":"m 1229 93 l 1229 -99 q 1228 -142 1229 -121 q 1218 -183 1226 -164 q 1216 -190 1217 -186 q 1213 -197 1215 -194 l 1203 -206 q 1197 -212 1200 -208 q 1189 -219 1193 -217 q 1182 -222 1186 -221 q 1175 -225 1178 -224 q 1138 -233 1157 -231 q 1100 -235 1119 -235 q 1045 -235 1079 -235 q 977 -235 1011 -236 q 922 -232 943 -235 q 893 -228 908 -231 q 863 -225 878 -226 q 817 -219 840 -222 q 774 -207 793 -217 q 731 -162 744 -192 q 707 -106 718 -133 q 698 -85 703 -94 q 686 -67 693 -76 q 679 -57 683 -61 q 674 -53 678 -54 q 667 -51 669 -53 q 646 -44 657 -46 q 624 -40 635 -42 q 589 -40 607 -39 q 554 -44 571 -40 q 545 -46 550 -46 q 536 -49 540 -46 q 530 -52 533 -50 q 524 -56 526 -54 q 517 -59 521 -57 q 511 -64 514 -61 q 508 -69 510 -65 q 506 -75 507 -72 l 497 -90 q 494 -119 493 -104 q 492 -149 494 -135 q 478 -191 489 -171 q 447 -222 468 -211 q 422 -230 436 -228 q 397 -233 408 -232 q 342 -235 369 -236 q 286 -235 314 -235 q 234 -234 260 -235 q 182 -232 208 -233 q 147 -226 164 -229 q 110 -222 129 -224 q 57 -214 83 -219 q 11 -187 31 -208 q -1 -169 4 -181 q -11 -149 -7 -158 q -33 -47 -31 -103 q -35 1 -35 -32 q -35 72 -35 33 q -34 142 -35 110 q -33 190 -33 175 q -33 228 -33 210 q -32 265 -33 247 q -28 288 -31 276 q -22 308 -26 299 q 19 349 -8 336 q 68 383 47 361 q 90 415 82 397 q 104 451 99 433 q 117 503 113 472 q 123 565 121 535 q 126 617 125 596 q 128 669 128 632 q 128 749 128 706 q 128 830 128 793 q 128 882 128 867 q 131 944 128 911 q 157 997 133 976 q 165 1003 160 1000 q 174 1007 169 1006 q 215 1022 193 1017 q 257 1029 236 1026 q 326 1037 289 1036 q 394 1038 364 1038 l 864 1038 q 915 1038 889 1038 q 964 1035 940 1038 q 990 1031 976 1033 q 1013 1022 1003 1029 q 1036 1001 1026 1014 q 1056 978 1046 989 q 1089 945 1071 961 q 1117 910 1107 929 q 1126 874 1125 893 q 1129 838 1128 856 l 1129 522 q 1129 451 1129 492 q 1135 378 1129 410 q 1147 334 1139 356 q 1169 294 1154 313 q 1192 273 1179 283 q 1213 250 1204 263 q 1222 228 1219 240 q 1226 204 1225 215 q 1230 151 1231 178 q 1229 93 1229 124 m 940 -194 l 1011 -194 q 1038 -194 1025 -194 q 1064 -190 1051 -193 q 1089 -182 1076 -187 q 1110 -167 1101 -176 q 1115 -160 1113 -164 q 1118 -154 1117 -157 q 1131 -108 1129 -133 q 1132 -60 1132 -83 l 1132 203 q 1131 224 1131 214 q 1128 244 1131 235 q 1094 296 1119 278 q 1069 311 1083 304 q 1046 331 1054 318 q 1037 356 1039 342 q 1033 382 1035 369 q 1031 439 1031 410 q 1032 497 1032 468 l 1032 815 q 1032 860 1032 838 q 1029 904 1032 882 q 1024 926 1028 915 q 1011 947 1019 938 q 989 962 1001 957 q 964 968 976 967 q 936 972 950 971 q 907 972 922 972 l 485 972 q 429 973 464 972 q 360 974 394 974 q 304 972 325 974 q 282 969 293 971 q 260 964 271 968 q 253 963 257 963 q 246 960 249 963 q 238 954 242 958 q 232 947 235 950 q 228 944 231 946 q 224 939 225 942 q 221 932 222 936 q 218 925 219 928 q 211 894 213 910 q 210 863 210 879 l 210 708 q 210 647 210 688 q 208 566 210 607 q 203 504 207 525 q 197 450 201 478 q 183 396 192 422 q 165 354 176 374 q 133 322 153 335 q 94 301 115 310 q 60 272 72 292 q 57 263 58 268 q 54 254 56 258 q 49 210 49 233 q 49 167 49 188 l 49 -64 q 49 -110 49 -86 q 60 -154 50 -135 q 64 -161 63 -157 q 67 -168 65 -165 q 73 -172 69 -171 q 79 -176 76 -174 l 92 -186 q 116 -192 103 -190 q 140 -193 129 -193 q 185 -194 163 -194 q 229 -194 207 -194 q 269 -194 249 -194 q 310 -193 290 -194 q 348 -186 329 -192 q 378 -165 367 -181 q 385 -150 383 -158 q 395 -108 394 -131 q 399 -62 396 -85 q 401 -47 399 -54 q 406 -33 404 -40 q 408 -28 407 -31 q 411 -24 410 -25 q 419 -17 413 -19 q 426 -10 422 -14 q 435 -6 431 -7 q 449 -2 440 -3 q 464 -1 458 -1 q 501 1 482 1 q 538 0 519 0 l 667 0 q 706 -1 686 0 q 743 -8 725 -1 q 750 -10 746 -10 q 757 -14 754 -11 q 764 -24 761 -18 q 775 -36 772 -32 q 778 -45 778 -40 q 781 -54 779 -50 q 787 -97 786 -75 q 793 -139 788 -118 l 797 -153 q 836 -182 811 -174 q 890 -192 861 -190 q 940 -194 918 -194 m 685 536 l 685 403 q 683 375 685 389 q 676 347 682 361 q 674 340 675 344 q 669 333 672 336 q 665 328 668 331 q 658 324 661 326 q 653 319 657 322 q 647 315 650 317 q 640 313 644 314 q 632 311 635 313 q 601 307 617 307 q 569 308 586 307 q 544 319 556 313 q 540 324 543 322 q 533 326 536 325 q 532 331 532 329 q 531 333 532 332 q 526 344 529 339 q 524 356 524 350 q 523 363 522 358 q 524 371 524 367 q 526 397 524 385 q 529 424 528 410 q 536 481 533 451 q 540 538 539 510 q 542 576 542 557 q 547 613 543 594 q 549 622 549 617 q 551 631 550 628 q 569 654 557 644 q 576 657 572 657 q 583 658 581 657 q 638 661 610 669 q 647 659 642 660 q 656 656 651 658 q 663 646 660 651 q 670 640 665 643 q 676 632 675 636 l 681 614 q 685 576 685 596 q 685 536 685 557 z "},"Е":{"ha":926,"x_min":15,"x_max":983,"o":"m 982 65 q 980 37 981 51 q 972 11 979 22 l 963 -1 q 958 -6 961 -3 q 953 -12 956 -10 q 940 -19 949 -17 q 906 -30 924 -28 q 869 -39 888 -32 q 856 -44 863 -40 q 842 -51 849 -49 q 816 -67 828 -58 q 789 -81 804 -75 q 751 -87 771 -86 q 711 -89 731 -89 l 275 -89 q 203 -90 244 -89 q 131 -89 163 -90 q 90 -84 111 -87 q 53 -67 69 -81 q 31 -35 39 -54 q 21 3 24 -15 q 16 56 17 24 q 16 122 15 89 q 17 175 17 154 l 17 767 q 17 822 17 794 q 21 875 17 849 q 33 936 24 903 q 64 988 42 969 q 97 1003 78 999 q 132 1010 115 1008 q 189 1017 160 1014 q 247 1019 218 1019 q 303 1019 260 1019 q 404 1019 346 1019 q 520 1019 463 1019 q 621 1019 578 1019 q 676 1019 664 1019 l 817 1019 q 869 1013 843 1018 q 914 989 894 1008 q 927 972 921 982 q 939 953 933 963 q 956 919 949 936 q 967 883 963 903 q 971 836 971 861 q 971 788 971 811 q 970 754 971 771 q 964 721 969 738 q 962 713 963 718 q 958 706 961 708 q 949 692 956 700 q 936 682 942 685 q 922 675 931 678 q 906 669 913 672 q 897 667 901 668 q 889 663 893 665 q 885 661 888 661 q 882 660 883 661 q 883 656 881 658 l 888 640 q 901 607 892 622 q 918 575 911 592 q 930 547 925 561 q 938 517 935 532 q 940 483 940 500 q 940 450 940 467 q 940 424 940 438 q 938 399 940 411 q 926 365 935 381 q 901 340 917 349 q 890 333 896 336 q 881 324 885 331 q 875 317 875 318 q 882 315 875 315 q 893 313 888 314 q 903 310 899 313 q 926 291 917 303 q 943 267 936 279 q 964 227 954 249 q 978 183 974 206 q 983 127 983 157 q 982 65 982 97 m 76 817 l 76 239 q 76 167 76 208 q 78 94 76 126 q 82 65 79 79 q 93 38 85 51 q 98 32 96 36 q 101 25 100 28 q 108 22 104 24 q 114 17 111 19 q 120 13 117 15 q 128 8 124 10 q 154 2 140 3 q 182 0 168 1 q 235 -1 203 -1 q 299 -1 267 -1 q 353 0 332 0 l 722 0 q 771 0 746 0 q 818 7 796 0 q 840 17 829 11 q 858 33 851 24 q 868 56 865 43 q 872 79 871 68 q 876 129 875 103 q 874 179 876 156 q 865 223 872 201 q 839 257 858 244 q 832 260 836 260 q 825 263 828 261 q 782 270 804 269 q 738 269 760 271 l 540 269 q 489 270 517 269 q 442 285 461 271 q 435 290 439 288 q 428 294 431 293 q 426 306 426 299 q 424 317 425 313 q 422 325 421 322 q 426 331 422 326 q 433 341 429 335 q 442 350 438 347 q 456 353 447 353 q 485 358 471 357 q 513 358 499 358 l 706 358 q 743 358 725 358 q 779 363 761 358 q 789 365 783 364 q 797 368 794 367 q 803 372 800 369 q 807 375 806 374 q 815 381 810 378 q 821 389 819 385 q 824 397 824 392 q 825 404 824 401 q 831 426 829 415 q 833 449 832 438 q 835 499 835 474 q 831 550 835 525 q 829 559 829 554 q 826 568 829 564 q 822 576 825 572 q 817 585 819 581 q 814 590 815 588 q 810 594 813 593 q 803 599 807 597 q 796 601 799 600 q 767 610 782 608 q 738 613 753 611 q 664 613 707 614 q 589 613 621 613 l 504 613 q 479 613 493 613 q 454 618 465 614 q 445 623 450 619 q 436 629 440 626 q 433 631 435 631 q 429 633 431 632 q 427 642 428 636 q 425 651 426 649 q 422 663 422 657 q 426 669 422 665 q 432 680 429 674 q 438 688 435 686 q 447 692 440 690 q 457 696 453 694 q 478 701 467 700 q 501 701 490 701 l 753 701 q 787 703 768 701 q 819 711 806 706 q 826 715 822 713 q 832 719 829 718 q 838 724 835 722 q 843 726 842 725 q 854 747 850 735 q 860 768 858 758 q 864 808 864 788 q 864 849 864 829 q 863 882 864 865 q 857 915 863 899 q 854 929 857 921 q 810 967 840 956 q 799 968 804 968 q 788 969 793 968 q 754 972 771 972 q 721 972 738 972 l 251 972 q 201 973 226 972 q 151 969 175 974 q 128 965 140 968 q 106 953 115 961 q 92 936 97 947 q 83 915 86 925 q 77 868 78 893 q 76 817 76 843 z "},"Ё":{"ha":926,"x_min":15,"x_max":983,"o":"m 982 65 q 980 37 981 51 q 972 11 979 22 l 963 -1 q 958 -6 961 -3 q 953 -12 956 -10 q 940 -19 949 -17 q 906 -30 924 -28 q 869 -39 888 -32 q 856 -44 863 -40 q 842 -51 849 -49 q 816 -67 828 -58 q 789 -81 804 -75 q 751 -87 771 -86 q 711 -89 731 -89 l 275 -89 q 203 -90 244 -89 q 131 -89 163 -90 q 90 -84 111 -87 q 53 -67 69 -81 q 31 -35 39 -54 q 21 3 24 -15 q 16 56 17 24 q 16 122 15 89 q 17 175 17 154 l 17 767 q 17 822 17 794 q 21 875 17 849 q 33 936 24 903 q 64 988 42 969 q 97 1003 78 999 q 132 1010 115 1008 q 189 1017 160 1014 q 247 1019 218 1019 q 303 1019 260 1019 q 404 1019 346 1019 q 520 1019 463 1019 q 621 1019 578 1019 q 676 1019 664 1019 l 817 1019 q 869 1013 843 1018 q 914 989 894 1008 q 927 972 921 982 q 939 953 933 963 q 956 919 949 936 q 967 883 963 903 q 971 836 971 861 q 971 788 971 811 q 970 754 971 771 q 964 721 969 738 q 962 713 963 718 q 958 706 961 708 q 949 692 956 700 q 936 682 942 685 q 922 675 931 678 q 906 669 913 672 q 897 667 901 668 q 889 663 893 665 q 885 661 888 661 q 882 660 883 661 q 883 656 881 658 l 888 640 q 901 607 892 622 q 918 575 911 592 q 930 547 925 561 q 938 517 935 532 q 940 483 940 500 q 940 450 940 467 q 940 424 940 438 q 938 399 940 411 q 926 365 935 381 q 901 340 917 349 q 890 333 896 336 q 881 324 885 331 q 875 317 875 318 q 882 315 875 315 q 893 313 888 314 q 903 310 899 313 q 926 291 917 303 q 943 267 936 279 q 964 227 954 249 q 978 183 974 206 q 983 127 983 157 q 982 65 982 97 m 76 817 l 76 239 q 76 167 76 208 q 78 94 76 126 q 82 65 79 79 q 93 38 85 51 q 98 32 96 36 q 101 25 100 28 q 108 22 104 24 q 114 17 111 19 q 120 13 117 15 q 128 8 124 10 q 154 2 140 3 q 182 0 168 1 q 235 -1 203 -1 q 299 -1 267 -1 q 353 0 332 0 l 722 0 q 771 0 746 0 q 818 7 796 0 q 840 17 829 11 q 858 33 851 24 q 868 56 865 43 q 872 79 871 68 q 876 129 875 103 q 874 179 876 156 q 865 223 872 201 q 839 257 858 244 q 832 260 836 260 q 825 263 828 261 q 782 270 804 269 q 738 269 760 271 l 540 269 q 489 270 517 269 q 442 285 461 271 q 435 290 439 288 q 428 294 431 293 q 426 306 426 299 q 424 317 425 313 q 422 325 421 322 q 426 331 422 326 q 433 341 429 335 q 442 350 438 347 q 456 353 447 353 q 485 358 471 357 q 513 358 499 358 l 706 358 q 743 358 725 358 q 779 363 761 358 q 789 365 783 364 q 797 368 794 367 q 803 372 800 369 q 807 375 806 374 q 815 381 810 378 q 821 389 819 385 q 824 397 824 392 q 825 404 824 401 q 831 426 829 415 q 833 449 832 438 q 835 499 835 474 q 831 550 835 525 q 829 559 829 554 q 826 568 829 564 q 822 576 825 572 q 817 585 819 581 q 814 590 815 588 q 810 594 813 593 q 803 599 807 597 q 796 601 799 600 q 767 610 782 608 q 738 613 753 611 q 664 613 707 614 q 589 613 621 613 l 504 613 q 479 613 493 613 q 454 618 465 614 q 445 623 450 619 q 436 629 440 626 q 433 631 435 631 q 429 633 431 632 q 427 642 428 636 q 425 651 426 649 q 422 663 422 657 q 426 669 422 665 q 432 680 429 674 q 438 688 435 686 q 447 692 440 690 q 457 696 453 694 q 478 701 467 700 q 501 701 490 701 l 753 701 q 787 703 768 701 q 819 711 806 706 q 826 715 822 713 q 832 719 829 718 q 838 724 835 722 q 843 726 842 725 q 854 747 850 735 q 860 768 858 758 q 864 808 864 788 q 864 849 864 829 q 863 882 864 865 q 857 915 863 899 q 854 929 857 921 q 810 967 840 956 q 799 968 804 968 q 788 969 793 968 q 754 972 771 972 q 721 972 738 972 l 251 972 q 201 973 226 972 q 151 969 175 974 q 128 965 140 968 q 106 953 115 961 q 92 936 97 947 q 83 915 86 925 q 77 868 78 893 q 76 817 76 843 m 800 1301 q 832 1265 824 1289 q 840 1213 840 1240 q 840 1163 840 1186 l 839 1160 q 833 1101 838 1132 q 806 1050 828 1071 q 785 1036 797 1042 q 763 1026 774 1031 q 705 1016 736 1017 q 644 1015 674 1015 q 608 1019 626 1017 q 574 1031 589 1022 q 524 1090 535 1050 q 513 1168 513 1129 q 513 1186 513 1178 q 515 1204 514 1194 q 515 1213 515 1207 q 517 1219 515 1218 q 523 1224 519 1222 q 528 1226 526 1225 q 528 1228 528 1226 q 531 1229 529 1229 q 533 1226 533 1228 q 533 1221 532 1224 q 536 1210 535 1215 q 538 1197 538 1204 q 540 1162 539 1179 q 547 1128 542 1144 q 549 1121 549 1125 q 551 1114 550 1117 q 592 1084 565 1093 q 642 1079 618 1075 q 657 1082 650 1082 q 660 1083 658 1083 q 664 1083 663 1082 q 667 1088 667 1086 q 668 1092 667 1090 q 673 1101 669 1094 q 676 1110 676 1107 q 672 1120 676 1114 q 665 1131 668 1126 q 651 1150 660 1142 q 635 1168 642 1158 q 611 1194 624 1182 q 588 1221 599 1207 l 572 1242 q 567 1250 567 1247 q 571 1257 567 1253 q 573 1264 571 1260 q 576 1268 575 1268 q 581 1267 578 1269 q 586 1263 585 1264 q 594 1258 590 1261 q 603 1253 599 1256 q 611 1245 607 1250 q 618 1238 615 1240 q 647 1206 633 1222 q 675 1174 661 1190 q 691 1156 683 1165 q 708 1140 699 1147 q 717 1133 713 1138 q 726 1125 721 1128 q 735 1124 729 1124 q 744 1124 740 1125 q 751 1123 747 1124 q 756 1124 754 1122 q 760 1128 758 1124 q 763 1133 761 1132 q 768 1140 765 1136 q 772 1149 771 1144 q 774 1158 774 1153 q 774 1168 774 1164 q 776 1209 776 1188 q 771 1249 775 1231 q 769 1259 769 1254 q 767 1268 769 1264 q 762 1276 765 1272 q 756 1285 758 1281 q 749 1294 753 1290 l 739 1299 q 711 1308 725 1307 q 693 1311 700 1311 q 688 1313 690 1313 q 685 1313 686 1314 q 683 1314 683 1313 q 692 1315 686 1315 q 699 1314 697 1314 l 736 1314 q 769 1310 751 1313 q 800 1301 786 1308 m 499 1279 q 502 1270 501 1275 q 504 1261 503 1265 q 509 1216 510 1239 q 508 1171 508 1193 l 508 1168 q 504 1116 507 1142 q 489 1067 501 1090 q 485 1060 488 1064 q 481 1053 483 1056 q 449 1031 468 1039 q 411 1019 431 1024 q 374 1016 393 1017 q 336 1015 356 1015 q 293 1016 315 1015 q 251 1024 271 1017 q 204 1060 222 1035 q 183 1122 185 1088 q 181 1189 181 1157 q 185 1222 181 1206 q 185 1228 185 1224 q 186 1235 185 1233 q 191 1235 189 1236 q 194 1233 193 1233 q 199 1233 197 1232 q 203 1231 201 1233 q 204 1222 204 1229 q 206 1213 204 1215 q 208 1170 208 1192 q 214 1128 208 1149 q 216 1119 215 1124 q 218 1113 217 1115 q 224 1107 221 1110 q 228 1101 226 1104 q 239 1090 232 1094 q 246 1088 242 1089 q 253 1085 250 1086 q 304 1078 279 1076 q 315 1079 308 1079 q 326 1081 322 1079 q 333 1089 329 1083 q 340 1099 338 1094 q 344 1104 344 1103 q 342 1111 344 1104 l 333 1129 q 324 1145 331 1138 q 311 1160 317 1153 q 287 1185 299 1172 q 264 1213 275 1199 q 246 1239 254 1224 q 242 1244 244 1240 q 240 1249 239 1249 q 245 1251 240 1250 q 251 1253 250 1253 q 258 1255 254 1253 q 263 1257 261 1257 q 271 1249 268 1254 q 293 1229 285 1240 l 353 1164 q 368 1146 360 1156 q 386 1129 376 1136 q 396 1126 390 1128 q 406 1122 401 1125 q 410 1119 408 1121 q 414 1119 413 1118 q 419 1124 415 1119 q 428 1128 422 1126 q 436 1133 435 1131 q 438 1140 438 1136 q 439 1144 438 1143 l 443 1182 q 443 1223 443 1201 q 436 1263 443 1244 q 433 1272 435 1267 q 429 1282 432 1278 q 421 1290 426 1286 q 411 1297 415 1293 q 381 1310 399 1308 q 347 1313 363 1311 l 318 1313 q 325 1314 318 1314 l 356 1314 q 396 1315 375 1314 q 436 1313 417 1315 q 459 1309 447 1311 q 479 1301 471 1307 q 490 1291 483 1299 q 499 1279 497 1283 z "},"Ж":{"ha":1578,"x_min":-76,"x_max":1597,"o":"m 1543 -79 l 1519 -87 q 1472 -92 1497 -93 q 1424 -92 1447 -92 l 1304 -92 q 1249 -87 1278 -90 q 1197 -69 1221 -83 q 1166 -38 1179 -57 q 1138 -3 1153 -19 q 1106 30 1124 15 q 1072 58 1089 44 q 1056 75 1064 67 q 1039 90 1049 83 q 1033 97 1038 93 q 1026 100 1029 100 q 1018 94 1024 100 q 1013 92 1017 93 q 1008 89 1010 90 q 1008 81 1007 86 q 1007 74 1008 76 q 1006 55 1006 64 q 1006 36 1006 46 q 992 -11 1004 15 q 960 -59 979 -37 q 919 -87 940 -81 q 881 -92 901 -92 q 842 -92 861 -92 q 786 -92 814 -92 q 731 -92 758 -93 q 692 -87 711 -90 q 657 -69 672 -83 q 639 -44 646 -58 q 625 -18 632 -31 q 588 18 611 3 q 540 36 565 33 q 530 39 536 38 q 519 39 524 40 q 513 35 517 38 q 506 31 508 33 q 480 6 490 21 q 458 -24 469 -10 q 438 -48 449 -36 q 417 -69 428 -60 q 390 -82 404 -78 q 360 -89 375 -86 q 323 -92 342 -92 q 285 -92 304 -92 l 163 -92 q 122 -92 143 -92 q 81 -87 100 -92 l 64 -83 q 60 -80 63 -82 q 56 -76 58 -78 q 49 -71 53 -74 q 42 -65 44 -68 q 26 -40 32 -54 q 11 -12 21 -25 q 4 -4 8 -8 q -4 4 0 0 q -24 21 -12 14 q -47 35 -36 28 q -60 42 -51 36 l -68 56 q -72 63 -69 58 q -76 69 -75 67 q -75 76 -76 75 q -75 89 -75 83 q -74 100 -75 94 q -65 122 -71 111 q -53 142 -58 132 l -17 203 q 23 264 3 224 q 63 344 43 304 q 103 404 83 383 q 122 437 113 421 q 142 469 132 453 q 153 491 147 481 q 163 511 158 501 q 167 527 165 518 q 169 542 169 536 q 156 591 171 567 q 129 636 142 615 q 97 683 114 651 q 60 751 79 715 q 24 819 42 788 q -8 867 7 851 q -28 899 -18 882 q -44 932 -37 915 q -49 943 -46 938 q -54 954 -53 949 q -53 965 -54 960 q -50 976 -51 971 q -49 985 -50 982 q -43 989 -49 986 q -35 997 -39 993 q -26 1004 -31 1001 q -17 1008 -22 1007 q -8 1010 -12 1008 q 34 1018 13 1017 q 76 1021 56 1019 q 137 1022 97 1022 q 216 1022 176 1022 q 276 1021 256 1022 q 332 1018 303 1019 q 385 1004 361 1017 q 426 966 408 990 q 460 921 443 942 q 471 910 465 915 q 482 900 476 906 q 485 896 482 899 q 490 893 489 893 q 497 897 493 893 q 503 903 501 901 q 508 906 506 904 q 513 910 511 908 q 515 918 515 913 q 515 928 515 924 q 520 948 518 938 q 526 968 522 958 q 558 999 538 988 q 600 1015 578 1011 q 641 1020 619 1019 q 682 1021 663 1021 l 789 1021 q 845 1021 817 1021 q 899 1010 874 1021 q 928 990 915 1003 q 954 965 940 978 l 967 951 q 975 949 971 950 q 983 946 979 949 q 990 944 986 946 q 994 942 993 942 q 1000 944 997 942 q 1004 946 1003 946 q 1013 950 1008 949 q 1022 953 1018 951 q 1031 960 1026 956 q 1039 968 1035 965 q 1065 990 1051 979 q 1094 1006 1079 1000 q 1147 1018 1115 1015 q 1209 1021 1178 1021 q 1261 1021 1240 1021 l 1397 1021 q 1440 1020 1418 1021 q 1481 1013 1463 1019 q 1515 991 1500 1006 q 1540 961 1529 976 q 1553 945 1547 954 q 1564 926 1560 936 q 1574 897 1571 913 l 1572 882 q 1556 831 1571 856 q 1526 782 1542 806 q 1490 724 1508 761 q 1452 650 1471 688 q 1414 592 1433 613 l 1376 529 q 1365 509 1371 519 q 1357 488 1360 499 q 1365 422 1347 457 q 1399 357 1382 386 q 1434 306 1414 342 q 1476 228 1454 269 q 1517 150 1497 186 q 1553 99 1538 114 q 1581 49 1567 75 q 1596 -4 1596 24 q 1597 -11 1596 -7 q 1596 -18 1597 -15 q 1587 -41 1594 -31 q 1571 -60 1579 -51 q 1543 -79 1563 -69 m 1494 156 q 1460 204 1479 171 q 1422 277 1442 238 q 1384 350 1403 317 q 1350 399 1365 383 q 1316 469 1332 431 q 1311 538 1300 507 q 1319 560 1314 549 q 1331 581 1325 571 q 1369 646 1347 611 q 1406 702 1388 667 q 1442 773 1424 738 q 1478 829 1460 808 q 1500 867 1489 847 q 1514 907 1511 886 q 1517 917 1515 911 q 1517 925 1518 922 q 1513 933 1515 929 q 1510 940 1511 938 q 1508 947 1508 943 q 1504 951 1507 950 q 1500 955 1503 954 q 1494 957 1497 956 q 1464 968 1482 967 q 1419 972 1442 972 q 1372 972 1396 972 l 1261 972 q 1208 966 1235 971 q 1160 943 1182 961 q 1131 910 1143 929 q 1108 872 1119 892 q 1074 813 1090 843 q 1040 754 1057 783 q 1024 724 1032 740 q 1003 694 1015 707 q 997 688 1001 693 q 990 682 993 683 q 985 681 989 681 q 979 682 982 682 q 973 681 978 682 q 967 682 968 681 q 965 688 965 683 q 963 693 964 692 q 960 701 961 697 q 957 708 958 706 q 956 723 956 715 q 956 736 956 731 q 956 807 954 768 q 956 876 957 846 q 952 906 954 892 q 943 933 950 919 q 940 940 942 936 q 936 946 939 944 q 930 951 933 949 q 924 954 926 953 q 917 959 921 957 q 910 963 914 961 q 887 969 900 968 q 863 971 874 971 q 789 974 832 974 q 714 971 746 974 q 687 968 700 971 q 661 958 674 965 q 654 955 658 957 q 647 950 650 953 q 644 945 646 949 q 639 939 642 942 q 624 886 626 917 q 622 824 622 856 q 622 761 622 793 q 622 733 622 747 q 617 706 621 719 q 616 699 617 704 q 613 692 615 694 q 608 690 611 690 q 601 689 604 690 q 595 687 600 689 q 588 686 590 685 q 583 690 586 686 q 578 694 581 693 q 550 729 563 707 q 512 799 531 761 q 474 867 493 836 q 452 905 464 885 q 425 939 440 925 q 376 965 404 960 q 321 972 349 971 q 268 973 300 974 q 204 972 236 972 q 151 972 172 972 q 122 972 136 972 q 93 967 107 971 q 86 965 90 965 q 79 963 82 965 q 74 958 76 961 q 69 953 72 956 q 65 947 68 950 q 60 942 61 944 q 58 935 58 939 q 58 929 58 932 q 58 921 58 925 q 57 913 57 917 l 63 899 q 83 856 71 876 q 107 817 96 836 q 148 755 128 796 q 189 673 168 714 q 229 611 210 632 q 260 560 244 588 q 274 503 276 532 q 269 479 274 492 q 260 456 265 467 q 239 418 250 436 q 217 381 228 400 q 184 333 201 365 q 148 265 167 301 q 112 196 129 228 q 79 149 94 164 l 67 128 q 46 91 57 111 q 36 51 35 71 q 35 42 36 47 q 36 33 35 36 q 42 27 39 31 q 47 21 46 24 l 56 11 q 62 10 58 10 q 67 8 65 10 q 83 4 75 6 q 99 1 90 3 q 142 0 121 0 q 185 0 163 0 l 303 0 q 357 6 331 1 q 406 29 383 11 q 438 69 425 46 q 464 114 451 92 q 506 191 485 146 q 549 267 526 236 q 557 280 553 274 q 567 292 561 286 q 573 297 569 294 q 579 300 576 299 q 586 305 582 301 q 592 308 590 308 q 599 304 594 308 q 604 299 603 300 q 610 295 607 297 q 615 290 614 293 q 617 285 617 289 q 618 279 617 282 l 622 249 l 622 126 q 622 89 622 108 q 628 53 622 69 q 634 38 631 47 q 642 25 638 29 q 646 22 643 24 q 650 18 649 21 q 658 13 654 17 q 665 8 661 10 q 674 6 669 7 q 683 4 679 6 q 735 -1 708 -1 q 788 0 763 0 l 832 0 q 868 0 849 0 q 903 6 888 0 q 931 19 919 8 q 933 24 932 21 q 936 29 935 28 q 942 38 939 33 q 947 46 946 42 q 950 57 950 51 q 951 68 950 63 q 955 99 954 83 q 956 128 956 114 l 956 219 q 956 244 956 232 q 957 268 956 257 q 958 276 958 271 q 960 283 958 281 q 968 292 963 289 q 973 299 969 294 q 978 304 976 304 q 986 303 981 306 q 993 300 992 300 l 1004 296 q 1010 291 1007 294 q 1014 285 1013 288 q 1031 262 1024 274 q 1044 239 1038 250 q 1084 169 1064 208 q 1124 97 1104 129 q 1152 53 1136 75 q 1190 17 1168 31 q 1241 2 1214 4 q 1293 0 1268 0 l 1453 0 q 1491 2 1471 0 q 1525 17 1511 4 q 1532 22 1528 19 q 1538 26 1536 24 q 1539 33 1539 29 q 1540 39 1539 38 q 1543 54 1543 47 q 1542 63 1543 58 q 1539 69 1540 67 q 1521 113 1533 92 q 1494 156 1508 133 z "},"З":{"ha":993,"x_min":18,"x_max":1042,"o":"m 1029 425 q 1041 354 1040 394 q 1036 282 1042 314 q 1028 234 1033 258 q 1015 185 1024 210 q 998 144 1008 164 q 974 106 988 124 q 922 64 953 85 q 859 26 890 43 q 807 -3 828 8 q 753 -22 794 -15 q 658 -33 713 -29 q 550 -36 604 -36 q 455 -33 496 -36 q 401 -28 414 -31 q 344 -13 386 -25 q 250 15 301 -1 q 156 49 199 31 q 99 82 114 67 q 55 135 75 106 q 25 194 35 164 q 20 218 22 206 q 19 243 18 231 q 34 282 22 264 q 57 317 46 300 q 78 344 65 331 q 104 365 90 357 q 165 381 132 381 q 228 383 197 381 q 249 386 239 385 q 268 390 258 388 l 279 394 q 289 406 283 397 q 295 411 292 408 q 300 415 299 414 q 303 424 303 419 q 304 432 303 428 q 311 467 311 449 q 313 503 311 485 q 317 530 314 517 q 324 557 319 543 q 331 572 326 564 q 339 588 336 579 q 340 594 340 590 q 342 601 340 599 q 344 610 343 604 q 344 617 346 615 q 340 623 344 619 q 333 628 336 626 q 330 631 332 629 q 325 635 328 633 q 318 636 322 636 q 311 638 314 636 q 287 640 299 640 q 263 640 275 640 q 193 642 232 640 q 122 647 154 644 q 96 650 108 649 q 71 656 83 651 q 56 660 63 656 q 52 663 54 661 q 47 667 50 665 q 40 673 44 669 q 33 681 36 676 q 32 687 32 683 q 31 692 32 690 q 28 700 29 696 q 26 708 26 704 q 27 724 25 715 q 31 738 29 732 q 61 803 39 769 q 104 867 83 838 q 171 937 133 899 q 239 999 208 975 q 299 1028 260 1017 q 376 1047 338 1039 q 435 1057 414 1054 q 496 1063 456 1061 q 576 1062 536 1064 q 636 1053 615 1060 q 694 1041 665 1049 q 750 1024 722 1033 q 803 1001 771 1014 q 867 974 835 989 q 919 938 899 958 q 960 888 940 918 q 994 829 979 858 q 1013 779 1008 800 q 1014 718 1017 749 q 1004 657 1011 688 q 997 623 1001 640 q 989 589 993 606 q 984 563 986 576 q 983 536 982 550 q 1003 480 986 507 q 1029 425 1019 453 m 950 275 q 950 315 951 294 q 943 353 949 335 q 904 438 933 397 q 885 460 896 449 q 867 486 874 472 q 865 493 865 489 q 863 500 864 497 q 860 507 861 503 q 858 514 858 511 q 860 522 858 517 q 863 529 861 526 q 879 564 868 549 q 899 596 890 579 q 922 673 918 628 q 917 749 926 718 q 886 790 908 764 q 836 844 864 815 q 783 898 808 874 q 742 936 757 922 q 697 958 729 949 q 625 973 665 967 q 544 982 585 979 q 471 985 503 985 q 426 982 439 985 q 368 974 406 979 q 292 958 331 968 q 233 933 254 949 q 181 886 213 917 q 121 824 150 856 q 79 772 92 793 q 72 749 76 763 q 69 725 68 736 q 71 717 69 721 q 74 710 72 713 q 76 703 75 707 q 78 696 76 699 q 85 689 81 692 q 92 683 89 686 q 97 679 94 682 q 100 675 99 676 q 110 673 104 674 q 119 671 115 672 q 160 665 139 665 q 201 665 182 665 l 290 665 q 330 667 310 665 q 368 674 350 668 q 410 690 390 681 q 453 706 431 700 q 490 709 472 710 q 526 700 508 708 q 533 697 529 699 q 540 693 538 696 q 544 688 543 692 q 546 682 544 685 q 551 675 549 679 q 554 668 554 671 q 551 656 554 661 q 550 648 550 653 q 547 640 550 643 q 544 637 546 639 q 539 632 542 635 q 515 618 526 621 q 472 610 493 611 q 428 606 450 608 q 406 600 418 604 q 383 589 393 596 q 374 576 379 585 q 369 570 372 574 q 365 564 367 567 q 363 556 364 561 q 361 549 363 551 q 356 517 357 533 q 354 486 354 501 q 354 466 354 476 q 356 444 354 456 q 358 426 357 436 q 364 410 360 417 q 369 400 367 406 q 375 390 372 394 q 381 385 378 388 q 388 381 385 383 q 394 376 390 379 q 400 372 397 374 q 409 369 404 371 q 419 367 414 368 q 476 361 447 360 q 531 353 504 363 q 539 350 533 351 q 547 346 544 349 q 556 339 553 344 q 564 331 560 333 q 567 328 565 329 q 569 325 568 328 q 570 316 571 322 q 571 307 569 310 q 572 302 571 306 q 571 296 572 299 q 567 290 571 294 q 559 281 563 286 q 551 272 556 275 q 529 264 542 267 q 506 260 517 261 q 456 265 485 257 q 397 283 426 272 q 347 299 368 293 q 269 305 317 306 q 189 304 221 304 q 143 304 167 304 q 100 294 119 304 q 85 289 89 292 q 79 283 82 288 q 74 275 76 278 q 70 272 72 274 q 67 267 68 269 q 65 260 65 264 q 64 254 65 257 q 63 246 64 250 q 63 238 63 242 q 66 217 63 228 q 74 197 69 206 q 112 134 89 167 q 165 79 135 101 q 211 53 178 67 q 288 28 244 40 q 373 8 331 17 q 449 -7 415 -1 q 494 -12 482 -12 q 549 -11 515 -12 q 618 -5 583 -10 q 675 7 653 0 q 728 44 690 18 q 808 103 765 71 q 888 165 851 136 q 938 210 924 194 q 950 275 949 243 z "},"И":{"ha":1125,"x_min":-21,"x_max":1043,"o":"m 440 692 q 483 753 460 713 q 530 835 506 794 q 575 897 554 876 q 613 953 593 925 q 664 994 633 981 q 721 1006 690 1006 q 779 1007 751 1007 q 846 1008 811 1007 q 911 1004 881 1008 q 943 996 926 1003 q 949 994 944 996 q 953 992 953 992 q 949 988 953 990 q 944 983 944 985 q 940 979 943 982 q 935 975 938 976 q 921 973 929 974 q 906 972 913 972 q 852 972 885 971 q 786 968 819 972 q 732 946 753 964 q 687 900 706 928 q 650 844 668 872 q 610 791 631 824 q 571 725 590 758 q 531 671 551 692 q 510 638 521 654 q 486 607 499 622 q 479 595 483 601 q 469 585 475 589 q 460 581 465 583 q 449 576 454 579 q 445 576 447 576 q 440 576 443 575 q 433 583 438 579 q 426 592 428 588 q 425 603 425 596 q 425 614 425 610 q 440 692 421 651 m 988 -89 q 926 -94 957 -94 q 863 -94 894 -94 q 795 -94 832 -94 q 726 -83 758 -94 q 674 -53 700 -74 q 632 -10 649 -32 q 608 44 613 14 q 606 78 606 61 q 604 113 606 96 q 603 123 603 117 q 601 135 604 129 q 598 142 600 138 q 593 149 596 146 q 590 154 592 150 q 586 158 588 158 q 580 155 585 158 q 574 150 575 151 q 556 136 564 144 q 540 118 547 128 q 488 47 514 88 q 433 -26 461 6 q 413 -51 424 -39 q 390 -72 403 -64 q 316 -94 360 -93 q 240 -94 272 -94 q 169 -95 210 -94 q 97 -82 129 -96 q 58 -59 76 -74 q 24 -29 39 -44 q -10 21 1 -6 q -18 60 -17 40 q -21 100 -19 81 l -21 786 q -20 855 -21 818 q -14 922 -19 892 q -3 958 -11 940 q 18 988 4 976 q 44 1001 29 997 q 74 1006 60 1004 q 114 1008 93 1008 q 154 1007 135 1007 q 216 1007 186 1007 q 276 1006 246 1007 q 293 1003 283 1004 q 310 1000 303 1003 q 316 997 313 999 q 322 992 319 994 l 331 985 q 333 983 335 985 q 331 982 333 982 q 325 979 328 981 q 319 976 322 978 q 294 972 308 971 q 267 972 279 972 q 210 973 239 972 q 151 969 181 974 q 116 960 133 968 q 88 935 99 953 l 83 921 q 78 892 79 907 q 76 863 76 878 l 76 233 q 76 163 76 203 q 78 92 76 124 q 81 63 78 78 q 92 35 83 49 q 96 29 94 33 q 100 22 97 25 q 118 11 107 15 q 139 4 129 7 q 183 0 161 0 q 228 0 206 0 q 271 0 250 0 q 313 1 292 0 q 352 6 332 3 q 389 19 372 10 q 429 57 413 35 q 461 100 446 79 q 519 178 490 132 q 575 256 547 225 q 613 306 594 281 q 649 356 631 332 q 659 367 653 363 q 671 378 665 372 q 675 382 672 379 q 679 385 678 385 q 682 382 682 385 q 693 372 690 376 q 700 361 700 367 q 700 349 700 356 q 701 323 701 336 q 701 297 701 310 l 701 171 q 701 135 701 153 q 701 97 700 117 q 704 69 703 83 q 711 42 706 54 q 715 35 713 39 q 719 29 718 32 q 724 24 722 28 q 729 17 726 19 l 743 11 q 772 3 757 6 q 800 0 786 1 q 881 -1 832 -1 q 960 0 929 0 q 982 2 971 1 q 1004 1 993 3 q 1013 2 1008 1 q 1021 1 1018 3 q 1030 -6 1025 0 q 1038 -15 1035 -12 q 1042 -21 1042 -19 q 1042 -27 1043 -22 q 1040 -35 1040 -32 q 1039 -43 1039 -39 q 1038 -50 1039 -47 q 1033 -58 1036 -54 q 1026 -67 1029 -62 q 1019 -76 1024 -72 q 1006 -83 1014 -81 q 988 -89 997 -86 z "},"Й":{"ha":1125,"x_min":-21,"x_max":1043,"o":"m 440 692 q 483 753 460 713 q 530 835 506 794 q 575 897 554 876 q 613 953 593 925 q 664 994 633 981 q 721 1006 690 1006 q 779 1007 751 1007 q 846 1008 811 1007 q 911 1004 881 1008 q 943 996 926 1003 q 949 994 944 996 q 953 992 953 992 q 949 988 953 990 q 944 983 944 985 q 940 979 943 982 q 935 975 938 976 q 921 973 929 974 q 906 972 913 972 q 852 972 885 971 q 786 968 819 972 q 732 946 753 964 q 687 900 706 928 q 650 844 668 872 q 610 791 631 824 q 571 725 590 758 q 531 671 551 692 q 510 638 521 654 q 486 607 499 622 q 479 595 483 601 q 469 585 475 589 q 460 581 465 583 q 449 576 454 579 q 445 576 447 576 q 440 576 443 575 q 433 583 438 579 q 426 592 428 588 q 425 603 425 596 q 425 614 425 610 q 440 692 421 651 m 988 -89 q 926 -94 957 -94 q 863 -94 894 -94 q 795 -94 832 -94 q 726 -83 758 -94 q 674 -53 700 -74 q 632 -10 649 -32 q 608 44 613 14 q 606 78 606 61 q 604 113 606 96 q 603 123 603 117 q 601 135 604 129 q 598 142 600 138 q 593 149 596 146 q 590 154 592 150 q 586 158 588 158 q 580 155 585 158 q 574 150 575 151 q 556 136 564 144 q 540 118 547 128 q 488 47 514 88 q 433 -26 461 6 q 413 -51 424 -39 q 390 -72 403 -64 q 316 -94 360 -93 q 240 -94 272 -94 q 169 -95 210 -94 q 97 -82 129 -96 q 58 -59 76 -74 q 24 -29 39 -44 q -10 21 1 -6 q -18 60 -17 40 q -21 100 -19 81 l -21 786 q -20 855 -21 818 q -14 922 -19 892 q -3 958 -11 940 q 18 988 4 976 q 44 1001 29 997 q 74 1006 60 1004 q 114 1008 93 1008 q 154 1007 135 1007 q 216 1007 186 1007 q 276 1006 246 1007 q 293 1003 283 1004 q 310 1000 303 1003 q 316 997 313 999 q 322 992 319 994 l 331 985 q 333 983 335 985 q 331 982 333 982 q 325 979 328 981 q 319 976 322 978 q 294 972 308 971 q 267 972 279 972 q 210 973 239 972 q 151 969 181 974 q 116 960 133 968 q 88 935 99 953 l 83 921 q 78 892 79 907 q 76 863 76 878 l 76 233 q 76 163 76 203 q 78 92 76 124 q 81 63 78 78 q 92 35 83 49 q 96 29 94 33 q 100 22 97 25 q 118 11 107 15 q 139 4 129 7 q 183 0 161 0 q 228 0 206 0 q 271 0 250 0 q 313 1 292 0 q 352 6 332 3 q 389 19 372 10 q 429 57 413 35 q 461 100 446 79 q 519 178 490 132 q 575 256 547 225 q 613 306 594 281 q 649 356 631 332 q 659 367 653 363 q 671 378 665 372 q 675 382 672 379 q 679 385 678 385 q 682 382 682 385 q 693 372 690 376 q 700 361 700 367 q 700 349 700 356 q 701 323 701 336 q 701 297 701 310 l 701 171 q 701 135 701 153 q 701 97 700 117 q 704 69 703 83 q 711 42 706 54 q 715 35 713 39 q 719 29 718 32 q 724 24 722 28 q 729 17 726 19 l 743 11 q 772 3 757 6 q 800 0 786 1 q 881 -1 832 -1 q 960 0 929 0 q 982 2 971 1 q 1004 1 993 3 q 1013 2 1008 1 q 1021 1 1018 3 q 1030 -6 1025 0 q 1038 -15 1035 -12 q 1042 -21 1042 -19 q 1042 -27 1043 -22 q 1040 -35 1040 -32 q 1039 -43 1039 -39 q 1038 -50 1039 -47 q 1033 -58 1036 -54 q 1026 -67 1029 -62 q 1019 -76 1024 -72 q 1006 -83 1014 -81 q 988 -89 997 -86 m 907 1138 q 892 1114 900 1125 q 875 1092 885 1103 q 845 1065 861 1076 q 811 1043 829 1053 q 761 1017 796 1028 q 685 999 726 1006 q 610 992 644 993 q 560 994 575 990 q 492 1010 529 999 q 422 1040 454 1022 q 396 1061 410 1047 q 391 1065 394 1061 q 388 1068 388 1068 q 389 1069 388 1069 q 390 1068 390 1068 q 399 1067 394 1067 q 406 1065 403 1067 q 440 1057 424 1064 q 472 1044 457 1050 q 553 1031 504 1033 q 632 1035 601 1029 q 683 1049 653 1039 q 744 1074 714 1058 q 796 1111 775 1090 q 822 1151 811 1126 q 839 1192 833 1169 q 838 1233 844 1214 q 835 1241 836 1236 q 832 1249 835 1246 q 824 1256 831 1253 q 817 1263 821 1258 q 810 1268 814 1267 q 801 1271 807 1271 q 792 1272 796 1271 q 752 1278 774 1278 q 711 1276 731 1279 q 688 1273 700 1275 q 664 1265 675 1271 q 635 1242 647 1257 q 608 1217 624 1228 q 602 1213 606 1215 q 596 1208 599 1210 q 583 1207 593 1207 q 568 1204 575 1204 q 563 1207 565 1206 q 557 1210 560 1208 q 549 1214 553 1213 q 542 1217 544 1215 q 519 1239 529 1226 q 497 1260 510 1251 q 470 1272 485 1268 q 442 1276 456 1275 q 406 1278 424 1279 q 371 1275 388 1278 q 358 1272 364 1274 q 346 1267 353 1271 q 336 1263 342 1265 q 328 1257 331 1260 q 321 1249 324 1254 q 315 1239 318 1243 q 311 1232 313 1233 l 294 1231 q 292 1238 293 1232 q 290 1246 292 1244 q 289 1253 290 1249 q 288 1261 288 1257 q 290 1281 288 1269 q 292 1293 290 1290 q 296 1299 293 1296 q 300 1303 299 1301 q 306 1311 303 1306 q 313 1319 308 1317 q 322 1324 317 1322 q 333 1329 328 1326 q 358 1338 344 1335 q 383 1342 371 1340 q 424 1345 403 1344 q 465 1343 444 1346 q 491 1342 478 1343 q 517 1336 504 1340 q 549 1315 535 1328 q 557 1307 553 1311 q 567 1300 561 1303 q 574 1298 569 1299 q 581 1296 578 1297 q 588 1293 583 1294 q 596 1292 593 1292 q 603 1296 599 1293 q 610 1300 607 1299 q 629 1312 619 1306 q 649 1324 639 1318 q 707 1340 675 1336 q 756 1345 731 1344 q 806 1343 782 1346 q 830 1340 817 1342 q 853 1333 843 1339 q 878 1309 869 1325 q 896 1278 888 1293 q 908 1255 901 1267 q 918 1232 914 1243 q 922 1185 926 1210 q 907 1138 918 1161 z "},"К":{"ha":1046,"x_min":50,"x_max":1085,"o":"m 946 -57 l 750 -57 q 687 -52 719 -57 q 631 -25 654 -47 q 614 -6 621 -17 q 600 14 607 4 q 574 62 586 38 q 546 108 561 86 q 539 120 543 113 q 531 131 535 128 q 522 133 528 133 q 511 135 515 133 l 500 138 q 499 134 499 136 q 499 129 500 132 q 496 117 497 124 q 494 103 494 110 q 494 58 494 81 q 482 15 493 35 l 472 3 q 451 -16 463 -7 q 428 -32 440 -25 q 382 -51 406 -46 q 340 -57 361 -57 q 296 -57 318 -57 l 200 -57 q 151 -56 176 -57 q 103 -42 125 -54 q 97 -37 100 -39 q 90 -33 93 -35 q 87 -27 89 -31 q 82 -21 85 -24 q 69 9 74 -7 q 63 40 65 25 q 55 97 57 61 q 52 169 53 133 q 51 225 51 204 l 51 888 q 51 931 51 908 q 56 972 50 953 q 61 987 58 979 q 68 1000 64 994 q 74 1006 71 1003 q 81 1010 78 1008 q 127 1034 101 1026 q 179 1043 153 1042 q 224 1045 201 1046 q 268 1044 246 1044 q 316 1045 292 1044 q 364 1044 340 1046 q 390 1042 376 1043 q 417 1036 404 1042 q 423 1033 419 1035 q 429 1028 426 1031 q 435 1024 432 1026 q 442 1019 439 1022 q 453 1001 449 1013 q 463 979 458 989 q 474 951 468 965 q 485 921 479 936 l 497 892 q 500 886 499 890 q 503 881 501 882 l 513 883 q 520 886 515 885 q 528 889 525 888 q 533 897 531 892 q 538 904 536 901 q 573 961 557 932 q 617 1008 589 990 q 668 1033 638 1025 q 728 1042 699 1040 q 779 1044 758 1044 l 915 1044 q 948 1044 932 1044 q 979 1040 964 1043 q 989 1039 983 1039 q 999 1038 994 1039 q 1007 1032 1003 1036 q 1014 1025 1011 1028 l 1024 1017 q 1033 1001 1029 1011 q 1038 982 1036 990 q 1053 944 1044 964 q 1060 904 1063 925 q 1054 883 1058 894 q 1044 861 1050 872 q 1029 832 1038 847 q 1011 801 1021 817 q 974 744 993 781 q 938 672 956 708 q 900 615 919 636 q 867 556 883 588 q 853 492 850 524 l 858 474 q 878 431 865 451 q 901 389 890 410 q 949 310 925 358 q 996 231 974 263 q 1028 174 1013 203 q 1057 115 1044 146 q 1075 74 1065 97 q 1083 31 1085 51 q 1084 20 1083 26 q 1082 10 1085 14 q 1080 6 1082 8 q 1075 1 1078 4 q 1063 -12 1069 -6 q 1050 -24 1057 -18 q 1030 -36 1040 -29 q 1008 -46 1019 -43 q 979 -53 994 -51 q 946 -57 964 -54 m 76 817 l 76 136 q 76 92 76 115 q 85 50 76 69 q 92 36 88 44 q 100 22 96 28 q 107 19 103 21 q 113 15 111 17 q 141 4 126 7 q 171 1 156 1 q 244 -1 203 0 q 315 0 285 -1 q 347 3 331 1 q 378 10 363 4 q 385 13 381 11 q 393 15 390 14 l 401 25 q 408 33 404 29 q 414 40 413 36 q 421 62 419 50 q 422 83 422 74 q 424 155 425 115 q 424 225 424 194 q 424 257 424 240 q 433 288 425 274 q 437 296 435 290 q 440 303 439 301 q 449 303 443 304 q 457 301 454 301 q 464 301 460 301 q 469 300 468 301 q 475 296 472 299 q 479 290 478 293 q 496 269 489 281 q 508 244 503 257 q 549 174 529 214 q 589 101 569 133 q 618 56 603 79 q 656 18 633 32 q 706 2 679 4 q 760 0 733 0 q 816 0 781 0 q 886 0 851 0 q 942 1 921 0 q 960 2 950 1 q 978 6 969 3 q 984 10 981 7 q 990 14 988 13 q 998 17 993 15 q 1004 21 1003 19 q 1008 30 1007 24 q 1010 39 1008 36 q 1013 45 1011 42 q 1014 50 1014 49 q 1011 61 1014 56 q 1007 76 1010 68 q 1000 90 1004 83 q 981 125 990 108 q 961 160 971 142 q 928 208 946 175 q 890 278 910 240 q 853 349 871 317 q 819 397 835 382 q 785 457 803 425 q 772 519 768 489 q 779 542 775 531 q 789 563 783 553 q 808 597 799 581 q 828 632 818 614 q 869 693 849 653 q 910 774 889 733 q 950 836 931 815 q 973 874 961 854 q 986 915 985 893 q 988 925 986 919 q 988 933 989 931 q 983 940 986 936 q 979 946 981 944 q 976 953 978 949 q 971 958 974 957 q 966 961 969 961 q 960 963 963 961 q 931 971 946 969 q 888 972 908 972 q 844 972 867 972 q 784 973 814 972 q 724 972 754 974 q 685 969 706 971 q 647 958 665 967 q 604 918 621 944 q 572 865 588 892 q 533 797 553 835 q 493 726 513 758 q 481 706 488 715 q 463 689 474 696 q 458 685 461 688 q 453 681 456 682 q 448 683 451 681 q 442 686 444 685 q 436 688 440 688 q 431 690 432 689 q 428 703 428 696 q 424 744 424 724 q 424 814 422 776 q 422 882 425 851 q 419 911 422 897 q 408 939 417 925 q 406 946 407 942 q 401 951 404 950 q 388 958 394 956 q 381 963 385 961 q 374 967 378 965 q 353 970 364 969 q 333 972 343 971 q 260 974 303 974 q 185 972 217 974 q 153 970 168 971 q 122 963 138 969 q 115 960 119 961 q 108 956 111 958 q 99 944 104 953 q 88 933 92 940 q 81 913 82 925 q 78 892 79 901 q 76 856 76 874 q 76 817 76 838 z "},"Л":{"ha":1129,"x_min":-42,"x_max":1161,"o":"m 1160 747 l 1160 132 q 1160 86 1160 110 q 1153 40 1160 63 q 1123 -6 1143 13 q 1081 -43 1103 -25 q 1047 -76 1063 -57 q 1007 -106 1031 -96 q 983 -112 996 -111 q 957 -114 969 -114 q 908 -115 933 -115 q 860 -115 883 -115 q 824 -115 842 -115 q 786 -114 806 -115 q 765 -111 776 -112 q 743 -104 753 -110 q 699 -45 713 -85 q 669 25 686 -6 q 653 51 663 39 q 636 78 643 64 q 618 135 622 101 q 615 177 615 156 q 615 219 615 199 q 615 232 615 226 q 613 243 614 238 q 613 248 613 246 q 613 251 614 250 q 604 250 611 253 q 597 242 599 250 q 593 228 596 233 q 574 176 585 201 q 549 128 564 151 q 502 73 528 97 q 449 24 476 49 q 426 1 438 13 q 403 -22 414 -11 q 365 -50 385 -37 q 325 -74 346 -62 q 273 -93 304 -85 q 210 -106 242 -101 q 157 -111 178 -110 q 119 -110 139 -112 q 85 -99 100 -108 q 46 -53 57 -83 q 24 3 35 -24 q 2 42 14 24 q -21 82 -10 61 q -32 110 -28 94 q -39 139 -36 125 q -42 189 -42 164 q -42 239 -42 214 q -39 278 -40 258 q -31 315 -37 297 q -3 352 -21 338 q 29 382 14 367 q 75 461 60 414 q 89 528 85 493 q 94 593 93 563 q 98 638 97 608 q 99 700 99 667 q 99 763 99 733 q 99 807 99 792 q 97 881 99 839 q 101 954 96 924 q 113 992 104 974 q 139 1021 121 1011 q 148 1024 143 1024 q 157 1026 153 1025 q 201 1034 178 1033 q 246 1035 224 1035 l 835 1035 q 872 1034 853 1035 q 908 1031 890 1033 q 967 1010 940 1025 q 1024 983 994 994 q 1076 967 1049 974 q 1125 944 1103 961 q 1138 935 1133 939 q 1153 902 1149 921 q 1158 865 1157 883 q 1160 808 1161 838 q 1160 747 1160 779 m 49 119 q 50 84 49 101 q 57 50 51 67 q 60 42 58 47 q 63 35 61 38 l 74 24 q 79 19 76 22 q 85 14 82 15 q 92 11 88 13 q 99 8 96 10 q 142 3 119 1 q 185 6 164 4 q 236 25 200 10 q 314 61 272 40 q 392 103 356 82 q 443 139 428 124 q 475 203 463 168 q 494 269 488 239 q 506 315 501 285 q 513 378 510 344 q 517 441 515 411 q 519 486 518 471 q 521 528 521 507 q 522 569 521 549 q 522 594 522 581 q 525 619 522 608 q 531 633 528 625 q 538 646 535 642 q 544 651 540 649 q 550 654 549 653 q 556 658 553 656 q 563 661 560 660 q 569 663 565 663 q 578 664 574 663 q 600 667 589 667 q 621 667 611 667 q 644 664 633 665 q 665 658 656 663 q 672 656 668 657 q 679 653 676 656 q 683 649 682 651 q 686 643 685 646 q 692 636 689 640 q 697 629 696 632 q 700 619 700 625 q 701 610 700 614 q 707 556 708 583 q 706 503 706 529 l 706 176 q 706 131 706 154 q 707 83 706 107 q 711 60 708 74 q 719 38 714 47 q 728 29 724 32 q 735 21 731 25 q 742 14 739 17 q 768 5 753 7 q 796 1 783 3 q 829 0 813 0 q 863 0 846 0 q 910 0 886 0 q 958 1 935 0 q 983 3 969 3 q 1007 10 996 4 q 1031 28 1021 17 q 1046 54 1040 40 q 1053 95 1053 74 q 1053 136 1053 117 l 1053 747 q 1054 822 1053 779 q 1050 894 1056 864 q 1047 913 1049 906 q 1042 931 1044 921 l 1038 942 q 1013 961 1026 953 q 990 968 1003 967 q 967 971 978 969 q 921 973 944 974 q 874 972 897 972 l 325 972 q 278 972 303 972 q 231 961 253 971 q 224 958 228 960 q 218 954 221 957 q 211 946 214 953 q 205 938 208 942 q 199 931 201 935 q 192 908 193 921 q 190 883 190 894 q 189 812 189 853 q 189 739 189 771 q 189 676 189 718 q 188 593 189 635 q 185 531 188 551 q 178 461 183 500 q 161 390 172 422 q 114 315 146 346 q 92 296 104 306 q 71 274 79 286 q 49 199 49 243 q 49 119 49 154 z "},"М":{"ha":1189,"x_min":-26,"x_max":1160,"o":"m 1158 883 l 1158 228 q 1158 188 1158 208 q 1154 147 1157 167 q 1140 106 1151 124 q 1136 98 1139 104 q 1132 92 1133 92 q 1129 94 1132 92 q 1122 101 1126 97 q 1115 107 1117 104 q 1114 115 1114 110 q 1114 122 1114 119 q 1113 140 1113 132 q 1113 158 1113 149 l 1113 740 q 1113 817 1113 772 q 1111 892 1114 861 q 1110 915 1111 903 q 1103 936 1108 926 q 1097 943 1101 939 q 1090 950 1093 947 q 1083 958 1088 957 q 1075 963 1081 961 q 1067 965 1069 964 q 1023 972 1046 972 q 978 972 1000 972 l 896 972 q 872 970 885 971 q 847 967 858 969 q 803 938 821 958 q 771 893 786 917 l 700 776 q 678 740 689 758 q 656 701 667 721 q 643 681 650 692 q 629 661 636 671 l 617 646 q 615 643 615 644 q 613 640 614 642 q 603 639 610 639 q 593 639 597 639 l 582 638 q 578 642 581 639 q 575 646 576 644 q 564 658 569 653 q 553 671 558 664 q 524 719 538 694 q 494 768 510 744 q 458 827 476 797 q 422 886 440 857 q 392 930 408 908 q 353 961 376 951 q 328 968 342 967 q 304 971 315 969 q 261 973 282 974 q 218 972 240 972 q 176 973 197 972 q 133 968 154 974 l 117 964 q 103 956 111 961 q 92 944 94 950 l 88 935 q 78 900 79 917 q 75 826 74 869 q 76 751 76 783 l 76 100 q 79 72 78 86 q 86 44 81 58 q 92 29 89 33 q 100 22 93 25 q 106 16 103 19 q 114 10 110 13 q 124 7 118 8 q 136 4 131 6 q 162 1 149 1 q 188 0 175 0 l 272 0 q 289 0 281 0 q 306 -1 297 0 q 313 -3 308 -3 q 319 -4 318 -3 q 328 -11 326 -7 q 335 -15 331 -12 q 340 -21 339 -18 q 337 -27 340 -22 q 332 -35 333 -32 l 328 -46 q 322 -49 326 -47 q 314 -53 317 -50 q 264 -64 289 -64 q 189 -65 233 -65 q 113 -64 144 -65 q 60 -56 86 -62 q 15 -28 35 -49 q -6 6 1 -12 q -17 43 -12 25 q -24 95 -22 64 q -26 158 -26 126 q -26 210 -26 189 l -26 858 q -26 902 -26 879 q -18 943 -25 925 q 22 988 -4 974 q 49 997 35 994 q 78 1006 64 1000 q 130 1038 106 1018 q 185 1063 154 1057 q 225 1067 204 1067 q 265 1067 246 1067 q 329 1067 296 1067 q 390 1056 363 1067 q 439 1021 417 1046 q 460 994 450 1008 q 479 964 469 979 l 532 876 q 544 858 538 868 q 560 840 551 847 q 567 838 563 839 q 574 833 571 836 l 585 828 q 591 829 588 828 q 596 832 594 831 q 605 835 600 833 q 613 838 610 836 q 622 847 617 840 q 629 857 626 853 q 639 869 635 863 q 647 882 643 876 q 673 924 660 903 q 704 963 686 946 q 756 990 728 983 q 811 1008 785 996 q 849 1034 832 1019 q 888 1056 867 1049 q 954 1067 918 1068 q 1021 1067 990 1067 q 1064 1066 1042 1067 q 1106 1058 1086 1065 q 1115 1056 1110 1057 q 1124 1053 1119 1056 l 1133 1042 q 1144 1031 1140 1038 q 1153 1008 1151 1021 q 1157 983 1156 994 q 1159 935 1160 960 q 1158 883 1158 911 m 560 171 q 524 169 542 169 q 490 163 507 168 q 483 160 488 161 q 476 157 479 160 q 465 148 471 154 q 454 138 458 142 q 442 118 447 128 q 431 99 438 108 q 427 92 429 97 q 422 86 425 88 q 414 85 421 85 q 407 88 407 86 q 406 94 406 89 q 406 100 406 99 q 403 122 404 111 q 403 142 403 132 l 403 297 q 403 320 403 308 q 406 343 403 332 q 408 351 407 346 q 410 358 408 357 q 415 359 413 360 q 418 358 417 358 q 426 359 421 358 q 435 358 432 360 q 441 352 438 357 q 446 344 444 347 q 476 300 463 324 q 510 260 490 276 q 546 242 526 247 q 583 235 565 238 q 599 234 592 235 q 615 232 607 233 q 622 231 618 231 q 628 229 626 231 q 629 222 629 228 q 631 214 629 217 q 632 209 631 213 q 632 203 633 206 q 628 199 632 201 q 621 193 624 196 q 594 178 608 183 q 560 171 579 174 m 993 -62 q 941 -65 967 -64 q 889 -65 915 -65 q 848 -65 868 -65 q 807 -62 828 -64 q 756 -50 781 -60 q 715 -18 731 -40 q 699 19 706 -1 q 690 57 693 39 q 685 102 686 79 q 683 147 683 125 q 686 208 683 179 q 699 268 689 238 q 715 303 706 285 q 738 335 725 322 q 744 340 740 338 q 749 344 747 343 q 752 347 751 346 q 754 350 753 349 q 760 349 757 350 q 765 346 764 347 q 773 345 768 346 q 779 342 778 344 q 782 335 782 340 q 783 328 782 331 q 786 306 786 317 q 786 283 786 294 l 786 128 q 787 93 786 110 q 792 61 788 76 q 794 53 793 57 q 796 46 794 49 q 840 6 810 17 q 851 3 846 4 q 863 3 857 3 q 901 0 882 0 q 940 0 921 0 l 983 0 q 1006 0 994 0 q 1029 -3 1018 0 q 1038 -4 1032 -4 q 1044 -7 1043 -4 q 1048 -12 1047 -8 q 1049 -17 1049 -15 q 1052 -23 1050 -18 q 1054 -31 1054 -28 q 1043 -40 1051 -36 q 1032 -51 1039 -47 q 1015 -58 1026 -56 q 993 -62 1004 -61 z "},"Н":{"ha":1072,"x_min":46,"x_max":1103,"o":"m 329 -65 q 261 -67 299 -68 q 192 -67 224 -67 q 151 -67 172 -67 q 111 -62 131 -67 q 101 -60 107 -61 q 92 -58 96 -60 q 60 -26 69 -47 q 49 18 50 -4 q 47 58 47 38 q 46 97 47 78 l 46 739 q 46 793 46 760 q 46 859 46 826 q 46 913 46 892 q 46 941 46 926 q 50 968 46 956 q 53 975 51 971 q 57 982 56 979 q 61 989 60 985 q 64 994 63 993 q 70 1000 67 997 q 76 1004 74 1003 q 83 1009 79 1007 q 89 1013 86 1011 q 119 1021 103 1019 q 151 1022 136 1022 l 285 1022 q 335 1021 308 1022 q 383 1013 361 1019 q 423 992 407 1006 q 456 961 439 978 q 479 942 467 951 q 501 921 492 932 q 518 897 511 910 q 526 868 525 883 q 531 828 531 849 q 531 788 531 807 q 531 765 531 776 q 536 743 532 753 q 541 732 539 739 q 546 722 543 725 q 553 717 549 719 q 560 714 557 715 q 565 710 561 713 q 569 707 568 707 q 583 711 575 707 q 591 713 586 713 q 597 715 596 714 q 602 722 600 718 q 606 729 604 726 q 610 735 608 732 q 614 743 613 739 q 617 763 617 751 q 618 783 618 774 q 617 860 618 815 q 619 936 617 906 q 623 959 621 947 q 631 981 625 971 q 650 1002 638 993 q 676 1017 663 1011 q 699 1020 688 1019 q 721 1021 710 1021 q 760 1022 740 1022 q 799 1022 779 1022 q 849 1022 824 1022 q 899 1021 874 1022 q 935 1016 917 1019 q 969 1006 953 1013 q 1008 981 990 996 q 1040 950 1025 965 q 1063 930 1051 940 q 1083 907 1075 919 q 1098 871 1094 890 q 1103 832 1101 851 l 1103 88 q 1102 54 1103 71 q 1099 21 1101 38 q 1097 13 1097 17 q 1094 6 1097 8 q 1088 -8 1093 0 q 1078 -21 1082 -17 q 1065 -28 1074 -25 q 1028 -41 1047 -37 q 989 -47 1008 -44 q 947 -56 968 -51 q 904 -64 926 -61 q 839 -67 874 -68 q 772 -67 804 -67 q 728 -67 750 -67 q 686 -62 707 -67 q 676 -60 682 -61 q 667 -57 671 -58 q 626 -17 638 -44 q 622 6 622 -6 q 619 28 621 18 q 619 103 618 60 q 617 178 619 147 q 616 201 617 189 q 611 224 615 214 q 607 230 610 226 q 601 235 604 233 q 593 247 599 243 q 586 250 592 250 q 578 250 581 250 q 567 253 572 253 q 563 249 565 251 q 557 246 560 247 q 551 242 554 244 q 544 236 547 239 q 542 230 543 235 q 539 222 540 225 q 533 201 535 213 q 531 179 532 190 q 531 113 529 149 q 529 46 532 78 q 525 17 528 32 q 513 -10 522 3 q 509 -15 511 -11 q 504 -21 507 -18 q 498 -25 503 -24 q 490 -29 493 -26 q 449 -42 471 -39 q 406 -50 428 -46 q 368 -58 388 -54 q 329 -65 349 -62 m 842 0 q 890 0 865 0 q 938 6 915 0 q 947 9 942 8 q 956 11 951 10 q 962 17 958 14 q 967 22 965 21 q 979 33 976 28 q 983 40 982 36 q 985 47 983 44 q 993 76 992 61 q 996 106 994 90 l 996 739 q 997 808 996 771 q 994 875 997 844 q 992 905 994 890 q 982 933 989 919 q 975 946 979 942 q 963 954 971 951 l 950 964 q 942 966 947 965 q 933 968 938 967 q 891 972 913 972 q 849 972 869 972 q 789 973 818 972 q 729 971 760 974 q 707 968 719 969 q 686 961 694 967 q 678 956 682 960 q 671 949 674 951 q 667 945 669 947 q 663 940 664 943 q 660 933 661 938 q 657 926 658 929 q 651 899 653 913 q 649 872 650 886 l 649 739 q 647 714 649 726 q 643 690 646 701 q 642 683 642 688 q 639 675 642 678 q 634 669 638 672 q 628 664 631 667 q 617 651 622 654 q 603 649 611 649 q 558 643 585 643 q 524 643 542 643 q 489 644 506 643 q 478 646 483 646 q 469 647 474 646 q 461 651 465 649 q 454 656 457 654 q 449 658 453 657 q 444 661 446 660 q 436 675 439 667 q 432 683 435 679 q 428 690 429 686 q 424 714 425 701 q 424 738 424 726 q 424 810 424 769 q 422 882 425 851 q 408 939 422 913 q 405 946 407 942 q 400 951 403 950 q 394 956 399 954 q 386 960 389 958 q 359 969 374 967 q 329 972 344 971 l 210 972 q 173 972 192 972 q 136 969 154 972 q 122 965 131 968 q 108 960 114 963 q 98 950 104 957 q 89 938 92 943 q 85 929 86 935 q 82 921 85 924 q 75 865 74 894 q 76 810 76 836 l 76 225 q 76 159 76 194 q 78 92 76 124 q 81 63 78 76 q 90 35 83 49 q 94 28 93 32 q 99 21 96 24 q 103 18 100 19 q 108 15 107 17 q 115 11 111 14 q 124 6 119 8 q 132 4 128 4 q 140 3 136 4 q 181 0 160 0 q 222 0 201 0 q 286 -1 254 0 q 349 3 318 -1 q 384 13 367 4 q 411 38 401 21 q 414 44 414 40 q 415 49 414 47 q 422 78 421 64 q 424 106 424 92 q 424 183 424 138 q 425 258 424 228 q 428 280 426 268 q 433 301 429 292 q 440 308 436 304 q 446 315 443 311 l 453 324 q 460 326 456 325 q 467 329 464 328 q 489 335 478 333 q 511 338 500 336 q 543 338 526 338 q 574 336 560 339 q 587 335 581 335 q 599 332 593 335 q 607 328 603 331 q 615 324 611 326 q 621 322 618 322 q 625 318 624 321 q 630 312 628 317 q 633 304 632 307 q 642 292 640 299 q 647 270 646 282 q 649 247 647 258 q 649 176 650 217 q 649 103 647 135 q 652 72 650 88 q 661 42 654 57 q 665 35 664 39 q 668 28 667 31 q 698 8 679 14 q 735 1 717 3 q 786 0 760 0 q 842 0 813 0 z "},"О":{"ha":1031,"x_min":108,"x_max":1092,"o":"m 1085 299 q 1071 227 1081 268 q 1043 154 1061 186 q 1025 125 1035 140 q 1004 97 1015 110 q 975 67 990 82 q 942 40 960 53 q 897 15 929 28 q 824 -8 865 3 q 742 -28 783 -19 q 669 -41 701 -36 q 625 -46 638 -46 q 550 -42 594 -46 q 474 -31 506 -39 q 455 -26 464 -28 q 436 -21 446 -24 q 431 -19 435 -19 q 425 -17 428 -18 l 424 -7 q 432 -7 426 -6 q 439 -8 438 -8 q 458 -10 449 -10 q 478 -11 468 -11 q 531 -12 504 -12 q 583 -10 557 -12 q 641 9 599 -6 q 734 44 683 24 q 827 85 785 64 q 885 121 869 106 q 924 181 906 142 q 955 258 942 219 q 974 318 968 297 q 980 394 979 350 q 981 468 981 438 q 981 524 981 489 q 979 595 981 560 q 974 651 978 631 q 957 697 969 667 q 928 760 944 726 q 894 824 913 794 q 861 869 876 854 q 803 903 846 885 q 709 940 760 922 q 615 969 658 957 q 557 983 572 981 q 510 984 542 985 q 442 981 478 983 q 374 972 406 978 q 326 958 342 967 q 249 923 296 944 q 171 871 203 901 q 129 826 149 853 l 114 810 q 110 806 110 806 q 110 810 108 806 q 114 815 113 815 q 121 833 117 825 q 131 851 125 842 q 182 912 151 883 q 243 963 213 940 q 293 991 267 979 q 346 1013 319 1003 q 399 1034 358 1025 q 495 1048 440 1043 q 605 1053 550 1053 q 701 1049 660 1054 q 754 1033 742 1044 q 811 1013 783 1025 q 865 986 839 1001 q 935 931 897 964 q 999 865 972 897 q 1037 790 1022 835 q 1063 714 1051 746 q 1076 657 1069 686 q 1086 600 1083 628 q 1091 529 1090 569 q 1092 457 1092 489 q 1090 380 1092 426 q 1085 299 1089 333 m 553 650 q 541 624 547 638 q 532 597 535 611 q 522 533 522 567 q 521 468 521 500 q 520 427 521 449 q 525 386 519 406 q 531 372 528 381 q 536 358 533 364 q 549 346 542 351 q 561 333 556 340 q 570 324 564 329 q 578 314 576 318 q 576 306 578 311 q 574 299 575 301 q 574 294 574 297 q 571 288 574 290 q 565 283 569 285 q 558 278 561 281 q 525 265 544 268 q 488 268 506 263 q 443 300 460 276 q 419 350 426 324 q 413 397 414 372 q 411 444 413 421 q 411 516 411 476 q 414 586 411 556 q 423 635 417 610 q 447 679 429 661 q 515 707 472 707 q 523 707 518 707 q 531 706 528 707 q 540 701 535 704 q 549 694 544 697 q 556 690 554 692 q 557 685 557 689 q 557 679 557 682 q 558 665 558 671 q 553 650 557 660 z "},"П":{"ha":1072,"x_min":0,"x_max":972,"o":"m 881 972 l 188 972 q 158 971 174 972 q 128 965 143 969 q 120 964 125 964 q 113 961 115 964 q 104 953 107 958 q 97 946 101 950 q 90 939 93 942 q 82 917 85 929 q 78 894 79 906 q 76 822 75 864 q 76 747 76 779 l 76 132 q 76 91 76 113 q 82 51 76 69 q 97 25 88 35 q 103 22 100 24 q 110 17 107 19 q 115 13 113 15 q 121 8 118 10 q 131 6 125 7 q 140 4 136 6 q 181 0 160 0 q 222 0 203 0 l 260 0 q 288 -1 275 0 q 315 -4 301 -1 q 326 -7 324 -7 q 329 -8 328 -8 q 331 -8 331 -7 q 331 -10 332 -10 q 329 -12 329 -11 q 327 -19 328 -14 q 324 -28 326 -25 q 308 -31 318 -31 q 264 -35 288 -35 q 187 -36 233 -36 q 108 -35 140 -36 q 76 -31 92 -33 q 44 -22 60 -29 q 31 -15 38 -19 q 22 -4 28 -12 q 17 1 21 -1 q 13 7 14 4 q 10 16 11 11 q 7 25 8 21 q 1 65 1 44 q 1 107 1 86 l 1 699 q 1 756 1 719 q 1 830 0 793 q 6 888 3 867 q 11 927 8 907 q 19 965 14 947 q 36 1010 25 992 q 58 1031 44 1022 q 85 1042 71 1039 q 127 1048 104 1049 q 169 1047 150 1047 l 751 1047 q 829 1047 783 1047 q 906 1040 875 1047 q 953 1019 932 1036 q 959 1015 956 1018 q 964 1010 963 1013 q 967 1001 967 1007 q 969 990 968 994 q 971 987 969 989 q 971 982 972 985 q 964 979 971 983 q 956 974 961 978 q 947 969 951 971 q 938 969 943 968 q 929 971 933 971 q 906 972 918 971 q 881 972 894 972 m 833 -35 q 756 -35 803 -35 q 678 -35 710 -36 q 655 -34 668 -35 q 631 -31 642 -33 q 623 -27 626 -29 q 615 -24 619 -25 q 608 -19 613 -21 q 601 -17 604 -18 q 594 -7 597 -12 q 588 1 592 -3 q 583 10 585 6 q 581 18 582 13 q 578 28 579 24 q 573 83 572 54 q 574 138 574 111 l 574 404 q 574 476 574 436 q 572 547 575 517 q 569 574 571 560 q 561 599 568 588 q 556 606 560 601 q 549 613 551 610 q 546 616 547 614 q 542 619 544 618 q 522 628 533 625 q 501 632 511 631 q 490 635 496 635 q 479 642 483 636 q 474 647 476 644 q 467 654 471 650 q 472 657 467 656 q 478 660 476 658 l 492 665 q 507 667 499 667 q 522 667 515 667 q 557 667 539 667 q 593 664 575 667 q 602 663 597 663 q 611 661 607 663 l 625 651 q 632 647 628 650 q 638 642 636 644 q 639 639 639 640 q 640 635 639 638 q 647 614 644 625 q 649 590 650 603 q 649 567 649 578 l 649 104 q 649 78 649 92 q 653 53 650 64 q 658 45 656 49 q 661 39 660 42 q 665 32 664 36 q 669 25 667 28 q 688 13 676 17 q 708 6 699 8 q 751 0 729 0 q 796 0 774 0 l 833 0 q 858 0 846 0 q 882 -3 871 0 q 891 -3 885 -3 q 899 -10 897 -4 q 899 -17 899 -11 q 899 -25 900 -22 q 892 -27 897 -26 q 885 -29 888 -28 q 833 -35 863 -35 z "},"Р":{"ha":979,"x_min":-3,"x_max":1038,"o":"m 1038 694 q 1033 650 1036 672 q 1025 606 1031 628 q 1015 575 1021 590 q 1004 544 1010 560 q 997 516 1000 531 q 990 486 994 501 q 946 403 975 440 q 904 360 928 379 q 854 326 881 342 q 808 297 832 311 q 758 274 785 283 q 681 253 728 261 q 603 243 635 246 q 581 242 593 242 q 557 240 568 243 q 543 233 550 238 q 537 231 542 232 q 531 228 532 231 q 528 219 529 225 q 525 210 526 213 q 522 174 521 192 q 522 139 524 157 q 521 124 521 132 q 518 110 521 117 q 506 82 514 96 q 496 54 499 68 q 492 32 493 43 q 488 10 490 21 q 486 2 486 7 q 483 -6 486 -3 q 478 -13 482 -10 q 471 -19 474 -17 q 440 -44 458 -33 q 403 -58 421 -56 q 331 -63 372 -64 q 257 -62 289 -62 l 164 -62 q 138 -62 153 -62 q 113 -56 124 -61 q 97 -47 106 -53 q 82 -36 89 -40 q 73 -29 78 -33 q 63 -24 68 -25 q 48 -19 56 -21 q 33 -17 40 -18 q 25 -10 29 -14 q 18 -6 21 -7 q 10 1 11 -3 q 7 8 8 4 q 4 15 6 13 q -1 44 0 29 q -1 74 -1 60 l -1 814 q -2 852 -1 833 q -1 889 -3 871 q -1 904 -1 896 q 3 918 0 913 q 8 926 4 922 q 13 933 11 931 q 16 939 14 936 q 19 943 18 942 q 28 948 22 946 q 38 951 33 950 q 57 958 47 956 q 76 964 67 961 q 97 975 88 968 q 136 1004 119 986 q 174 1033 153 1022 q 210 1044 190 1043 q 247 1046 229 1046 l 550 1046 q 599 1047 574 1046 q 647 1046 624 1047 q 705 1034 663 1044 q 797 1008 747 1024 q 890 974 847 992 q 947 940 932 956 q 989 889 971 917 q 1022 813 1011 854 q 1034 756 1031 785 q 1038 694 1038 726 m 150 1 q 210 0 171 0 q 290 0 250 0 q 350 0 329 0 q 397 10 376 0 q 405 13 400 11 q 411 15 410 14 q 429 39 424 25 q 432 54 432 47 q 438 106 438 76 l 438 217 q 438 239 438 228 q 440 260 439 250 q 442 267 442 263 q 443 275 442 272 q 446 278 444 276 q 449 281 447 279 q 457 288 453 283 q 467 296 461 293 q 481 299 475 299 q 518 303 500 303 q 565 305 542 304 q 610 307 588 306 q 665 326 625 311 q 754 363 706 342 q 843 407 803 385 q 899 444 883 429 q 931 513 919 475 q 947 582 943 551 q 944 639 953 597 q 918 731 935 681 q 881 822 901 781 q 846 879 861 864 q 794 910 831 894 q 717 938 758 925 q 639 958 675 950 q 588 969 603 967 q 515 972 557 972 q 440 972 472 972 l 222 972 q 176 972 200 972 q 129 967 153 972 q 115 964 124 967 q 100 953 107 960 l 92 947 q 89 940 90 944 q 85 932 88 935 q 78 906 79 918 q 76 878 76 893 l 76 200 q 76 140 76 169 q 78 81 76 110 q 80 61 78 71 q 85 40 82 51 q 87 35 86 39 q 89 31 88 32 q 93 27 90 29 q 97 22 96 25 q 105 16 101 19 q 113 10 108 13 q 130 5 119 7 q 150 1 140 3 m 513 713 q 527 711 519 711 q 540 708 535 711 q 549 705 544 707 q 556 700 553 703 q 562 697 558 699 q 567 694 565 696 l 575 681 q 579 674 576 678 q 583 667 582 669 q 587 646 586 657 q 586 624 588 635 q 585 615 585 619 q 583 608 585 611 q 580 602 582 606 q 576 596 578 599 l 568 583 q 556 576 564 579 q 522 563 540 567 q 485 560 503 558 q 474 561 479 560 q 463 564 468 563 l 456 564 q 451 570 453 567 q 446 575 449 574 q 441 581 444 578 q 436 586 438 585 q 434 594 435 589 q 433 601 433 599 q 431 626 432 614 q 431 650 431 639 q 431 664 431 657 q 432 676 431 671 q 437 686 433 682 q 442 694 440 690 q 444 700 443 697 q 447 704 446 703 q 455 707 450 707 q 461 708 460 707 q 486 713 474 713 q 513 713 499 714 z "},"С":{"ha":1018,"x_min":-64,"x_max":1063,"o":"m 878 510 l 713 510 q 651 515 682 510 q 596 543 619 521 q 580 559 588 550 q 564 575 572 568 q 553 586 560 582 l 539 590 q 531 592 536 590 q 524 593 526 594 q 520 590 522 593 q 517 585 518 586 q 511 580 515 583 q 506 574 507 576 q 506 563 504 569 q 507 551 507 556 q 510 540 507 546 q 514 526 513 533 q 528 497 521 511 q 544 467 536 482 q 551 458 547 461 q 557 449 554 454 q 561 444 560 447 q 564 440 563 442 q 571 439 567 439 q 576 439 575 439 q 584 436 579 438 q 592 436 589 435 q 600 438 596 436 q 607 442 604 440 q 628 451 618 446 q 650 458 639 456 q 679 465 664 464 q 708 467 694 465 q 772 467 740 468 q 835 467 804 467 q 876 466 854 467 q 917 458 899 465 q 953 433 940 450 q 979 397 965 415 q 1005 373 990 383 q 1033 350 1019 363 l 1047 338 q 1060 303 1058 322 q 1058 267 1061 285 q 1046 214 1056 240 q 1022 164 1036 188 q 993 122 1010 142 q 960 82 976 101 q 913 31 938 56 q 860 -14 889 6 q 808 -40 847 -26 q 716 -65 768 -53 q 612 -85 664 -76 q 520 -99 560 -94 q 468 -103 481 -104 q 413 -97 453 -101 q 324 -82 372 -92 q 235 -60 275 -72 q 179 -32 194 -47 q 143 -6 161 -19 q 110 25 125 8 q 75 69 92 46 q 42 114 58 92 q -3 175 17 144 q -49 289 -36 226 q -59 350 -56 310 q -63 431 -62 390 q -64 492 -64 471 q -61 551 -64 507 q -53 647 -58 594 q -37 744 -47 700 q -11 803 -26 788 q 37 865 8 835 q 96 922 65 896 q 165 979 128 951 q 233 1026 203 1007 q 304 1053 265 1042 q 374 1069 343 1064 q 435 1077 404 1075 q 496 1079 465 1079 q 542 1074 508 1079 q 620 1058 576 1068 q 707 1036 664 1049 q 784 1010 750 1024 q 831 985 818 997 q 876 944 856 967 q 919 899 897 921 q 954 865 936 881 q 988 831 972 849 q 1023 779 1007 807 q 1049 721 1039 751 q 1059 684 1056 703 q 1060 646 1063 665 q 1059 639 1058 643 q 1058 632 1060 635 q 1038 599 1053 614 q 1011 568 1024 583 q 988 540 1000 554 q 958 519 976 526 q 921 511 942 513 q 878 510 900 510 m 779 372 q 708 371 749 372 q 638 346 668 369 q 617 324 626 336 q 597 301 608 313 q 562 275 582 286 q 519 264 542 264 q 462 281 489 263 q 424 329 435 299 q 416 365 418 346 q 413 401 414 383 q 411 450 411 425 q 411 499 411 475 q 411 529 411 514 q 413 558 411 544 q 415 610 413 583 q 431 658 418 636 q 460 692 442 679 q 474 700 467 697 q 490 706 481 703 q 583 685 542 719 q 604 663 594 675 q 624 640 614 651 q 671 607 644 617 q 706 601 688 601 q 742 600 724 600 l 831 600 q 873 599 851 600 q 915 603 894 599 q 926 605 921 604 q 938 607 932 606 q 975 653 968 621 q 976 662 976 657 q 976 672 976 667 q 972 715 978 693 q 957 756 965 736 q 919 796 943 771 q 867 847 894 821 q 813 897 839 874 q 772 935 788 921 q 699 961 742 951 q 624 976 656 971 q 543 985 583 983 q 487 972 531 986 q 384 935 443 958 q 266 885 325 911 q 163 835 207 858 q 107 800 119 813 q 81 745 92 785 q 63 658 69 706 q 53 572 56 611 q 50 517 50 532 q 51 470 50 504 q 56 392 53 436 q 66 302 60 347 q 81 223 72 257 q 103 176 90 189 q 159 140 115 164 q 262 90 203 117 q 380 39 321 63 q 483 1 439 15 q 539 -12 526 -14 q 578 -10 558 -11 q 617 -6 599 -8 q 683 6 649 -1 q 749 26 718 14 q 802 60 769 39 q 867 105 835 81 q 921 150 900 129 q 943 187 933 168 q 961 225 953 206 q 976 279 971 249 q 969 333 982 310 q 966 341 968 336 q 961 347 964 346 q 940 362 953 357 q 915 368 928 367 q 891 372 904 371 q 864 372 878 372 l 779 372 m 499 414 l 507 397 q 509 394 508 396 q 511 390 510 392 q 517 390 513 389 q 522 392 521 392 q 529 392 525 392 q 535 393 533 392 q 537 397 538 394 q 538 400 536 399 q 540 410 539 404 q 542 419 542 415 q 540 425 542 422 q 539 429 539 428 q 536 439 538 433 q 532 447 535 444 q 526 453 531 450 q 519 458 522 456 q 515 462 518 458 q 511 465 513 465 q 508 461 510 465 q 506 457 506 457 q 501 450 504 454 q 499 443 499 446 q 497 431 497 438 q 499 414 497 424 z "},"Т":{"ha":936,"x_min":-32,"x_max":1019,"o":"m 1018 735 q 1015 706 1017 721 q 1007 681 1014 692 q 981 656 997 664 q 944 644 964 647 q 890 642 918 642 q 833 642 861 643 q 808 639 822 640 q 783 632 794 638 q 777 626 781 631 q 771 619 774 622 q 767 616 769 618 q 763 611 764 614 q 760 601 760 606 q 755 583 757 592 q 753 565 753 575 q 751 517 751 542 q 751 468 751 492 l 751 132 q 751 86 751 110 q 749 39 751 63 q 744 17 747 29 q 735 -6 742 4 l 725 -11 q 718 -17 722 -14 q 710 -24 714 -21 l 692 -28 q 642 -33 668 -33 q 592 -32 617 -32 q 526 -32 561 -32 q 458 -29 490 -32 q 425 -22 443 -29 q 419 -22 424 -22 q 414 -19 415 -21 l 415 -6 q 421 -4 417 -4 q 426 -3 425 -4 q 455 0 442 0 q 482 0 468 0 q 534 3 503 0 q 594 15 565 6 q 635 46 622 25 q 642 69 640 57 q 643 93 643 82 q 645 141 646 117 q 644 189 644 165 l 644 493 q 644 541 644 517 q 646 589 644 565 q 647 613 646 600 q 654 636 649 626 q 683 663 664 656 q 721 672 701 671 q 776 674 749 675 q 829 675 803 674 q 853 679 840 676 q 875 688 865 682 q 899 714 890 697 q 910 749 907 731 q 913 799 913 774 q 913 849 913 824 q 911 887 913 868 q 901 924 910 906 q 899 931 900 926 q 896 938 899 936 q 869 960 886 953 q 833 969 851 968 q 767 973 803 974 q 700 972 732 972 l 151 972 q 114 972 133 972 q 78 965 94 972 q 70 962 74 964 q 64 957 67 960 q 51 950 56 954 q 48 944 50 949 q 43 938 46 940 q 24 883 25 914 q 24 824 24 851 l 24 786 q 24 760 24 772 q 21 735 24 747 q 20 728 21 733 q 18 719 19 722 q 13 718 17 718 q 7 718 8 718 q 1 717 6 718 q -6 717 -3 715 q -10 724 -7 718 q -14 731 -12 729 l -24 743 q -29 772 -29 760 q -32 812 -32 792 q -32 851 -32 832 q -31 902 -32 872 q -23 962 -31 932 q 4 1013 -15 992 q 10 1019 7 1015 q 17 1026 13 1024 q 71 1051 40 1049 q 132 1054 101 1054 l 721 1054 q 773 1055 747 1054 q 825 1053 799 1056 q 862 1048 843 1051 q 896 1035 881 1044 q 928 1005 917 1024 q 954 968 940 986 q 985 934 969 950 q 1010 896 1001 918 q 1018 862 1017 881 q 1019 826 1019 843 l 1018 735 m 135 674 q 185 674 160 674 q 235 672 210 675 q 243 672 239 671 q 250 671 247 672 l 268 661 q 274 658 271 660 q 278 656 276 657 q 283 647 281 653 q 286 638 285 642 q 293 593 294 618 q 292 546 292 568 l 292 253 q 292 202 292 232 q 292 142 292 172 q 292 90 293 111 q 292 76 292 85 q 290 63 293 68 q 285 56 289 60 q 279 49 282 51 q 276 44 278 49 q 272 40 274 40 q 269 42 271 40 q 265 46 268 44 q 260 51 264 49 q 254 57 257 54 q 247 67 249 61 q 243 79 246 72 q 237 112 238 94 q 236 146 236 129 q 236 194 236 158 q 236 278 236 231 q 236 372 236 325 q 236 456 236 419 q 236 504 236 492 q 236 540 236 522 q 233 575 236 557 q 233 584 233 579 q 231 593 233 589 q 227 601 229 597 q 224 608 225 604 l 215 622 q 209 627 214 625 q 201 631 204 629 l 189 639 q 159 647 175 646 q 129 654 143 649 q 119 660 124 657 q 111 665 115 663 q 107 667 110 667 q 104 669 104 668 q 108 671 104 672 q 113 671 111 669 q 122 673 117 672 q 135 674 128 674 z "},"У":{"ha":974,"x_min":-62,"x_max":1019,"o":"m 981 782 q 949 726 968 769 q 910 626 931 683 q 867 510 889 568 q 827 408 846 451 q 796 353 808 365 l 763 276 q 719 224 747 261 q 658 141 690 186 q 598 58 626 96 q 554 6 569 21 q 485 -15 524 -8 q 414 -25 446 -22 q 347 -28 383 -26 q 279 -25 311 -29 q 231 -16 256 -22 q 183 -6 207 -10 q 128 8 157 0 q 85 46 99 17 q 83 53 83 49 q 81 60 82 57 q 76 90 78 75 q 75 118 75 104 q 74 169 75 139 q 78 228 74 199 q 94 278 82 257 q 122 319 106 300 q 151 358 138 339 q 172 393 164 375 q 175 433 179 411 q 168 457 174 444 q 157 479 163 469 q 138 518 147 499 q 117 556 128 538 q 85 604 101 571 q 54 675 69 638 q 23 746 39 713 q -8 794 7 779 q -32 839 -19 817 q -53 885 -44 861 q -60 908 -57 896 q -61 931 -62 919 q -57 946 -60 938 q -53 960 -54 954 q -42 978 -49 969 q -31 996 -36 988 q -6 1026 -19 1011 q 25 1051 7 1042 q 61 1060 42 1058 q 99 1063 81 1061 l 210 1063 q 280 1062 242 1063 q 344 1039 318 1061 q 372 1005 361 1025 q 393 965 383 985 q 415 933 404 949 q 436 900 426 917 q 444 888 439 894 q 453 876 449 882 q 457 872 456 875 q 460 867 458 868 q 467 865 463 865 q 475 863 472 864 q 481 861 478 863 q 486 860 485 860 q 494 867 489 861 q 500 874 499 872 q 518 899 511 885 q 533 925 525 913 q 557 961 544 944 q 583 994 569 978 q 610 1025 596 1010 q 643 1049 625 1040 q 690 1061 664 1060 q 738 1063 715 1063 q 797 1063 767 1063 q 856 1063 826 1064 q 897 1060 875 1061 q 935 1047 918 1058 q 963 1013 954 1033 q 983 972 972 992 q 1007 933 994 953 q 1018 890 1019 914 q 1015 869 1018 881 q 1007 846 1011 857 q 994 816 1001 832 q 981 782 988 800 m 258 1 q 297 0 278 0 q 335 1 317 0 q 394 8 356 3 q 470 22 432 13 q 529 50 508 32 q 566 94 544 65 q 610 156 588 122 q 653 217 633 189 q 688 261 674 246 q 715 308 700 274 q 745 386 729 342 q 777 475 761 431 q 808 553 793 519 q 835 600 822 588 q 865 664 850 621 q 896 750 881 707 q 926 814 911 793 q 944 854 935 833 q 957 894 953 875 q 960 906 958 900 q 961 918 963 913 q 960 925 961 921 q 957 932 958 929 q 955 940 956 935 q 953 947 954 946 q 940 956 949 951 l 928 965 q 919 967 924 967 q 910 968 914 967 q 878 972 894 971 q 847 972 863 972 l 751 972 q 713 972 733 972 q 674 965 693 971 q 625 929 646 954 q 606 898 614 915 q 592 864 599 881 q 570 815 581 840 q 549 765 560 790 q 540 747 544 757 q 531 729 536 736 l 519 719 q 515 714 518 718 q 508 710 511 710 q 503 711 507 710 q 497 714 500 713 q 491 717 496 715 q 483 719 486 718 q 476 732 479 724 q 452 778 463 754 q 431 824 442 801 q 414 860 422 843 q 396 896 406 878 q 384 917 390 907 q 369 936 378 928 q 313 967 346 961 q 247 972 279 972 l 163 972 q 117 973 140 972 q 71 967 93 974 q 62 965 67 965 q 54 961 57 964 q 47 955 50 960 q 42 947 44 950 q 33 939 36 944 q 32 928 32 936 q 29 910 29 917 q 31 899 29 904 q 35 888 33 893 q 44 865 38 876 q 56 843 50 854 q 72 810 64 826 q 89 778 81 793 q 125 721 104 763 q 167 629 146 679 q 210 538 189 579 q 246 481 231 496 q 268 438 257 458 q 290 394 279 417 q 301 363 297 376 q 304 357 303 360 q 306 351 306 354 q 304 345 306 349 q 301 339 303 342 q 300 331 300 336 q 297 324 300 326 q 289 317 296 319 q 260 301 276 306 q 230 293 244 297 q 201 281 215 289 q 195 277 199 279 q 189 272 192 275 q 185 266 186 271 q 181 258 183 261 q 176 252 179 256 q 172 244 174 249 q 170 238 171 242 q 169 231 169 233 q 165 199 165 215 q 164 168 164 183 q 163 113 164 142 q 171 57 163 83 q 174 48 172 53 q 176 39 175 43 q 186 26 179 33 q 199 15 193 19 q 214 10 203 13 q 258 1 235 1 z "},"Ф":{"ha":1375,"x_min":233,"x_max":1414,"o":"m 1404 358 q 1390 301 1399 329 q 1367 244 1382 272 q 1322 204 1351 229 q 1260 153 1293 179 q 1199 103 1228 126 q 1154 68 1169 81 q 1103 54 1129 60 q 1049 44 1076 49 q 1020 40 1035 43 q 992 31 1006 38 q 985 28 989 29 q 978 25 981 28 q 973 18 975 22 q 968 11 971 14 q 957 -1 960 3 q 946 -30 950 -14 q 932 -57 942 -46 q 921 -66 928 -61 q 908 -74 914 -71 q 901 -76 906 -75 q 894 -78 897 -76 q 863 -83 879 -82 q 832 -83 847 -83 q 758 -83 801 -83 q 683 -82 715 -83 q 669 -81 676 -82 q 654 -79 661 -81 q 649 -78 651 -78 q 643 -76 646 -78 q 633 -69 639 -75 l 622 -62 q 621 -61 622 -61 q 619 -60 619 -61 q 624 -56 619 -58 q 628 -53 628 -54 q 633 -49 631 -51 q 636 -46 635 -47 q 642 -45 639 -44 q 647 -46 646 -46 q 659 -44 654 -44 q 669 -44 664 -44 l 740 -44 q 766 -44 753 -44 q 792 -40 779 -43 q 817 -33 804 -37 q 839 -19 829 -29 q 844 -13 842 -17 q 847 -7 846 -10 q 860 19 856 6 q 874 47 865 33 q 878 54 876 50 q 883 60 881 58 q 891 65 886 63 q 899 68 896 67 q 942 82 918 79 q 989 89 967 85 q 1068 109 1021 96 q 1146 144 1115 122 q 1198 203 1167 165 q 1258 279 1229 242 q 1301 338 1288 317 q 1315 390 1310 358 q 1322 453 1319 422 q 1324 506 1324 485 q 1321 575 1324 538 q 1310 643 1318 613 q 1290 695 1303 664 q 1259 758 1276 726 q 1221 810 1242 789 q 1144 867 1190 842 q 1065 907 1097 892 q 1020 920 1043 914 q 974 931 997 926 q 944 935 960 933 q 913 942 928 936 q 888 957 899 947 q 867 979 876 967 q 851 1003 858 990 q 831 1026 843 1017 q 797 1040 817 1038 q 760 1043 778 1042 l 642 1043 q 624 1044 632 1043 q 607 1046 617 1044 q 601 1046 606 1046 q 596 1047 597 1046 q 595 1051 594 1049 q 594 1054 596 1053 q 593 1061 594 1057 q 593 1067 592 1065 q 597 1069 594 1069 q 600 1069 599 1068 q 608 1072 604 1071 q 615 1075 611 1074 q 656 1081 635 1082 q 697 1081 678 1081 q 770 1081 729 1081 q 842 1079 811 1082 q 881 1073 861 1078 q 915 1056 900 1068 q 944 1021 932 1042 q 975 988 956 1000 q 1022 970 996 974 q 1072 961 1049 967 q 1143 941 1104 953 q 1213 910 1182 929 q 1265 855 1233 890 q 1327 785 1297 819 q 1372 729 1357 750 q 1390 678 1383 708 q 1400 616 1396 647 q 1407 564 1404 585 q 1413 503 1411 543 q 1413 422 1414 463 q 1404 358 1411 382 m 257 899 q 329 935 289 919 q 400 958 369 951 q 421 963 411 961 q 442 963 431 964 q 447 963 443 963 q 453 963 451 964 q 453 956 453 963 q 454 950 453 954 q 454 944 456 946 q 451 943 453 943 q 447 942 450 943 q 437 938 442 940 q 426 935 432 936 q 411 932 419 933 q 394 929 403 931 q 349 919 372 925 q 303 904 325 913 q 276 893 289 899 q 251 882 264 888 q 243 880 246 881 q 233 881 240 879 q 235 884 233 883 q 239 886 238 885 q 257 899 246 889 m 858 443 q 858 517 858 475 q 858 590 857 560 q 860 611 860 601 q 865 631 861 621 q 867 639 865 633 q 869 646 868 644 q 877 649 872 649 q 883 650 882 650 q 891 653 886 651 q 897 656 896 656 q 904 653 900 656 q 911 647 908 650 q 918 644 914 646 q 924 640 922 643 q 927 636 926 639 q 929 631 928 633 q 940 613 936 622 q 944 598 943 607 q 946 582 944 589 q 948 532 949 557 q 947 482 947 507 q 947 443 947 464 q 939 404 946 422 q 933 390 938 399 q 924 378 928 382 q 918 375 922 376 q 911 371 914 374 q 905 367 910 369 q 897 364 900 364 q 889 367 894 364 q 881 372 883 371 q 876 375 879 374 q 869 378 872 376 q 867 385 868 381 q 865 392 867 389 q 858 443 858 411 m 503 467 q 508 433 506 450 q 507 399 511 415 q 504 381 507 389 l 493 376 q 479 369 486 369 q 472 372 478 369 q 459 377 465 375 q 447 385 453 379 q 440 392 444 388 q 433 400 436 396 q 417 442 421 418 q 413 486 414 465 q 415 554 411 518 q 438 621 419 590 q 447 632 442 628 q 460 640 453 636 q 465 644 463 642 q 469 647 468 647 q 478 647 472 649 q 488 644 485 644 q 494 643 490 643 q 500 642 499 643 q 503 637 501 640 q 506 631 504 633 q 509 624 507 628 q 513 615 511 619 q 513 606 514 611 q 513 597 513 601 q 508 560 511 579 q 503 524 506 542 q 503 467 501 497 m 361 85 l 358 94 q 360 94 360 94 q 363 93 361 93 l 382 89 q 415 83 399 86 q 447 78 432 81 q 456 74 453 76 q 463 68 460 71 q 468 63 469 65 q 464 63 468 63 l 444 58 q 433 59 439 57 q 421 63 428 61 q 361 85 390 69 z "},"Х":{"ha":1026,"x_min":8,"x_max":1076,"o":"m 1021 -56 q 944 -59 990 -60 q 865 -58 897 -58 q 811 -59 839 -58 q 756 -57 783 -60 q 736 -53 746 -54 q 717 -47 726 -51 q 710 -44 714 -46 q 703 -42 706 -43 q 696 -35 699 -39 q 690 -26 693 -31 q 685 -21 685 -24 q 685 -19 685 -19 q 686 -18 686 -18 q 692 -9 689 -15 q 697 -1 694 -3 q 705 1 700 1 q 711 0 710 0 q 735 1 724 1 q 760 0 747 0 q 811 0 781 0 q 872 0 842 0 q 922 1 901 0 q 951 4 938 1 q 975 13 964 7 q 983 17 978 15 q 989 21 988 18 q 993 28 992 24 q 996 38 994 33 q 999 43 997 40 q 1001 47 1001 46 q 999 60 1001 51 q 989 92 997 76 q 967 129 979 111 q 944 165 956 147 q 910 213 929 181 q 869 283 890 246 q 828 352 847 319 q 793 400 808 385 q 769 437 782 418 q 751 476 757 456 q 756 538 744 510 q 783 591 765 565 q 814 642 800 617 q 852 697 833 663 q 890 765 871 731 q 928 819 910 799 q 951 858 939 839 q 969 897 963 876 q 975 911 975 906 q 976 920 976 915 q 975 929 975 925 q 974 935 974 932 q 974 940 975 939 q 969 947 972 943 q 964 951 967 950 l 954 963 q 947 965 951 964 q 939 967 942 965 q 907 972 924 971 q 874 972 890 972 l 767 972 q 713 972 742 972 q 661 960 685 971 q 636 943 647 954 q 615 921 625 932 q 585 878 599 901 q 556 833 572 854 q 549 826 553 831 q 542 819 546 822 q 535 817 540 818 q 526 814 531 815 q 522 811 525 813 q 515 810 518 810 q 501 818 507 813 q 475 843 485 826 q 456 874 465 860 q 432 913 444 893 q 401 946 419 932 q 347 968 378 964 q 307 972 328 972 q 267 972 286 972 l 144 972 q 113 972 129 972 q 82 972 97 971 q 61 979 71 975 q 58 981 60 981 q 54 982 56 981 q 51 987 53 983 q 47 992 50 990 q 43 999 46 994 q 40 1006 40 1003 q 41 1013 39 1008 q 44 1019 43 1018 q 47 1027 46 1022 q 49 1033 47 1032 q 58 1046 51 1039 q 69 1056 65 1053 l 83 1060 q 123 1069 103 1068 q 164 1071 143 1071 l 293 1071 q 357 1066 325 1071 q 415 1039 389 1061 q 451 1000 435 1022 q 481 956 467 978 q 494 942 488 949 q 507 928 500 935 q 512 924 510 926 q 515 919 514 921 q 522 919 518 918 q 528 919 526 919 q 543 918 538 917 l 550 922 q 559 929 554 926 q 567 936 564 932 q 574 946 571 940 q 581 956 578 951 q 609 999 596 976 q 640 1039 622 1021 q 713 1068 671 1065 q 786 1071 756 1071 l 889 1071 q 924 1071 906 1071 q 960 1064 943 1071 q 994 1041 981 1057 q 1021 1010 1008 1025 q 1033 994 1026 1003 q 1042 978 1039 986 q 1047 924 1051 953 q 1035 871 1042 894 q 1011 816 1028 842 q 979 765 994 790 q 928 686 953 735 q 878 606 903 638 q 854 568 867 588 q 835 529 842 549 q 828 507 831 519 q 826 482 825 494 q 835 459 829 471 q 846 438 840 447 q 869 399 857 418 q 894 361 882 381 q 947 281 921 331 q 999 199 972 231 q 1031 150 1014 175 q 1060 99 1049 125 q 1069 76 1065 89 q 1075 53 1074 64 q 1074 28 1076 40 q 1069 4 1072 15 q 1061 -25 1068 -10 q 1060 -30 1060 -26 q 1057 -36 1060 -33 q 1021 -56 1047 -49 m 40 186 q 76 235 56 201 q 119 308 97 269 q 163 381 142 347 q 199 431 183 415 q 222 467 208 449 q 231 474 226 471 q 240 482 236 478 q 246 486 244 486 q 255 485 249 488 q 264 481 261 482 q 267 479 267 481 q 265 472 268 478 q 265 465 265 468 q 264 457 264 461 q 258 443 263 450 q 251 429 254 436 q 237 406 244 418 q 221 382 229 393 q 176 319 200 361 q 129 234 153 276 q 85 171 106 192 q 66 141 75 157 q 46 110 57 125 q 40 103 43 107 q 35 94 38 99 q 33 91 33 93 q 31 89 33 89 q 24 88 29 88 q 17 88 19 88 q 13 88 13 88 q 12 92 11 89 q 11 96 13 94 q 10 105 11 100 q 10 115 8 110 q 12 124 10 119 q 15 133 14 129 q 26 159 19 146 q 40 186 33 172 m 482 43 q 451 -6 468 19 q 408 -44 435 -32 q 368 -56 390 -54 q 325 -58 346 -57 q 263 -59 294 -60 q 200 -58 232 -58 q 161 -58 181 -58 q 122 -57 142 -58 q 101 -56 113 -57 q 81 -50 89 -54 q 72 -43 76 -47 q 64 -36 68 -39 q 58 -32 58 -33 q 60 -28 57 -31 q 63 -18 61 -25 q 67 -8 64 -11 q 76 -5 69 -6 q 85 -4 82 -4 q 113 0 99 0 q 140 0 126 0 l 254 0 q 294 1 274 0 q 333 7 315 1 q 393 52 365 18 q 442 117 421 86 q 454 134 449 125 q 467 151 460 143 q 472 158 469 154 q 476 163 474 161 q 486 168 481 165 q 496 172 492 171 q 503 175 501 175 q 508 172 506 175 q 513 168 511 169 q 519 165 515 167 q 524 160 522 163 q 525 151 525 158 q 528 132 528 140 q 524 122 526 126 q 521 114 522 118 q 504 78 515 96 q 482 43 493 61 z "},"Ч":{"ha":1024,"x_min":19,"x_max":1043,"o":"m 140 1033 q 153 1038 147 1036 q 164 1042 158 1040 q 211 1048 188 1049 q 257 1047 235 1047 q 301 1048 279 1047 q 346 1047 324 1049 q 381 1044 364 1046 q 414 1035 399 1042 q 428 1028 421 1032 q 454 992 446 1014 q 469 950 463 969 q 477 932 474 940 q 485 915 481 924 q 495 892 490 904 q 501 867 500 881 q 508 796 508 836 q 508 724 507 756 q 510 713 508 718 q 513 701 511 707 q 515 690 513 696 q 522 687 517 689 q 528 683 526 685 q 533 679 529 682 q 538 676 536 676 q 543 686 543 682 q 551 699 550 693 q 553 706 553 701 q 553 713 553 710 q 556 774 557 743 q 560 836 556 806 q 568 865 563 851 q 569 872 568 867 q 571 876 569 876 q 575 874 572 876 q 582 871 578 872 q 588 867 586 869 q 588 863 589 865 q 588 860 588 861 l 588 731 q 588 675 588 704 q 579 621 589 646 q 569 599 575 610 q 553 582 564 589 q 540 575 547 578 q 525 569 532 572 q 467 571 499 563 q 419 604 436 579 q 409 628 413 615 q 403 653 406 640 q 400 690 400 671 q 400 728 400 710 l 400 842 q 399 876 400 858 q 396 908 399 893 q 394 918 394 913 q 392 926 394 924 q 387 935 390 931 q 381 943 383 939 q 347 966 368 961 q 304 972 325 971 l 197 972 q 169 972 183 972 q 142 974 154 972 q 131 976 136 975 q 122 979 126 978 q 119 981 121 981 q 114 982 117 981 q 112 988 113 983 q 111 993 111 992 q 108 1000 110 996 q 108 1006 107 1004 q 111 1011 108 1008 q 115 1015 114 1014 q 126 1025 121 1021 q 140 1033 131 1029 m 835 -94 q 765 -98 804 -99 q 694 -97 726 -97 q 653 -97 674 -97 q 613 -90 632 -96 l 597 -86 q 586 -75 590 -82 q 580 -70 583 -72 q 574 -65 576 -68 q 563 -42 567 -54 q 558 -18 560 -29 q 556 38 554 10 q 554 93 557 67 q 549 129 554 113 q 549 135 549 132 q 546 140 549 139 q 540 147 544 143 q 532 153 535 151 q 528 158 531 156 q 522 161 525 160 q 517 162 521 163 q 511 161 514 161 q 497 161 504 161 q 482 160 489 161 q 447 154 464 157 q 411 150 429 151 q 351 149 390 147 q 271 159 311 151 q 210 179 231 167 q 177 196 193 186 q 146 218 161 206 q 108 251 125 233 q 63 328 81 283 q 36 403 46 372 q 26 456 29 418 q 22 540 22 494 q 21 623 21 585 q 21 676 21 661 q 20 747 21 708 q 24 817 19 786 q 26 835 25 826 q 29 854 28 844 q 31 862 31 857 q 33 868 32 867 q 41 874 36 871 q 49 879 46 878 q 51 882 51 882 q 53 878 54 881 q 51 874 51 876 q 53 858 53 867 q 53 842 53 850 l 53 717 q 56 670 53 704 q 63 593 58 636 q 76 506 68 550 q 93 428 83 463 q 115 382 103 394 q 158 351 128 369 q 228 315 189 333 q 308 280 268 296 q 378 254 347 264 q 421 246 408 244 q 517 258 468 247 q 526 260 521 258 q 536 261 531 261 q 545 260 540 261 q 556 258 550 260 q 562 258 558 258 q 567 257 565 258 q 575 244 571 253 q 580 238 578 242 q 583 232 582 235 q 587 214 586 225 q 588 194 588 203 q 588 149 588 172 q 589 101 588 125 q 590 78 589 90 q 594 54 590 65 q 631 11 604 25 q 652 4 640 6 q 674 1 664 3 q 713 0 693 0 q 751 0 733 0 l 796 0 q 832 0 814 0 q 867 3 850 0 q 895 13 881 6 q 918 31 910 19 q 922 38 921 33 q 925 44 924 42 q 932 71 931 57 q 935 99 933 85 l 935 836 q 935 877 935 856 q 931 917 936 899 q 893 961 921 949 q 872 968 883 967 q 849 971 860 969 q 806 972 828 972 q 764 972 785 972 l 719 972 q 695 973 707 972 q 671 978 683 974 q 665 980 669 979 q 657 982 660 981 q 655 990 656 985 q 653 997 654 994 q 649 1008 649 1001 q 654 1015 650 1011 q 660 1021 658 1019 q 665 1026 663 1024 q 668 1029 667 1028 q 679 1035 671 1032 q 699 1040 689 1038 q 718 1044 708 1043 q 753 1047 735 1047 q 788 1047 771 1047 l 885 1047 q 916 1044 900 1046 q 946 1038 932 1043 q 953 1035 949 1036 q 960 1032 957 1033 q 987 996 979 1018 q 1003 953 994 974 q 1022 913 1011 932 q 1038 871 1033 893 q 1040 844 1040 857 q 1042 818 1040 832 l 1042 204 q 1042 136 1042 174 q 1042 67 1043 99 q 1039 26 1040 47 q 1026 -14 1038 4 q 985 -51 1013 -40 q 929 -68 957 -61 q 883 -83 906 -75 q 835 -94 860 -92 z "},"Ц":{"ha":1138,"x_min":17,"x_max":1165,"o":"m 490 840 q 494 780 493 819 q 494 701 494 740 q 493 640 493 661 l 493 507 q 492 469 493 489 q 497 429 492 449 q 501 415 499 424 q 508 401 504 406 q 515 397 511 399 q 521 392 518 394 q 526 388 524 390 q 531 385 529 386 q 539 385 533 383 q 547 386 544 386 q 554 386 550 386 q 560 388 558 386 q 568 396 565 390 q 575 402 571 399 q 581 408 579 406 q 585 423 583 414 q 588 438 586 432 q 590 463 590 450 q 589 489 589 476 l 589 838 q 589 893 589 865 q 590 949 589 921 q 592 974 590 960 q 599 1000 593 989 q 628 1028 610 1019 q 665 1039 646 1036 q 710 1042 688 1043 q 754 1042 732 1042 q 806 1042 781 1042 q 858 1040 832 1043 q 891 1035 875 1039 q 921 1019 907 1031 q 927 1016 924 1018 q 932 1011 931 1014 q 936 1001 935 1008 q 939 990 938 994 q 940 988 939 989 q 940 983 942 986 q 935 981 940 982 q 929 979 931 979 q 914 972 922 974 q 900 972 908 971 q 885 972 892 972 q 806 974 854 972 q 725 971 757 975 q 706 967 715 969 q 688 961 697 964 q 683 959 686 960 q 676 956 679 958 q 669 947 672 954 q 663 939 667 943 q 656 931 658 935 q 654 926 654 929 q 654 919 654 922 q 651 901 653 910 q 649 882 650 893 q 648 834 647 858 q 649 786 649 810 l 649 383 q 643 350 646 364 q 640 339 643 344 q 633 331 638 332 q 627 324 631 328 q 621 317 624 319 q 607 311 615 314 q 593 307 599 308 q 573 306 583 306 q 551 306 563 306 q 506 306 529 306 q 461 317 482 307 q 447 324 454 319 q 444 330 446 326 q 439 336 442 333 q 431 349 435 340 q 428 367 428 357 q 424 399 424 382 q 424 433 424 417 l 424 858 q 424 880 424 869 q 425 900 424 890 q 426 906 426 901 q 426 911 425 910 q 435 914 429 914 q 443 915 442 914 q 450 917 446 915 q 456 917 454 918 q 462 911 458 917 q 467 903 465 906 q 483 875 478 890 q 490 840 488 860 m 1165 32 l 1165 -135 q 1163 -183 1165 -157 q 1146 -228 1161 -208 q 1115 -253 1135 -244 q 1076 -268 1096 -261 q 1015 -281 1056 -278 q 932 -284 974 -285 q 869 -283 890 -283 q 831 -283 851 -283 q 792 -278 811 -283 q 783 -274 788 -275 q 774 -272 778 -274 q 736 -229 747 -260 q 729 -200 731 -215 q 724 -171 728 -185 q 713 -141 719 -156 q 694 -117 706 -126 q 670 -99 685 -106 q 640 -92 656 -93 q 615 -89 628 -89 q 589 -89 601 -89 l 240 -89 q 185 -90 214 -89 q 129 -87 157 -92 q 106 -81 118 -85 q 83 -69 93 -78 q 69 -50 74 -62 q 61 -28 64 -37 q 52 15 56 -7 q 42 57 49 36 q 29 93 36 75 q 19 131 22 111 q 17 168 18 149 q 17 206 17 188 l 17 890 q 17 948 17 918 q 33 1003 18 978 l 40 1015 q 76 1035 56 1031 q 117 1040 97 1039 q 156 1042 136 1043 q 194 1042 175 1042 q 244 1042 219 1042 q 294 1039 269 1042 q 342 1021 322 1035 q 349 1017 344 1019 q 354 1013 353 1015 q 355 1007 356 1011 q 354 1000 354 1003 q 356 993 354 999 q 356 985 357 988 q 349 982 354 983 q 340 979 343 981 q 333 976 338 978 q 326 974 329 974 q 306 972 317 972 q 285 972 296 972 l 196 972 q 168 972 182 972 q 140 968 154 971 q 129 967 135 967 q 118 964 124 967 q 110 959 114 963 q 103 953 107 956 l 94 947 q 88 932 90 942 q 79 906 82 919 q 76 878 76 893 l 76 218 q 76 147 76 188 q 79 74 75 106 q 82 56 79 64 q 88 40 85 49 q 92 29 88 33 q 99 23 94 26 q 106 17 103 19 q 110 13 108 15 q 114 8 113 10 q 120 7 117 7 q 125 6 124 7 q 144 3 135 4 q 163 0 153 1 q 213 -1 188 -1 q 265 0 239 0 l 657 0 q 682 -1 668 -1 q 706 -6 696 -1 q 719 -12 711 -7 q 731 -22 728 -18 q 739 -33 735 -25 q 744 -47 743 -42 q 747 -58 747 -53 q 747 -69 746 -64 q 751 -110 750 -90 q 761 -150 751 -131 q 768 -164 764 -157 q 774 -168 771 -165 q 779 -174 776 -171 q 785 -178 782 -175 q 790 -183 788 -181 l 806 -187 q 833 -193 819 -192 q 860 -194 846 -194 l 982 -194 q 1013 -192 997 -193 q 1042 -186 1028 -190 l 1056 -182 q 1069 -173 1061 -179 q 1081 -161 1076 -167 q 1084 -154 1083 -158 q 1086 -147 1085 -150 q 1093 -119 1092 -133 q 1096 -89 1094 -104 q 1096 -43 1096 -74 q 1096 22 1096 -12 q 1096 88 1096 57 q 1096 133 1096 118 q 1095 167 1096 150 q 1096 200 1094 183 q 1097 213 1097 206 q 1100 225 1097 219 l 1108 238 q 1110 242 1110 240 q 1113 244 1111 243 q 1120 242 1115 244 q 1126 239 1125 239 q 1133 236 1129 238 q 1139 232 1138 235 q 1142 228 1142 231 q 1144 222 1143 225 q 1151 212 1147 217 q 1156 201 1154 207 q 1164 149 1163 181 q 1165 87 1165 118 q 1165 32 1165 56 m 1064 828 q 1066 751 1067 797 q 1065 672 1065 704 l 1065 432 q 1066 387 1065 410 q 1060 343 1067 364 q 1058 335 1058 340 q 1054 328 1057 331 q 1044 324 1051 325 q 1032 321 1036 322 q 1029 319 1031 321 q 1025 319 1028 318 q 1021 323 1024 319 q 1017 328 1018 326 q 1011 334 1015 331 q 1004 340 1007 338 q 1003 347 1003 343 q 1001 351 1003 350 q 996 398 996 375 q 996 444 996 421 l 996 869 q 997 883 996 876 q 999 894 997 889 q 1000 903 999 900 q 1007 905 1001 904 q 1014 906 1013 906 q 1022 908 1017 907 q 1028 908 1026 910 q 1034 904 1031 908 q 1039 897 1038 900 q 1044 892 1042 896 q 1049 886 1047 889 q 1059 860 1056 875 q 1064 828 1063 844 z "},"Ш":{"ha":1407,"x_min":-37,"x_max":1404,"o":"m 1135 -28 q 1085 -29 1122 -29 q 998 -29 1047 -29 q 900 -28 949 -29 q 814 -28 851 -28 q 764 -28 776 -28 l 192 -28 q 122 -28 161 -28 q 50 -26 82 -28 q 23 -24 36 -26 q -3 -15 10 -21 q -9 -11 -6 -12 q -15 -7 -12 -10 q -20 1 -18 -4 q -25 8 -22 6 q -37 60 -37 31 q -36 113 -36 89 l -36 786 q -36 824 -36 806 q -35 861 -36 843 q -28 899 -33 881 q -10 931 -24 917 q 17 947 1 942 q 46 961 32 953 l 68 974 q 92 994 81 983 q 118 1011 104 1004 q 156 1019 136 1018 q 193 1022 175 1021 l 397 1022 q 421 1020 408 1021 q 444 1017 433 1019 q 462 1011 453 1015 q 479 1003 471 1007 q 488 998 483 1001 q 499 992 493 994 q 512 990 504 990 q 525 989 519 990 q 534 992 529 989 q 543 996 539 994 q 565 1006 554 1000 q 586 1014 575 1011 q 630 1022 607 1021 q 675 1022 653 1022 l 801 1022 q 842 1022 821 1022 q 883 1019 863 1022 q 913 1013 894 1018 q 926 1005 919 1010 q 939 997 933 1000 q 958 992 950 994 q 969 989 964 989 q 978 990 974 988 q 988 993 983 992 q 1022 1004 1006 996 q 1056 1017 1038 1013 q 1096 1022 1075 1021 q 1136 1022 1117 1022 l 1251 1022 q 1294 1022 1272 1022 q 1336 1018 1317 1022 q 1345 1016 1340 1017 q 1354 1013 1350 1015 q 1386 974 1375 1001 q 1401 917 1397 947 q 1404 867 1404 888 l 1404 163 q 1402 133 1403 149 q 1397 104 1401 118 q 1395 94 1396 100 q 1392 86 1394 89 q 1386 78 1390 82 q 1379 71 1382 75 q 1376 67 1378 69 q 1372 63 1375 64 q 1360 63 1368 61 q 1349 64 1353 64 q 1342 64 1342 64 q 1340 67 1340 65 q 1339 71 1340 69 q 1332 92 1335 81 q 1330 121 1329 106 q 1331 150 1331 136 l 1331 799 q 1331 851 1331 825 q 1328 903 1332 876 q 1323 926 1326 914 q 1313 947 1319 939 q 1308 951 1311 950 q 1303 954 1306 953 q 1296 960 1300 957 q 1289 964 1292 963 q 1275 968 1283 967 q 1260 971 1267 969 q 1222 973 1242 974 q 1182 972 1201 972 q 1126 973 1154 972 q 1071 972 1099 974 q 1047 970 1060 971 q 1022 965 1033 969 q 1017 961 1019 964 q 1011 956 1014 958 q 1005 952 1008 954 q 999 947 1001 950 q 992 929 994 942 q 983 884 983 908 q 983 838 983 860 l 983 433 q 983 404 983 419 q 982 374 983 389 q 982 365 982 369 q 981 356 982 360 q 977 345 979 350 q 974 335 975 340 q 972 331 972 333 q 971 328 972 329 q 967 325 969 326 q 961 321 964 324 q 953 316 957 319 q 944 311 949 313 q 935 310 940 310 q 925 311 929 311 q 919 310 922 311 q 913 310 915 310 q 910 313 911 311 q 906 315 908 314 q 896 322 901 318 q 888 329 890 325 q 882 342 883 333 q 879 356 881 350 q 876 381 876 367 q 876 407 876 396 l 876 825 q 876 867 876 846 q 874 908 876 889 q 874 917 874 913 q 872 925 874 921 q 869 933 871 929 q 864 942 867 938 l 858 951 q 854 955 857 954 q 849 957 851 956 q 842 963 846 960 q 833 967 838 965 q 822 969 828 969 q 811 971 817 969 q 786 972 799 972 q 763 972 774 972 l 689 972 q 650 972 669 972 q 611 971 631 972 q 594 969 601 971 q 578 965 586 968 q 573 964 576 964 q 567 961 569 964 q 556 950 563 960 q 543 939 546 944 q 540 931 542 936 q 538 922 539 926 q 530 877 529 901 q 531 831 531 853 l 531 394 q 529 372 529 385 q 525 350 529 360 q 519 340 524 344 q 511 331 514 335 q 510 327 510 329 q 507 324 510 325 q 499 321 504 322 q 492 318 494 319 q 486 315 490 317 q 479 314 482 314 q 475 315 478 314 q 469 318 472 317 q 460 320 465 319 q 450 324 454 321 q 447 328 449 325 q 443 332 446 331 q 437 339 440 335 q 431 346 433 343 q 428 361 428 354 q 423 393 424 376 q 422 426 422 410 l 422 835 q 422 878 422 856 q 414 919 421 900 q 411 928 413 922 q 407 936 410 933 q 401 944 406 940 q 393 950 396 947 q 389 955 392 953 q 383 958 386 957 q 360 967 374 965 q 336 971 347 969 q 284 973 310 974 q 232 972 258 972 q 197 972 214 972 q 163 969 181 972 q 141 967 153 969 q 119 960 129 965 q 92 934 101 950 q 81 899 83 918 q 77 869 78 885 q 76 839 76 854 l 76 161 q 76 117 76 139 q 81 72 76 94 q 88 51 83 63 q 97 31 92 39 q 105 24 100 28 q 114 18 110 21 q 119 15 117 17 q 124 11 121 13 q 131 9 126 10 q 138 7 135 8 q 172 1 156 3 q 207 0 189 0 q 260 0 228 0 q 324 0 292 0 q 378 0 357 0 l 1181 0 q 1206 0 1193 0 q 1229 -6 1218 0 l 1240 -10 q 1243 -10 1242 -11 q 1244 -11 1244 -10 q 1242 -13 1244 -12 q 1238 -15 1240 -14 q 1219 -21 1231 -18 q 1178 -25 1199 -24 q 1135 -28 1157 -26 z "},"Щ":{"ha":1472,"x_min":92,"x_max":1482,"o":"m 589 1054 q 600 1062 594 1057 q 611 1068 606 1067 q 661 1076 635 1076 q 711 1075 688 1075 q 768 1076 739 1075 q 826 1074 797 1076 q 852 1070 838 1072 q 876 1061 867 1068 q 882 1057 879 1060 q 888 1051 885 1054 q 894 1046 890 1049 q 899 1040 897 1043 q 903 1032 901 1038 q 906 1024 904 1026 q 915 983 913 1004 q 921 940 918 961 q 928 888 926 919 q 929 825 929 857 q 929 772 929 793 l 929 569 q 928 507 929 539 q 936 447 928 475 q 951 415 942 431 q 967 383 961 400 q 972 365 972 372 q 972 356 974 361 q 969 346 969 350 q 968 342 968 344 q 967 338 968 340 q 962 333 965 335 q 956 328 958 331 q 951 324 954 326 q 946 319 949 321 q 941 318 944 318 q 935 318 938 318 q 926 317 932 318 q 917 317 921 315 q 914 319 915 318 q 910 322 913 321 q 901 328 907 325 q 893 333 896 331 l 889 343 q 885 351 888 347 q 882 360 883 356 q 881 369 881 364 q 879 379 881 374 q 878 411 878 394 q 878 444 878 428 l 878 767 q 878 819 878 793 q 876 869 879 844 q 876 897 876 882 q 869 922 875 911 q 825 965 856 954 q 801 970 814 969 q 776 972 788 971 q 713 973 746 974 q 647 972 679 972 l 601 972 q 594 972 599 972 q 588 974 590 972 q 578 978 582 975 q 569 983 574 982 q 563 988 564 986 q 561 996 561 990 q 561 1003 561 1001 q 560 1010 561 1006 q 560 1018 558 1015 q 563 1024 561 1021 q 567 1029 565 1028 q 575 1042 571 1036 q 589 1054 579 1049 m 1482 113 l 1482 -65 q 1482 -108 1482 -86 q 1478 -150 1482 -129 q 1468 -185 1475 -168 q 1453 -218 1461 -201 q 1442 -240 1447 -228 q 1428 -260 1436 -251 q 1392 -280 1413 -275 q 1351 -286 1372 -285 q 1290 -287 1321 -287 q 1229 -287 1260 -287 q 1193 -287 1211 -287 q 1158 -285 1175 -287 q 1147 -282 1153 -283 q 1136 -279 1142 -281 q 1097 -236 1107 -267 q 1096 -226 1096 -232 q 1094 -215 1096 -219 q 1094 -210 1094 -212 q 1094 -207 1093 -208 q 1097 -205 1094 -206 q 1100 -203 1099 -204 q 1107 -195 1103 -200 q 1115 -189 1111 -190 q 1126 -189 1119 -187 q 1138 -192 1133 -190 q 1163 -194 1150 -193 q 1186 -194 1175 -194 q 1263 -195 1218 -194 q 1339 -194 1308 -196 q 1368 -191 1354 -193 q 1394 -182 1382 -189 q 1401 -178 1397 -179 q 1408 -175 1406 -176 l 1414 -165 q 1419 -158 1417 -162 q 1424 -150 1422 -154 q 1428 -135 1426 -143 q 1429 -119 1429 -126 q 1431 -73 1432 -96 q 1431 -28 1431 -50 l 1431 143 q 1431 182 1431 163 q 1429 221 1431 201 q 1428 244 1429 232 q 1422 267 1426 257 q 1404 290 1414 281 q 1388 300 1397 296 q 1371 307 1378 304 q 1361 313 1367 310 q 1351 318 1356 315 l 1346 326 q 1341 335 1344 331 q 1335 343 1338 339 q 1333 358 1333 350 q 1331 374 1332 367 q 1330 442 1329 406 q 1331 510 1331 479 l 1331 768 q 1331 826 1331 797 q 1329 883 1332 854 q 1328 910 1329 896 q 1319 935 1326 924 q 1313 944 1317 940 q 1306 952 1310 947 q 1300 958 1303 957 q 1295 961 1299 961 q 1289 963 1292 961 q 1272 968 1279 967 q 1253 971 1264 969 q 1176 973 1222 974 q 1097 972 1129 972 q 1074 972 1086 972 q 1050 974 1061 972 q 1042 973 1047 974 q 1035 974 1038 972 l 1025 985 q 1020 991 1024 988 q 1015 996 1017 994 q 1015 1003 1014 999 q 1017 1011 1017 1008 q 1017 1019 1018 1014 q 1018 1026 1017 1024 l 1028 1038 q 1033 1044 1031 1040 q 1036 1050 1035 1047 q 1058 1063 1046 1058 q 1081 1071 1069 1068 q 1124 1076 1101 1076 q 1167 1075 1146 1075 q 1226 1075 1196 1075 q 1286 1072 1256 1075 q 1321 1063 1303 1071 q 1350 1040 1339 1056 q 1360 1015 1357 1031 q 1367 988 1364 1000 q 1376 933 1372 961 q 1381 876 1379 904 q 1383 822 1382 861 q 1383 736 1383 782 q 1382 651 1382 690 q 1382 596 1382 611 q 1381 539 1382 568 q 1383 482 1381 510 q 1389 451 1385 467 q 1403 424 1393 436 q 1413 413 1407 418 q 1425 403 1419 408 q 1446 381 1436 393 q 1461 354 1456 369 q 1467 325 1465 340 q 1471 294 1468 310 q 1476 265 1474 281 q 1479 235 1478 250 q 1482 175 1482 206 q 1482 113 1482 144 m 150 1064 q 163 1067 157 1065 q 175 1071 169 1069 q 221 1076 197 1076 q 267 1075 244 1075 q 314 1076 290 1075 q 360 1074 338 1076 q 387 1072 372 1074 q 413 1065 401 1071 q 421 1060 417 1064 q 429 1053 425 1056 q 439 1046 435 1050 q 450 1027 446 1039 q 456 1006 454 1015 q 465 965 461 986 q 469 924 468 944 q 475 849 475 893 q 475 774 475 806 l 475 507 q 476 483 475 496 q 478 460 476 471 q 492 426 482 442 q 510 396 501 411 q 515 388 513 392 q 518 379 517 383 q 520 368 521 374 q 519 357 519 363 q 519 350 519 350 q 515 341 518 346 q 510 333 513 336 q 507 328 508 332 q 504 324 506 325 q 495 319 501 321 q 486 317 489 318 q 481 314 485 315 q 475 313 478 313 q 463 315 469 313 q 451 319 457 318 q 444 321 446 319 q 442 324 443 322 q 440 328 442 326 q 434 338 438 333 q 428 349 431 343 q 424 369 425 358 q 424 389 424 379 l 424 856 q 423 883 424 869 q 419 911 422 897 q 388 958 413 942 q 365 967 378 965 q 340 971 351 969 q 289 973 315 974 q 238 972 263 972 l 185 972 q 161 972 174 972 q 136 974 149 972 q 130 975 135 975 q 122 976 125 975 q 117 982 119 978 q 113 989 115 986 q 108 995 111 992 q 104 1000 106 999 q 106 1008 104 1003 q 108 1015 107 1013 q 111 1029 108 1021 q 127 1049 117 1040 q 150 1064 138 1057 m 1032 -87 q 1015 -91 1024 -90 q 996 -93 1007 -92 l 189 -93 q 163 -91 176 -92 q 138 -86 149 -90 q 130 -83 133 -85 q 122 -79 126 -81 q 111 -69 115 -74 q 101 -57 107 -64 q 98 -53 100 -56 q 96 -49 96 -50 q 94 -41 94 -46 q 94 -33 94 -36 q 93 -25 94 -31 q 93 -18 92 -19 q 97 -13 94 -15 q 101 -10 100 -11 q 109 -3 104 -7 q 117 3 114 1 l 150 3 q 202 1 171 1 q 265 0 233 0 q 317 0 296 0 l 957 0 q 990 -1 974 0 q 1019 -4 1006 -1 q 1028 -6 1024 -6 q 1035 -8 1032 -6 q 1044 -14 1040 -10 q 1053 -21 1049 -18 q 1057 -22 1056 -22 q 1060 -25 1058 -22 q 1063 -36 1063 -29 q 1065 -49 1064 -43 q 1066 -51 1065 -50 q 1067 -56 1067 -53 q 1065 -58 1067 -57 q 1063 -62 1064 -60 q 1056 -72 1060 -67 q 1050 -81 1053 -78 q 1042 -85 1047 -83 q 1032 -87 1036 -86 z "},"Ь":{"ha":979,"x_min":-31,"x_max":1025,"o":"m 990 193 q 939 119 969 163 q 876 47 908 75 q 818 17 861 32 q 723 -8 775 3 q 628 -27 671 -19 q 569 -37 585 -35 q 501 -42 539 -39 q 431 -47 463 -46 q 379 -49 410 -49 q 318 -49 349 -49 q 267 -49 288 -49 l 140 -49 q 105 -49 122 -49 q 71 -49 88 -50 q 42 -46 57 -47 q 15 -39 28 -44 q 9 -35 13 -37 q 3 -31 6 -32 q -2 -26 1 -28 q -8 -22 -6 -24 q -12 -15 -11 -19 q -17 -8 -14 -11 q -20 -1 -18 -4 q -24 7 -22 3 q -28 31 -28 18 q -29 56 -28 44 q -30 128 -31 88 q -29 200 -29 169 l -29 796 q -27 847 -29 821 q -15 894 -25 872 q 1 920 -8 908 q 18 944 10 932 q 42 983 29 964 q 74 1014 54 1003 q 83 1017 78 1017 q 92 1019 88 1018 q 138 1026 114 1026 q 183 1025 161 1025 q 244 1025 204 1025 q 325 1023 285 1025 q 386 1013 365 1021 q 437 996 411 1007 q 481 965 463 985 q 506 918 500 946 q 511 863 511 890 q 511 814 511 835 q 515 783 513 799 q 525 753 517 768 q 530 747 528 751 q 533 740 532 743 q 540 737 536 739 q 546 732 543 735 q 578 717 561 722 q 614 710 596 713 q 692 695 646 703 q 768 674 738 688 q 817 652 793 664 q 864 626 842 640 q 911 595 888 613 q 953 557 935 578 q 982 508 968 542 q 1006 433 996 474 q 1021 359 1017 393 q 1022 310 1025 325 q 1013 251 1019 281 q 990 193 1006 222 m 729 36 q 781 72 750 50 q 844 120 813 94 q 893 167 875 146 q 931 268 919 213 q 937 319 938 283 q 931 394 936 354 q 914 470 925 435 q 888 521 903 506 q 834 578 865 553 q 771 619 803 603 q 707 646 750 636 q 622 661 664 656 q 558 668 579 667 q 525 669 542 669 q 492 671 508 669 q 480 672 486 671 q 469 674 474 672 q 462 677 465 675 q 456 681 458 679 l 442 689 l 436 700 q 429 715 431 707 q 425 739 425 726 q 424 763 425 751 q 424 817 424 790 q 424 869 425 843 q 422 896 422 882 q 418 921 422 910 q 378 964 407 950 q 368 967 374 967 q 357 968 363 967 q 325 972 342 972 q 293 972 308 972 l 193 972 q 160 972 176 972 q 128 965 143 971 l 114 961 l 106 953 q 99 947 103 950 q 92 939 94 943 q 83 919 86 931 q 79 897 81 907 q 76 826 75 867 q 76 753 76 785 l 76 226 q 76 163 76 196 q 76 97 75 129 q 81 67 78 82 q 90 39 83 53 q 97 25 93 32 q 119 11 106 15 q 143 4 132 7 q 167 1 154 1 q 190 0 179 0 l 439 0 q 498 0 460 0 q 574 2 536 0 q 632 10 611 4 q 729 36 678 18 m 535 265 q 503 259 518 261 q 471 258 488 257 q 460 259 467 260 q 449 260 454 258 q 445 263 447 261 q 440 267 443 265 q 433 272 438 269 q 426 278 428 275 q 425 286 425 281 q 425 296 425 292 q 424 306 425 300 q 422 341 422 322 q 425 375 422 360 q 426 387 425 379 q 429 397 426 394 q 432 400 431 400 q 435 401 433 400 q 445 408 440 404 q 456 413 450 411 q 469 414 461 415 q 482 413 476 413 q 531 404 506 413 q 538 402 533 403 q 544 399 542 401 q 551 393 547 397 q 557 386 554 389 q 564 378 563 381 q 567 371 567 375 q 569 364 568 367 q 568 303 579 336 q 566 296 567 300 q 563 289 565 292 q 558 283 561 286 q 551 278 554 281 q 545 272 549 275 q 535 265 542 268 z "}}}
